<?xml version="1.0" encoding="utf-8"?>
<!-- Generator: Adobe Illustrator 16.0.4, SVG Export Plug-In . SVG Version: 6.00 Build 0)  -->
<!DOCTYPE svg PUBLIC "-//W3C//DTD SVG 1.1//EN" "http://www.w3.org/Graphics/SVG/1.1/DTD/svg11.dtd">
<svg version="1.1" id="Ebene_1" xmlns="http://www.w3.org/2000/svg" xmlns:xlink="http://www.w3.org/1999/xlink" x="0px" y="0px"
	 width="566.93px" height="566.93px" viewBox="0 0 566.93 566.93" enable-background="new 0 0 566.93 566.93" xml:space="preserve">
<line fill="#C6C7C8" stroke="#C6C7C8" x1="658.777" y1="527.383" x2="661.777" y2="525.42"/>
<path fill="#C6C7C8" stroke="#C6C7C8" stroke-width="1.7187" d="M263.179,58.549"/>
<path fill="#C6C7C8" stroke="#C6C7C8" stroke-width="1.7187" d="M263.179,58.549"/>
<path fill="#C6C7C8" stroke="#C6C7C8" d="M376.215,151.403"/>
<path fill="#C6C7C8" stroke="#C6C7C8" d="M368.222,378.356"/>
<path fill="#C6C7C8" stroke="#C6C7C8" d="M155.641,377.958"/>
<path fill="#C6C7C8" stroke="#C6C7C8" d="M151.242,150.722"/>
<path fill="#C6C7C8" stroke="#C6C7C8" stroke-width="1.7187" d="M263.032,125.507"/>
<path fill="#C6C7C8" stroke="#C6C7C8" stroke-width="1.7187" d="M263.032,397.543"/>
<path fill="#C6C7C8" stroke="#C6C7C8" stroke-width="1.7187" d="M264.208,138.782"/>
<path fill="#C6C7C8" stroke="#C6C7C8" stroke-width="1.7187" d="M264.208,384.267"/>
<path fill="#C6C7C8" stroke="#C6C7C8" d="M257.654,515.84"/>
<path fill="#C6C7C8" stroke="#C6C7C8" stroke-width="4" d="M136.558,551.268c0,0-5.306-531.281,0-531.281
	c5.305,0,8.72,10.463,10.463,10.463c1.742,0,0,520.817,0,520.817H136.558z"/>
<path fill="#C6C7C8" stroke="#C6C7C8" stroke-width="4" d="M426.683,131.274c-0.804-2.146-1.579-4.298-2.301-6.415
	c-6.331-12.979-14.165-25.955-22.271-31.822c16.811,2.491,20.594,7.448,20.594,7.448c-5.2,0-2.73,11.493,1.677,24.375
	c0.7,1.436,1.383,2.873,2.044,4.299c-1.64-13.949-1.924-24.475,0-29.331c4.602-11.611-114.678-37.789-169.772-23.878
	C208.904,88.006,141.79,45.282,141.79,45.282v268.79c0,0,72.365-36.803,82.891-31.702c-2.52,5.157-2.453,9.415-0.278,12.928
	c19.372,31.28,206.241,3.272,226.341,23.374C473.07,340.999,435.088,198.958,426.683,131.274z M226.683,294.075
	c0.444-0.238,0.874-0.469,1.216-0.651C227.44,293.67,227.042,293.883,226.683,294.075z M231.898,291.727
	c-3.45,3.45-3.286,1.314-3.286,1.314c22.674-12.486-2.08-13.691-2.08-13.691s5.609-2.804,10.545-1.452l-4.082-135.534l11.484,138.75
	c0.016,0.092,0.024,0.187,0.024,0.285l0.001,0.033h-0.001C244.461,283.362,241.171,286.555,231.898,291.727z M441.184,309.679
	c-6.299-5.62-46.421-6.713-85.955-6.352c-6.457,0.876-13.411,0.874-19.109,0.276c-19.281,0.377-37.001,0.994-48.824,1.461
	c-8.154,0.57-14.853,0.639-14.853,0.639s5.64-0.276,14.853-0.639c11.09-0.773,24.875-2.476,28.202-6.206
	c4.45-4.987,6.579-18.699,7.321-24.729c0.175-1.795,0.318-2.916,0.318-2.916s-0.101,1.122-0.318,2.916
	c-0.669,6.714-1.842,22.975,1.989,26.391c1.576,1.406,5.87,2.514,11.312,3.083c6.259-0.12,12.675-0.218,19.109-0.276
	c6.385-0.866,12.278-2.589,15.944-5.452c4.749-3.705,5.425-16.293,4.671-29.345c-2.72-16.938-4.377-34.742-4.377-34.742
	s3.399,17.765,4.377,34.742c2.33,14.487,5.439,28.34,8.965,29.882c7.65,3.35,34.692,8.114,44.991,4.016
	c10.297-4.099,6.518-78.046,6.518-78.046S454.132,321.228,441.184,309.679z"/>
</svg>
