<?xml version="1.0" encoding="utf-8"?>
<!-- Generator: Adobe Illustrator 16.0.4, SVG Export Plug-In . SVG Version: 6.00 Build 0)  -->
<!DOCTYPE svg PUBLIC "-//W3C//DTD SVG 1.1//EN" "http://www.w3.org/Graphics/SVG/1.1/DTD/svg11.dtd">
<svg version="1.1" id="Ebene_1" xmlns="http://www.w3.org/2000/svg" xmlns:xlink="http://www.w3.org/1999/xlink" x="0px" y="0px"
	 width="566.93px" height="566.93px" viewBox="0 0 566.93 566.93" enable-background="new 0 0 566.93 566.93" xml:space="preserve">
<line fill="#BE0A26" stroke="#E2001A" x1="658.777" y1="527.383" x2="661.777" y2="525.42"/>
<g>
	<path fill="#FFFFFF" stroke="#BE0A26" stroke-width="1.7187" d="M282.113,67.482"/>
	<path stroke="#BE0A26" stroke-width="1.7187" d="M282.113,67.482"/>
	<path stroke="#BE0A26" d="M403.169,166.923"/>
	<path stroke="#BE0A26" d="M394.609,409.979"/>
	<path stroke="#BE0A26" d="M166.947,409.551"/>
	<path stroke="#BE0A26" d="M162.235,166.194"/>
	<path fill="none" stroke="#BE0A26" stroke-width="1.7187" d="M281.958,139.19"/>
	<path fill="none" stroke="#BE0A26" stroke-width="1.7187" d="M281.958,430.526"/>
	<path fill="none" stroke="#BE0A26" stroke-width="1.7187" d="M283.216,153.407"/>
	<path fill="none" stroke="#BE0A26" stroke-width="1.7187" d="M283.216,416.309"/>
	<path stroke="#BE0A26" d="M276.198,557.216"/>
</g>
<polygon fill="#BE0A26" stroke="#BE0A26" stroke-width="1.7348" points="321.702,252.812 289.796,283.069 288.649,68.026 "/>
<polygon fill="#BE0A26" stroke="#BE0A26" stroke-width="1.7348" points="318.189,314.708 289.346,280.721 515.058,281.683 "/>
<polygon fill="#BE0A26" stroke="#BE0A26" stroke-width="1.7348" points="257.842,313.527 288.893,278.372 291.021,495.031 "/>
<polygon fill="#BE0A26" stroke="#BE0A26" stroke-width="1.7348" points="256.993,250.887 289.346,280.721 65.059,283.674 "/>
<path fill="#BE0A26" stroke="#BE0A26" d="M298.999,12.742c5.227,1.918,3.635,44.562-0.602,45.902
	c-4.226,1.33-7.024-24.302-15.341-21.158c-8.319,3.131,2.967,22.949-4.053,21.158c-7.02-1.769-4.494-47.155,0.611-46.633
	c5.087,0.519,8.153,22.295,13.049,25.592C297.566,40.893,293.781,10.837,298.999,12.742z"/>
<polygon fill="#BE0A26" stroke="#BE0A26" points="318.979,237.237 414.132,165.766 338.977,254.9 321.702,252.812 "/>
<polygon fill="#BE0A26" stroke="#BE0A26" points="333.144,312.075 405.259,404.662 315.617,331.86 318.189,314.708 "/>
<polygon fill="#BE0A26" stroke="#BE0A26" points="261.014,330.953 169.274,404.244 240.849,310.896 257.842,313.527 "/>
<polygon fill="#BE0A26" stroke="#BE0A26" points="238.064,254.12 164.39,165.049 259.441,236.744 256.993,250.887 "/>
<ellipse fill="none" stroke="#BE0A26" stroke-width="1.7348" cx="288.49" cy="281.683" rx="150.992" ry="143.176"/>
<ellipse fill="none" stroke="#BE0A26" stroke-width="1.7348" cx="289.795" cy="281.683" rx="136.256" ry="129.202"/>
<path fill="#BE0A26" stroke="#BE0A26" d="M540.3,303.641c21.49-7.392,7.456-47.823-3.38-44.402
	C526.076,262.67,518.824,311.041,540.3,303.641z M539.004,267.969c10.948,0.282,12.674,21.559,1.941,26.542
	C530.219,299.501,528.054,267.701,539.004,267.969z"/>
<path fill="#BE0A26" stroke="#BE0A26" d="M296.099,506.11c-6.547-1.374-14.643,8.286-13.777,15.336
	c0.87,7.041,13.354,1.747,13.945,9.105c0.589,7.353-14.897,9.279-13.748,18.829c1.156,9.563,21.992-7.643,18.387-17.483
	c-3.61-9.857-11.175-7.932-9.352-13.062C293.384,513.703,302.637,507.48,296.099,506.11z"/>
<path fill="#BE0A26" stroke="#BE0A26" d="M16.089,261.763c-6.881,3.264-3.475,37.011,2.021,39.954
	c5.496,2.943,13.101-21.752,16.4-23.316c3.296-1.565,6.49,22.807,11.985,20.199c5.496-2.606,6.298-34.569,3.308-36.17
	s2.563,14.151-3.228,16.899c-5.791,2.748-6.227-13.834-9.891-12.096c-3.666,1.736-7.078,18-13.784,18.735
	C16.192,286.709,22.969,258.5,16.089,261.763z"/>
<polygon fill="#BE0A26" stroke="#BE0A26" stroke-width="1.7348" points="256.993,250.887 258.359,252.175 288.649,91.601 
	288.649,68.026 "/>
<g>
	<polygon fill="#BE0A26" stroke="#BE0A26" stroke-width="1.7348" points="489.842,281.649 515.058,281.683 321.702,252.812 
		320.544,253.879 	"/>
	<polygon fill="#BE0A26" stroke="#BE0A26" stroke-width="1.7348" points="319.461,254.88 290.75,281.375 291.575,281.375 	"/>
</g>
<g>
	<polygon fill="#BE0A26" stroke="#BE0A26" stroke-width="1.7348" points="65.059,283.674 257.842,313.527 90.435,283.34 	"/>
	<polygon fill="#BE0A26" stroke="#BE0A26" stroke-width="1.7348" points="115.972,283.004 287.011,282.189 257.842,313.527 
		289.346,280.721 	"/>
</g>
<polygon fill="#BE0A26" stroke="#BE0A26" stroke-width="1.7348" points="289.54,283.069 287.956,374.812 290.941,287.25 
	316.275,315.223 290.793,462.314 291.025,495.762 318.189,314.708 "/>
</svg>
