<?xml version="1.0" encoding="utf-8"?>
<!-- Generator: Adobe Illustrator 16.0.4, SVG Export Plug-In . SVG Version: 6.00 Build 0)  -->
<!DOCTYPE svg PUBLIC "-//W3C//DTD SVG 1.1//EN" "http://www.w3.org/Graphics/SVG/1.1/DTD/svg11.dtd">
<svg version="1.1" id="Ebene_1" xmlns="http://www.w3.org/2000/svg" xmlns:xlink="http://www.w3.org/1999/xlink" x="0px" y="0px"
	 width="4251.971px" height="595.28px" viewBox="0 0 4251.971 595.28" enable-background="new 0 0 4251.971 595.28"
	 xml:space="preserve">
<g>
	<path fill="#82368C" stroke="#82368C" d="M487.042,448.615c0,0-11.4-82.581-10.055-88.888c1.346-6.312-64.965-5.761-69.551-2.315
		c-4.334,3.256-56.438,59.462-61.435,70.704c13.949-16.925,0.749,6.361,7.229,24.216c5.402,14.871-20.446,34.216-19.991,42.358
		C343.303,502.393,365.001,384.384,487.042,448.615z"/>
	<path fill="#82368C" stroke="#82368C" d="M256.401,122.622c-0.81-8.899,1.457,42.438,3.236,45.577
		c-0.831-1.271-8.9-29.395-8.9-29.395s-9.978,17.26-15.911,24.004c-0.333,0.375,8.973,0.723,10.794,2.372
		c1.193,1.068,13.434,7.261,15.426,8.979c-0.098-0.039-0.162-0.062-0.162-0.062s0.778,0.561,1.069,0.741
		c2.884,1.824,31.965,15.796,33.362,17.054c1.294,1.171,3.757,6.128,1.898,4.262c-4.511-4.534-21.053-11.654-21.053-11.654
		s7.192,5.057,15.193,11.043c-4.846,0.515-24.754,17.211-25.505,21.451c-1.71,9.645,11.491-8.304,11.491-8.304
		s11.722-11.581,14.525-11.017c3.679,0.744,10.588,9.346,14.802,13.95c4.639,11.863,15.915,39.72,16.282,50.241
		c0.382,10.694,0.208,38.914-2.232,45.924c-0.145,0.232-0.298,0.508-0.479,0.835c0.388-0.654,0.741-1.255,1.055-1.795
		c-1.278,3.947-3.511,7.951-6.091,11.565c2.169-3.919,3.957-7.718,5.037-9.771c-2.251,3.86-5.618,9.52-8.724,14.46
		c-3.182,3.662-6.421,6.526-8.753,7.877c-4.519,2.636-20.394,5.686-28.805,6.742c-9.593-2.307-38.932-16.731-55.983-25.355
		c-3.653-10.951-11.815-34.206-16.739-35.481c-4.118-1.082-11.615-14.86-14.412-32.072c2.495-17.312,2.073-30.716,4.854-35.6
		c5.88-10.374,30.097-7.282,45.309-38.837c2.002-7.729-33.147-41.683-33.147-41.683s11.554,42.848,12.918,44.919
		c-3.799,2.089-38.834,4.046-38.834,4.046l15.371,20.767c-1.071-4.394-37.082-24.269-37.082-24.269l44.635-11.872
		c0,0-2.57-38.285-2.427-40.989c-7.891-4.246-47.196,36.136-60.951,61.217c-13.787,25.142,3.891,68.151,4.583,72.008
		c28.68,159.354-121.901,75.514-43.155,61.488c4.357-0.774-105.718-4.314,10.79,55.019c67.3,34.271,77.227-58.099,63.651-37.216
		c-13.58,20.879-13.39,191.352-41.937,139.967c-6.068-10.92,14.159,3.237,8.495-6.067c-12.525-20.576-42.069,21.688,24.817,43.359
		c17.255,5.588,9.702-19.219,29.118-61.288c2.524-14.433,22.731-63.142,22.587-62.699c-0.52,1.622,4.595,3.64,13.005,5.77
		c-2.058,2.948-26.155,31.276-28.894,59.629c-2.743,28.356,6.476,37.448-4.057,24.922c-10.535-12.527,2.763,47.572-3.928,22.311
		c-6.692-25.265-0.003-43.317,1.746-47.33c1.749-4.021,22.614-58.223,22.105-58.219c-3.931-0.025-28.169,56.738-29.978,60.909
		c-1.806,4.169-3.528,42.155-1.801,49.17c1.737,7.006,22.111,13.621,26.276,20.761c4.161,7.14,132.576-87.195,140.809-98.674
		c6.93-9.665,76.922-67.525,74.274-65.603c-9.292-5.711-10.809,1.337-7.275-11.044c34.333-20.847-42.715-31.586-42.715-31.586
		c5.052,3.621-12.168,88.979-22.668,91.188c-0.471,0.1-0.895,0.202-1.318,0.304c-1.086,1.485-2.11,2.404-3.071,2.605
		c-0.255,0.05-0.473,0.108-0.716,0.154c-0.592,0.546-1.168,0.9-1.716,1.015c-11.326,2.396-10.9,4.229-17.298,3.456
		c-6.419-0.756-57.731-10.924-69.961-12.496c-0.824-0.105-1.73-0.253-2.676-0.419c1.792-1.37,3.315-2.995,4.57-4.752
		c34.525,5.776,76.981,10.583,80.38,9.06c5.867-2.609,28.303-75.386,27.497-86.193c-0.803-10.812-2.074-15.684-4.083-14.287
		c-2.019,1.394-19.433,7.651-28.957,5.568c-8.163-1.792-10.728-23.637-11.29-29.812c0.355-4.059,0.642-7.291,0.697-7.946
		c0.188-2.041-3.77-31.756-3.77-31.756s-0.416-1.461-1.097-3.756l0.151,0.091c1.367,5.114,3.102,9.987,5.423,14.09
		c10.169,18.012,2.365,43.54,10.135,47.466c7.771,3.925,31.695,5.717,34.829,4.313c3.129-1.395,40.5,12.489,44.976,13.332
		c29.705,5.587,30.799-22.899,32.941-26.775c1.065-1.914-16.181,27.506-38.833,11.326c-13.75-9.82-16.183-25.815-16.183-33.981
		c0-18.609,33.263-38.688,38.299-52.859c5.021-14.172-8.324-40.019-17.264-43.691c-8.925-3.674-36.006,8.88-35.061,18.341
		c1.888,18.877,22.653,13.483,22.653,13.483s-19.146-9.979-2.692-16.719c10.043-4.117,15.911,2.156,15.911,9.708
		c0,3.441-4.564,23.99-34.521,25.083c-29.972,1.095-8.789-20.031-21.304-36.679c-12.516-16.652-20.229-9.709-48.545-35.601
		c-16.55-15.131-39.827-44.587-70.39-40.453c-30.57,4.139-41.127,6.031-38.565,9.982c3.203,2.071,33.443,25.077,33.443,25.077
		 M335.299,320.957c8.925,1.855,25.279-3.851,27.183-5.105c1.897-1.266,3.068,3.137,3.794,12.886
		c0.726,9.763-20.517,75.536-26.035,77.9c-3.292,1.426-45.595-3.106-78.481-8.462c2.177-3.33,3.524-6.951,4.276-9.808
		c1.633-6.2-10.314-28.446-20.177-42.421c0.041-0.354,0.061-0.687,0.021-0.961c-0.686-5.781-4.073-13.655-8.965-17.364
		c8.484,4.363,32.45,15.961,36.125,15.897c4.835-0.075,25.876-3.606,31.069-6.509c5.186-2.912,15.199-13.467,17.865-23.197
		c2.667-9.723,2.686-21.22,2.686-21.22S326.373,319.095,335.299,320.957z M323.673,294.889c0.22-2.547,0.472-5.337,0.703-7.997
		C324.251,289.11,324.042,291.879,323.673,294.889z M209.106,308.159l-1.682-0.833l-0.194-0.338
		c-0.004-0.013-0.011-0.023-0.013-0.04c0.055,0.027,0.095,0.05,0.149,0.084l0.05,0.154L209.106,308.159z"/>
	<path fill="#82368C" stroke="#82368C" d="M558.305,297.997c7.373,4.001,14.707,4.584,17.051,1.555
		c-1.486,1.797-5.666,1.713-10.665,0.004c2.34-0.849,4.307-2.637,5.16-5.181c0.529-1.515,0.545-3.079,0.224-4.562
		c4.337,3.45,6.708,7.111,5.637,9.306c0.017-0.009,0.036-0.033,0.045-0.052c1.858-3.631-2.936-9.98-10.704-14.195
		c-7.776-4.221-15.593-4.697-17.461-1.065c0,0.015,0,0.035-0.018,0.045c1.162-2.113,5.391-2.169,10.537-0.485
		c-2.219,0.879-4.062,2.616-4.883,5.052c-0.533,1.577-0.537,3.193-0.167,4.716c-3.877-3.125-6.132-6.404-5.658-8.597
		C546.413,288.236,551.008,294.037,558.305,297.997z"/>
	<path fill="#82368C" stroke="#82368C" d="M194.604,252.202c0,0,34.716-23.747,43.358-17.406c0,0,5.459,0.058,5.287-1.529
		C232.904,219.648,194.604,252.202,194.604,252.202z"/>
	<path fill="#82368C" stroke="#82368C" d="M302.055,223.79c0,0-8.023-5.819-15.894-1.882c-0.14,0.064-0.271,0.138-0.407,0.211
		c-7.723,4.177-10.495,14.133-10.495,14.133s9.795,3.48,17.659-0.429c0.171-0.08,0.33-0.166,0.489-0.249
		C301.096,231.448,302.055,223.79,302.055,223.79z M290.938,222.917c0.147-0.01,0.287,0.015,0.421,0.064
		c0.076,0.026,0.144,0.079,0.216,0.121c0.038,0.027,0.083,0.047,0.118,0.081c0.098,0.076,0.175,0.167,0.245,0.271
		c0.002,0.009,0.008,0.013,0.013,0.019c0.075,0.118,0.13,0.245,0.171,0.386c0.077-0.236,0.218-0.433,0.45-0.452
		c0.299-0.015,0.575,0.28,0.595,0.656c0.031,0.389-0.217,0.717-0.502,0.745c-0.235,0.013-0.4-0.163-0.507-0.388v0
		c-0.022,0.144-0.059,0.278-0.118,0.404c-0.007,0.008-0.011,0.015-0.013,0.024c-0.057,0.112-0.121,0.217-0.201,0.303
		c-0.037,0.041-0.074,0.069-0.115,0.1c-0.062,0.052-0.122,0.113-0.197,0.15c-0.122,0.064-0.26,0.115-0.407,0.125
		c-0.645,0.044-1.208-0.5-1.267-1.214C289.798,223.586,290.294,222.969,290.938,222.917z M296.276,232.932
		c0.884-1.35,1.373-2.947,1.264-4.661c-0.176-2.76-1.852-5.055-4.197-6.258c4.148,0.558,7.261,2.968,7.261,2.968
		S300.151,229.342,296.276,232.932z M277,235.793c0,0,1.374-4.914,4.912-8.953c-0.24,0.824-0.371,1.689-0.311,2.586
		c0.264,4.042,3.679,7.087,7.804,7.13C283.237,237.996,277,235.793,277,235.793z"/>
	<path fill="#82368C" stroke="#82368C" d="M228.711,249.188c-0.16,0-0.312-0.024-0.474-0.011c-1.341,0.1-2.558,0.524-3.626,1.146
		c-0.436,0.183-0.871,0.384-1.29,0.615c-7.71,4.185-10.355,14.632-10.355,14.632s9.859,3.661,17.563-0.525
		c1.58-0.86,2.934-1.989,4.113-3.229c0.131-0.136,0.258-0.273,0.375-0.416c4.276-4.766,5.86-10.992,5.86-10.992
		S234.962,248.223,228.711,249.188z M231.146,254.033c-0.228,0.02-0.395-0.143-0.503-0.356c-0.084,0.568-0.505,1.023-1.062,1.063
		c-0.647,0.048-1.209-0.473-1.263-1.176c-0.051-0.692,0.429-1.302,1.078-1.353c0.556-0.04,1.036,0.355,1.204,0.906
		c0.077-0.229,0.216-0.419,0.444-0.438c0.325-0.023,0.58,0.263,0.609,0.637C231.678,253.693,231.468,254.009,231.146,254.033z
		 M227.942,252.985c-0.05,0.193-0.202,0.327-0.348,0.303c-0.126-0.025-0.199-0.215-0.156-0.413c0.049-0.191,0.19-0.338,0.333-0.309
		C227.911,252.595,227.972,252.786,227.942,252.985z M230.242,264.617c-6.847,3.725-15.574,0.49-15.574,0.49
		s1.776-6.986,6.731-11.257c-0.479,1.069-0.738,2.233-0.646,3.46c0.312,4.168,4.152,7.278,8.608,6.946
		c0.807-0.061,1.567-0.265,2.288-0.534C231.202,264.045,230.737,264.351,230.242,264.617z M233.198,250.396
		c3.562,0.246,6.255,1.236,6.255,1.236s-0.805,3.122-2.813,6.466c0.133-0.641,0.215-1.3,0.162-1.982
		C236.626,253.682,235.207,251.626,233.198,250.396z"/>
	<path fill="#82368C" stroke="#82368C" d="M269.881,260.535c2.016,6.68,13.134,15.783,13.134,15.783s-13.594-17.51-14.062-28.265
		C268.485,237.309,267.86,253.848,269.881,260.535z"/>
	<path fill="#82368C" stroke="#82368C" d="M286.656,286.611c4.009-3.095,9.207-17.229,5.18-9.706
		c-4.018,7.533-13.656,9.714-24.866,13.653C255.76,294.5,282.638,289.703,286.656,286.611z"/>
	<path fill="#82368C" stroke="#82368C" d="M258.94,305.291c-2.074,1.891,7.749,5.166,12.729,4.913
		c5.005-0.247,28.697-9.499,30.878-15.608c1.264-3.528-0.355-7.435-1.711-4.022c-2.319,5.819-22.649,13.934-31.635,15.838
		C260.206,308.31,260.196,304.139,258.94,305.291z"/>
	<path fill="#82368C" stroke="#82368C" d="M308.78,287.555c-0.083-0.012-0.116-0.031-0.178-0.042
		c0.055,0.12,0.103,0.272,0.142,0.452C308.902,287.749,308.973,287.6,308.78,287.555z"/>
	<path fill="#82368C" stroke="#82368C" d="M300.688,299.152c-7.072,6.731-25.805,12.257-26.266,12.271
		c-0.445,0.016,6.267,2.532,13.307-0.475c5.255-2.232,10.704-5.421,12.244-7.168C302.432,301.194,301.299,298.57,300.688,299.152z"
		/>
	<path fill="#82368C" stroke="#82368C" d="M240.234,262.505c-1.839,3.649-18.728,9.443-18.728,9.443s15.899-3.086,17.261-4.754
		C240.129,265.543,242.068,258.865,240.234,262.505z"/>
	<path fill="#82368C" stroke="#82368C" d="M296.228,241.368c4.709-2.06,9.907-11.667,2.756-3.253
		c-1.573,1.855-16.71,4.25-16.71,4.25S290.868,243.697,296.228,241.368z"/>
	<path fill="#82368C" stroke="#82368C" d="M208.86,260.744c-3.891,8.674,10.971-13.969,18.659-13.794
		c26.459,0.607,5.274-1.78-0.421-1.521C221.401,245.688,208.86,260.744,208.86,260.744z"/>
	<path fill="#82368C" stroke="#82368C" d="M305.076,218.974c-2.605-1.502-17.726-3.656-22.337-0.465
		c-1.276,0.888-2.514,2.533-3.638,4.435c3.376-3.552,8.954-5.957,18.242-4.763C301.905,219.261,307.051,220.111,305.076,218.974z"/>
	<path fill="#82368C" stroke="#82368C" d="M278.895,223.913c-3.237,3.398-4.36,7.896-4.827,11.117
		C274.068,235.03,276.109,228.626,278.895,223.913z"/>
	<path fill="#82368C" stroke="#82368C" d="M627.837,335.331c7.219,4.291,14.525,5.165,16.965,2.221
		c-1.54,1.745-5.718,1.491-10.659-0.418c2.38-0.752,4.412-2.46,5.369-4.971c0.566-1.492,0.638-3.056,0.381-4.543
		c4.202,3.613,6.437,7.37,5.289,9.521c0.014-0.025,0.037-0.036,0.051-0.054c1.995-3.545-2.566-10.09-10.167-14.614
		c-7.624-4.512-15.415-5.306-17.407-1.752c-0.014,0.02-0.009,0.053-0.014,0.062c1.227-2.066,5.444-1.946,10.512-0.075
		c-2.229,0.799-4.138,2.459-5.051,4.86c-0.594,1.541-0.655,3.155-0.349,4.695c-3.75-3.274-5.876-6.643-5.318-8.804
		C616.311,325.111,620.687,331.09,627.837,335.331z"/>
	<path fill="#82368C" stroke="#82368C" d="M587.129,338.214c-3.715,6.894-1.715,9.438-1.715,9.438s-0.626-5.749,13.021-25.801
		C612.087,301.784,590.864,331.311,587.129,338.214z"/>
	<path fill="#82368C" stroke="#82368C" d="M588.87,366.846c0.786-1.341-5.995,2.406-8.032,1.538
		c-4.761-2.01-10.437-5.598-14.753-8.546c-3.942-2.693-6.567-7.57-6.567-7.57s1.701,5.614,5.263,9.014
		c4.03,3.855,10.204,8.337,18.151,9.946C581.872,370.685,587.068,369.882,588.87,366.846z"/>
	<path fill="#82368C" stroke="#82368C" d="M564.163,386.178c8.988,4.656,26.701,4.879,23.691,3.625
		c-21.604-8.974-30.057-11.903-43.587-26.981C529.291,346.125,553.667,380.749,564.163,386.178z"/>
	<path fill="#82368C" stroke="#82368C" d="M543.754,367.425c0,0,0.796,9.481,5.886,15.474c7.909,9.314,3.34,7.571,18.576,10.813
		c3.076,0.666,12.23-2.091,12.23-2.091s-10.606-0.861-19.555-5.013C551.924,382.474,543.754,367.425,543.754,367.425z"/>
	<path fill="#82368C" stroke="#82368C" d="M567.073,263.738c-7.347-4.229-12.833-6.521-15.091-6.44
		c-2.245,0.077-9.187,0.372-9.187,0.372s4.178,3.478,9.134,4.418c4.956,0.951,9.359,1.947,10.816,3.213
		c1.452,1.259,13.416,9.807,18.448,11.616c5.046,1.797,12.011,8.189,4.099-0.225C583.713,274.997,574.415,267.967,567.073,263.738z"
		/>
	<path fill="#82368C" stroke="#82368C" d="M647.48,304.904c8.466,5.04,14.665,1.815,19.39,10.381c1.724,2.13,5.38,2.844,4.358-0.727
		c-1.014-3.597,0.583-2.767-4.54-6.52c-5.123-3.762-2.701-4.417-12.53-5.697c-9.816-1.274-27.855-8.075-28.84-7.682
		c-0.998,0.384-6.394-2.163-4.373,2.957C622.965,302.726,638.408,299.529,647.48,304.904z"/>
	<path fill="#82368C" stroke="#82368C" d="M638.287,320.307c3.124,2.795,13.124,14.077,13.124,14.077s-9.691-13.973-15.001-16.725
		c-5.332-2.73-16.55-3.37-16.55-3.37S635.184,317.488,638.287,320.307z"/>
	<path fill="#82368C" stroke="#82368C" d="M622.846,339.11c0.817,0.619,1.64,1.082,2.468,1.278
		C652.989,346.877,632.38,342.232,622.846,339.11z"/>
	<path fill="#82368C" stroke="#82368C" d="M614.621,327.896c-0.514-1.058-0.818-1.639-0.818-1.639S614.104,326.905,614.621,327.896z
		"/>
	<path fill="#82368C" stroke="#82368C" d="M618.701,337.291c0.151,0.396,1.831,1.062,4.145,1.819
		c-3.495-2.63-6.763-8.383-8.225-11.214C615.499,329.72,617.006,332.981,618.701,337.291z"/>
	<path fill="#82368C" stroke="#82368C" d="M577.224,292.678c0,0,0.504,6.115-0.108-2.892c-0.603-8.71-46.727-19.381-19.664-10.847
		C565.229,281.393,574.27,285.448,577.224,292.678z"/>
	<path fill="#82368C" stroke="#82368C" d="M566.78,305.899c0,0-3.063,0.194-6.652-0.125
		C564.754,307.206,566.78,305.899,566.78,305.899z"/>
	<path fill="#82368C" stroke="#82368C" d="M560.128,305.774c-1.919-0.593-4.273-1.644-7.132-3.474
		c-3.321-2.123-5.203-3.755-6.271-4.994c0.667,1.52,1.739,3.371,3.543,5.208C552.329,304.61,556.494,305.449,560.128,305.774z"/>
	<path fill="#82368C" stroke="#82368C" d="M546.724,297.307c-0.845-1.94-1.022-3.333-1.022-3.333S544.645,294.89,546.724,297.307z"
		/>
	<path fill="#82368C" stroke="#82368C" d="M635.642,387.81c4.038-5.312,6.698-10.017,8.083-13.82
		C645.105,370.175,640.565,378.208,635.642,387.81z"/>
	<path fill="#82368C" stroke="#82368C" d="M510.854,337.919c-0.029,0.146-0.054,0.597-0.066,1.258
		C511.113,337.571,511.144,336.919,510.854,337.919z"/>
	<path fill="#82368C" stroke="#82368C" d="M610.144,411.718c-4.242,7.454-7.667,14.198-6.071,13.508
		c3.624-1.564-4.095,11.948,18.106,10.761c-13.263-2.623-7.818-14.436-11.073-12.831c-2.14,1.04,4.18-12.419,9.968-23.71
		C618.2,403.244,614.583,407.341,610.144,411.718z"/>
	<path fill="#82368C" stroke="#82368C" d="M490.067,356.87c-2.807-2.939-2.807,3.635-1.263,13.854
		c0.264-1.591,0.915-2.081,2.092-1.025c11.74,10.689,18.413-9.159,19.757-14.781c0-0.535,0.02-0.913,0.061-1.034
		c0.272-0.829,0.25-0.278-0.061,1.034c-0.088,7.004,2.746,47.53,11.075,59.599c4.706,6.822,12.313,8.981,25.654,11.064
		c6.563,1.024,28.54-5.897,43.973-10.794c8.836-2.199,16.233-4.422,19.217-5.662c8.824-3.668,12.858-15.123,20.882-23.078
		c9.029-8.959,30.241-49.445,30.241-49.445s-29.904,40.407-35.983,48.216c-6.066,7.787-18.92,19.729-25.702,23.435
		c-6.778,3.703-45.62,11.561-46.662,11.318c-3.792-0.886-5.405-1.009-6.472-1.174c-0.786-0.253-1.522-0.534-2.218-0.832
		c-0.837-0.502-2.023-1.344-4.186-2.832c-1.502-1.044-2.771-1.992-3.936-2.917c-2.537-2.883-4.332-6.284-6.579-9.981
		c-1.798-2.956-3.654-6.928-5.466-11.439c-4.698-16.466-13.569-51.879-12.37-53.953c1.446-2.486-0.72-1.502-1.013,2.557
		c-0.331-0.476,0.406,4.863,1.659,12.641c-1.243-5.65-1.979-10.168-1.979-12.462C509.43,345.974,502.62,369.94,490.067,356.87z"/>
	<path fill="#82368C" stroke="#82368C" d="M728.442,193.465c1.279-3.368-16.901-30.971-15.509-42.399
		c1.319-23.986,12.094-29.795,12.219-30.673c0.082-0.042,0.082-0.063,0.015-0.079c0.032-0.253-0.06-0.107-0.119,0.023
		c-0.787,0.108-26.266,13.045-30.445,11.016c-4.173-2.034-9.396-6.946-9.396-6.946s-11.098-13.946-1.395-40.778
		c2.383,1.41,5.123,2.226,8.047,2.235c9.094,0.029,16.459-7.705,16.459-17.269c-0.01-9.559-7.386-17.344-16.477-17.375
		c-9.109-0.027-16.482,7.705-16.476,17.267c0.009,6.351,3.267,11.9,8.124,14.936c-2.337,4.929-11.398,26.208-29.213,25.958
		c-8.477-0.118-5.356,1.804-13.302-3.333c-7.952-5.135-5.163-25.998-5.488-26.834c0.039-0.057,0.032-0.098-0.034-0.067
		c0-0.013,0.024-0.112,0.063-0.265c1.335,0.658,2.812,1.043,4.366,1.046c5.938,0.02,10.738-5.229,10.729-11.727
		c0-6.498-4.803-11.779-10.739-11.8c-5.938-0.018-10.737,5.231-10.737,11.731c0.01,4.771,2.614,8.871,6.342,10.729
		c-0.041,0.127-0.077,0.238-0.117,0.373c-7.928,24.268-11.484,26.707-18.771,29.897c-7.285,3.194-44.617,11.661-44.055,11.661
		c8.995-0.034,60.69-4.998,87.432,6.188C692.99,140.819,729.607,189.701,728.442,193.465z M723.379,122.007l-18.854,18.449
		c-0.015-0.006-0.021-0.026-0.021-0.026L723.379,122.007z M682.157,68.779c-0.006-7.469,2.702-10.167,9.566-10.144
		c6.87,0.024,7.818,2.099,7.823,9.564c0.014,7.466-1.248,9.294-8.114,9.274C684.566,77.448,682.165,76.238,682.157,68.779z
		 M683.011,85.078l-12.739,30.717c-0.021-0.012-0.043-0.024-0.062-0.032L683.011,85.078z M633.187,68.199
		c-0.01-5.47,2.714-6.392,6.952-6.375c4.234,0.013,4.354-0.253,4.351,5.216c0.003,5.468-1.405,7.868-8.116,6.375
		C633.819,71.797,633.187,72.106,633.187,68.199z M628.357,104.701l6.414-23.174C634.771,81.526,628.361,104.701,628.357,104.701z"
		/>
	<path fill="#82368C" stroke="#82368C" d="M735.496,124.702c5.918,0.019,10.723-5.234,10.725-11.73
		c-0.005-6.496-4.812-11.778-10.748-11.797c-5.935-0.022-10.741,5.234-10.733,11.729
		C724.74,119.398,729.551,124.679,735.496,124.702z M735.769,107.608c3.965,0.015,4.063,1.029,4.057,5.798
		c0.013,4.764-1.249,5.519-5.211,5.505c-3.968-0.014-3.2-1.029-3.189-5.793C731.415,108.348,731.807,107.597,735.769,107.608z"/>
	<path fill="#82368C" stroke="#82368C" d="M540.593,176.635C540.775,176.284,540.786,176.214,540.593,176.635L540.593,176.635z"/>
	<path fill="#82368C" stroke="#82368C" d="M518.044,171.754c-0.492,1.588-8.804,11.831-6.771,14.785
		c2.033,2.954,12.297,10.569,11.482,15.91c-0.821,5.337-16.824,9.945-18.172,16.254c-0.331,3.75,5.038,18.874,3.547,23.337
		c-1.479,4.456-5.196,15.598-18.391,13.164c1.008,1.479,32.617,19.311,28.376,23.354c-4.244,4.037-7.595,3.67-13.382,7.2
		c-5.798,3.535-10.065,15.34-4.004,19.547c6.061,4.211,4.719,6.481,4.719,6.481s-1.648,14.404,2.997,15.926
		c4.657,1.516,2.104,7.909,6.809,1.976c4.704-5.937,1.004-14.979,3.63-16.421c2.61-1.431,1.651-10.362,1.118-17.468
		c-0.529-7.101,9.418-44.478,13.282-49.421c3.87-4.945,21.629-6.266,26.869-13.181c5.243-6.91,2.579-10.126,6.492-18.489
		c3.922-8.363,9.759-11.281,14.417-9.765c4.653,1.518,1.658,10.122,6.989,12.52c5.321,2.398,20.661-7.123,29.038-8.366
		c8.392-1.247,12.238-2.462,13.259-9.059c1.016-6.594,1.152-4.74-3.051-8.465c-4.213-3.723-3.494,1.809-10.322-8.547
		c-6.83-10.36,0.259-8.711-5.505-16.977c-5.759-8.265-7.062-9.41-17.215-11.758c-10.169-2.349-39.618,0.771-46.377,3.45
		c-6.76,2.674-7.533,20.739-12.472,19.551c-4.926-1.185-9.589-2.697-8.42-7.442c1.165-4.743,11.007-2.684,10.517-5.131
		c-0.492-2.447-24.153-7.205-25.798-4.906C510.056,162.103,518.535,170.167,518.044,171.754z"/>
	<path fill="#82368C" stroke="#82368C" d="M718.021,214.626c-4.678,0.192-10.585-5.733-11.805-16.198
		c-4.469,2.973-10.955,1.28-3.221-2.556c7.743-3.831,3.762-8.505,1.956-10.389c-1.809-1.88-7.003,7.662-10.719,6.698
		c-3.698-0.968,0.638-3.773-3.179-6.286c-3.813-2.51-11.044-6.008-11.315-9.712c-0.276-3.708,7.546-2.269,5.025-5.653
		c-2.521-3.38-4.327,2.959-9.065,0.363c-4.723-2.598-4.918-5.222-8.438-7.754c-3.516-2.534-8.215-0.629-8.01,2.147
		c0.207,2.78,0.465,8.35,2.091,7.917c1.639-0.433,6.473-2.655,6.473-2.655s-3.851-0.802-2.067-3.261
		c1.792-2.463,3.534,0.669,3.524,2.529c-0.018,1.866,3.482,4.089-3.806,5.869c-7.286,1.791-5.523,1.036-9.913-2.982
		c-4.39-4.023-27.05-9.635-32.483-9.385c-5.43,0.252-6.608,2.667-7.612,3.359c-1.009,0.7-0.014,6.057,0.572,7.721
		c0.568,1.667,4.415,8.519,6.84,10.669c2.429,2.147,7.636,9.054,10.399,9.47c2.75,0.416,0.441,8.039-3.089,11.407
		c-3.54,3.366-8.382,3.261-9.041,4.706c-0.652,1.45,0.142,1.852,2.1,3.88c1.972,2.027,6.539,34.915,10.527,35.548
		c3.984,0.633,14.849-7.936,12.618-5.287c-2.224,2.647-4.638,6.864-4.81,8.435c-0.196,1.57,35.965,40.167,35.965,40.167
		s-4.19,2.484-2.696,4.235c1.498,1.754,3.174-0.083,5.324,2.402c2.149,2.477,1.317,23.81-2.376,25.019
		c-3.703,1.203-8.463-5.896-11-5.396c-2.531,0.501,3.063,10.64,1.219,16.366c-1.851,5.732-8.108,6.974-9.412,11.879
		c-1.297,4.911-3.773,16.43-7.08,18.847c-3.301,2.419,21.17-23.769,32.174-27.904c11.006-4.127,4.321,26.957,10.831-15.753
		c6.521-42.705,45.692-29.631,34.896-33.795c-0.586-0.227-1.141-0.421-1.682-0.609c0.889-2.531,1.571-4.899,1.935-6.928
		c1.708-9.599-21.666-40.926-17.404-42.483c4.288-1.565,6.896-7.189,11.087-9.828c4.195-2.64-2.423,10.116-2.115,12.265
		c0.312,2.15,12.787-7.161,14.541-11.948c1.775-4.791,0.726-16.826,1.949-18.775c1.204-1.954,3.509-3.523,4.906-3.162
		c1.392,0.362-0.953,3.487-0.883,4.416c0.063,0.921,1.386,0.358,3.542-1.198c2.155-1.556,0.216-9.328-1.99-10.407
		c-2.189-1.08-7.786,7.253-11.347,10.159C728.389,213.697,722.692,214.431,718.021,214.626z M666.026,376.82
		c0.565,0.309,1.307-0.317,2.16-1.531 M723.991,287.585c-0.497-0.112-0.958-0.212-1.395-0.291c1.27-3.971,1.604-7.529,1.604-7.529
		S724.756,281.784,723.991,287.585z"/>
	<path fill="#82368C" stroke="#82368C" d="M854.767,64.18c17.203,0-12.283,193.705,8.544,207.175
		c20.828,13.5,145.408-242.66,173.11-185.415c27.714,57.257-147.321,216.129-150.394,232.699
		c-5.438,29.267,217.167,167.479,147.372,188.392c-67.271,20.179-154.221-165.832-163.991-155.641
		c-9.784,10.179,9.083,147.278-23.826,154.178C772.942,520.782,783.294,64.18,854.767,64.18z"/>
	<path fill="#82368C" stroke="#82368C" d="M1147.833,62.323c35.069-2.118,38.974,432.675,2.075,443.779
		C1117.671,515.786,1078.915,66.471,1147.833,62.323z"/>
	<path fill="#82368C" stroke="#82368C" d="M1283.709,69.532c37.211-50.897,107.64,286.719,142.843,286.719
		c35.214,0-44.314-269.709,11.899-283.812c56.195-14.085,45.061,425.888,20.544,433.909
		c-24.494,7.998-99.902-216.453-131.767-220.686c-31.869-4.205-20.529,231.596-50.576,227.255
		C1246.61,508.512,1246.497,120.468,1283.709,69.532z"/>
	<path fill="#82368C" stroke="#82368C" d="M1743.56,283.079c-24.979-96.053-144.777-221.179-172.645-217.801
		c-27.866,3.402-30.78,433.486,8.131,442.256C1617.935,516.295,1768.51,379.07,1743.56,283.079z M1680.159,321.209
		c-15.686,48.654-61.428,139.854-85.506,122.014c-15.07-11.103-1.221-268.201,22.859-268.666
		C1641.608,174.123,1692.823,281.842,1680.159,321.209z"/>
	<path fill="#82368C" stroke="#82368C" d="M1811.349,78.289c28.781-28.057,158.908-10.291,168.125,15.073
		c9.215,25.386-90.408-4.187-114.638,20.84c-24.219,25.033-27.084,134.38-5.882,141.733c21.213,7.396,65.568-15.843,89.405,18.977
		c23.848,34.828-70.891,24.687-85.487,38.921c-14.581,14.25-12.183,108.943-1.957,135.765
		c10.217,26.812,109.626,4.345,122.311,30.262c12.687,25.902-158.184,34.922-169.694,23.789
		C1802.035,492.48,1782.577,106.345,1811.349,78.289z"/>
	<path fill="#82368C" stroke="#82368C" d="M2079.629,257.604c5.082-19.033,104.934,9.646,132.582-15.983
		c13.009-12.825,13.83-123.637,0.872-145.51c-12.989-21.828-145.295-45.221-167.322-29.41c-22.028,15.817-22.187,442.48,9.08,442.48
		c31.26,0,7.849-168,15.188-179.26c7.34-11.314,141.615,187.6,178.421,168.716C2285.271,479.746,2074.548,276.606,2079.629,257.604z
		 M2073.301,122.275c6.129-25.902,81.295-14.593,90.201,24.809c20.011,88.425-32.392,71.782-73.601,73.793
		C2070.438,220.307,2066.953,149.052,2073.301,122.275z"/>
	<path fill="#82368C" stroke="#82368C" d="M2849.979,64.049c40.713-12.358-4.993,390.082,54.201,390.082
		c59.168,0,107.109,2.668,88.334,29.84c-18.793,27.224-134.686,24.082-154.584,16.918
		C2818.009,493.741,2809.302,76.394,2849.979,64.049z"/>
	<path fill="#82368C" stroke="#82368C" d="M2940.866,101.452c-0.048-43.682,121.733-49.805,192.192-17.655
		c70.448,32.124-57.829,18.476-69.951,53.041c-12.11,34.578,39.248,364.246-9.801,362.819
		c-49.071-1.431-21.545-333.39-21.573-366.745C3031.693,99.564,2940.894,145.141,2940.866,101.452z"/>
	<path fill="#82368C" stroke="#82368C" d="M1864.439,360.707c-3.127,0.51-6.257,9.05-4.333,10.563c1.924,1.511,7.948,0.999,10.847,0
		c2.893-1.006,3.85-1.263,4.817-4.03c0.971-2.768,0.482-1.752-1.925-5.024C1871.43,358.945,1867.576,360.209,1864.439,360.707z"/>
	<path fill="#82368C" stroke="#82368C" d="M3874.307,62.845c-197.915,51.978-57.062,428.651,2.954,445.486
		c60.004,16.84,111.458-19.729,44.802-49.109c-66.647-29.395-91.697-13.427-96.917-130.571
		c-5.217-117.167,11.405-202.109,68.695-187.703c57.272,14.469,9.468,63.04,40.355,63.04
		C3965.082,203.988,3957.359,62.845,3874.307,62.845z"/>
	<path fill="#82368C" stroke="#82368C" d="M4041.49,506.231c47.906-2.148-1.835-159.132,14.396-177.807
		c16.183-18.686,101.549-16.364,108.852,7.849c7.278,24.188-27.088,166.412,11.08,171.932c38.192,5.534,41.468-389.95,1.898-433.897
		c-39.578-43.942-7.316,187.602-23.511,195.271c-16.222,7.687-92.331,7.559-105.333-7.839
		c-12.958-15.4,26.391-218.769-14.137-198.436C3994.213,83.667,3993.562,508.396,4041.49,506.231z"/>
	<path fill="#82368C" stroke="#82368C" d="M2336.902,65c18.009,0-12.869,194.543,8.947,208.099
		c21.793,13.539,128.555-243.764,157.542-186.259c29.015,57.531-130.548,217.119-133.765,233.724
		c-5.674,29.403,227.353,168.219,154.283,189.263c-70.423,20.239-161.441-166.579-171.669-156.325
		c-10.241,10.185,9.494,147.919-24.948,154.817C2251.239,523.634,2262.086,65,2336.902,65z"/>
	<path fill="#82368C" stroke="#82368C" d="M3496.969,260.704c5.179-19.027,107.671,9.669,136.048-15.973
		c13.364-12.842,14.198-123.803,0.923-145.693c-13.354-21.848-149.154-45.267-171.757-29.43
		c-22.595,15.81-22.767,442.981,9.311,442.981c32.083,0,8.05-168.199,15.589-179.463c7.552-11.327,145.367,187.817,183.146,168.902
		C3708.024,483.123,3491.739,279.724,3496.969,260.704z M3490.46,125.25c6.298-25.92,83.426-14.631,92.593,24.809
		c20.527,88.568-33.246,71.9-75.561,73.905C3487.529,223.387,3483.94,152.052,3490.46,125.25z"/>
	<path fill="#82368C" stroke="#82368C" d="M579.203,484.846c-13.313,4.938-6.386,2.168-24.844,1.854
		c-18.459-0.31-64.115-30.164-70.946-42.061c-1.14-1.995-2.158-5.191-3.047-9.111c12.598,14.32,52.486,40.434,69.589,40.781
		c18.879,0.384,11.795,3.31,25.398-1.889c13.61-5.196,68.548-34.263,68.281-37.832c-0.263-3.569,19.671,1.959,33.838,20.667
		c14.154,18.689,26.723,70.32,21.232,63.949c-20.968-24.336,4.801-8.243-33.116-24.239"/>
	<path fill="#82368C" stroke="#82368C" d="M2583.554,62.521c38.254,0,13.202,348.424,47.616,348.424
		c34.381,0,73.293-44.597,77.281-58.953c4.047-14.358-9.08-240.654,22.782-278.939c31.876-38.272,46.993,434.632,22.751,435.657
		c-24.247,1.041-23.412-82.942-38.38-100.939s-116.252,110.731-133.853,89.603C2564.19,476.237,2545.3,62.521,2583.554,62.521z"/>
	<path fill="#82368C" stroke="#82368C" d="M3208.671,68.409c38.269,0,13.204,343.806,47.621,343.806
		c34.378,0,73.292-43.978,77.291-58.161c4.034-14.173-9.094-237.487,22.776-275.249c31.859-37.777,46.986,428.886,22.742,429.905
		c-24.247,1.023-23.412-81.857-38.38-99.616c-14.968-17.755-116.252,109.273-133.825,88.432
		C3189.307,476.662,3170.417,68.409,3208.671,68.409z"/>
	<path fill="#82368C" stroke="#82368C" d="M151.625,167.244c-3.572,0-6.471,2.599-6.471,5.803c0,3.206,2.899,5.802,6.471,5.802
		c3.577,0,6.474-2.596,6.474-5.802C158.099,169.843,155.201,167.244,151.625,167.244z M151.96,177.328
		c-2.28,0-4.128-1.66-4.128-3.704c0-2.043,1.848-3.7,4.128-3.7c2.282,0,4.13,1.657,4.13,3.7
		C156.09,175.668,154.242,177.328,151.96,177.328z"/>
	<path fill="#82368C" stroke="#82368C" d="M258.154,113.847c-3.574,0-6.471,2.599-6.471,5.804c0,3.204,2.897,5.803,6.471,5.803
		c3.575,0,6.472-2.599,6.472-5.803C264.626,116.445,261.729,113.847,258.154,113.847z M258.487,123.931
		c-2.28,0-4.129-1.658-4.129-3.704c0-2.044,1.849-3.703,4.129-3.703s4.13,1.659,4.13,3.703
		C262.618,122.273,260.768,123.931,258.487,123.931z"/>
</g>
</svg>
