<?xml version="1.0" encoding="utf-8"?>
<!-- Generator: Adobe Illustrator 16.0.4, SVG Export Plug-In . SVG Version: 6.00 Build 0)  -->
<!DOCTYPE svg PUBLIC "-//W3C//DTD SVG 1.1//EN" "http://www.w3.org/Graphics/SVG/1.1/DTD/svg11.dtd">
<svg version="1.1" id="Ebene_1" xmlns="http://www.w3.org/2000/svg" xmlns:xlink="http://www.w3.org/1999/xlink" x="0px" y="0px"
	 width="566.93px" height="566.93px" viewBox="0 0 566.93 566.93" enable-background="new 0 0 566.93 566.93" xml:space="preserve">
<text transform="matrix(0.9708 -0.24 0.24 0.9708 491.8271 319.3779)" fill="#BE0A26" font-family="'MyriadPro-Bold'" font-size="19.9008">©</text>
<g>
	<path fill="#BE0A26" d="M84.763,221.663c-0.021,0.05-0.041,0.098-0.046,0.138C84.701,221.897,84.724,221.833,84.763,221.663z"/>
	<path fill="#BE0A26" d="M559.582,262.485l-50.247,18.729c0.069-24.378-3.015-49.232-9.597-73.96
		C462.442,67.157,327.485-15.74,198.297,22.105C69.107,59.938-5.384,204.19,31.897,344.284c5.7,21.407,13.689,41.47,23.581,59.979
		c-10.063,6.558-24.129,15.744-47.861,31.616c0.324-0.13,0.71-0.253,1.142-0.378l-1.142,0.378l113.974,50.555l0.084-0.024
		l0.635,44.28c0,0,26.646-11.833,41.518-18.257c48.048,24.841,103.5,33.099,158.446,19.937l36.671,30.127
		c0,0,9.124-31.777,14.231-48.894c54.386-27.731,95.552-75.973,117.738-133.541c-2.143,8.941-8.671,21.011-8.671,21.011
		l17.944,10.762L470.1,425.084l48.332-11.002c0,0-15.026-21.3-24.516-34.979L559.582,262.485z M35.708,341.675
		C-0.912,204.078,72.342,62.385,199.332,25.189c126.984-37.19,259.623,44.194,296.245,181.792c6.754,25.375,9.76,50.887,9.393,75.86
		l-36.313,13.536c-2.547,0.707-4.935,1.317-7.111,1.807c-29.81,6.689-28.201-31.898-8.025-35.702
		c4.343,1.573,3.906,7.65-0.623,7.471c9.609,6.004,11.236-19.915-4.079-16.147c-6.044,1.488-24.562,15.361-51.69,38.248
		c-18.468,15.578-12.986,13.202-37.609,28.625c-7.301,2.964-15.843,5.658-20.497-0.262c-7.305-9.288,6.07-29.462,14.363-28.132
		c4.337,1.568,3.901,7.648-0.624,7.47c9.609,6.003,11.229-19.916-4.086-16.148c-6.037,1.488-24.397,21.926-53.15,42.686
		c-17.521,12.657-13.741,9.389-31.872,20.613c-8.24,3.438-21.741,9.289-27.142,2.422c-7.304-9.29,6.07-29.472,14.356-28.135
		c4.346,1.577,3.906,7.651-0.616,7.473c9.602,5.998,11.228-19.916-4.088-16.148c-6.038,1.483-24.395,21.92-53.144,42.686
		c-13.529,9.767-15.463,10.685-24.231,15.898l0.701-0.571c-7.946,3.231-21.477,9.146-27.264,1.779
		c-7.305-9.284,6.067-29.463,14.355-28.128c4.342,1.573,3.904,7.648-0.618,7.471c9.602,5.998,11.228-19.917-4.085-16.148
		c-6.043,1.485-30.835,22.939-59.584,43.695c-14.295,10.328-20.659,14.535-32.845,22.479
		C49.458,383.199,41.416,363.12,35.708,341.675z M128.226,513.076l-5.501-26.968l0.401-0.116c5.779,4.611,11.74,8.938,17.854,12.99
		L128.226,513.076z M348.421,545.016l-24.168-13.139c3.032-0.755,6.062-1.553,9.089-2.439c4.225-1.237,8.387-2.595,12.492-4.057
		L348.421,545.016z M331.96,523.46c-71.78,21.023-145.355,4.154-202.383-39.326l355.276-102.341
		C457.295,449.063,403.054,502.641,331.96,523.46z"/>
</g>
<path fill="#BE0A26" stroke="#BE0A26" d="M290.698,74.422l-91.641-6.58l-11.86,12.158l9.407,17.189l85.803,7.966l8.679-1.505
	L290.698,74.422z M282.131,97.414c-1.083,0-1.962-0.936-1.962-2.089c0-1.154,0.878-2.089,1.962-2.089s1.961,0.935,1.961,2.089
	C284.093,96.479,283.215,97.414,282.131,97.414z M282.131,88.168c-1.083,0-1.962-0.936-1.962-2.089c0-1.154,0.878-2.09,1.962-2.09
	s1.961,0.936,1.961,2.09C284.093,87.232,283.215,88.168,282.131,88.168z"/>
<polygon fill="#BE0A26" stroke="#BE0A26" points="284.905,109.994 284.904,100.319 279.599,100.319 279.356,109.994 "/>
<polygon fill="#BE0A26" stroke="#BE0A26" points="285.361,142.543 285.36,128.979 279.229,128.979 278.902,142.009 "/>
<polygon fill="#BE0A26" stroke="#BE0A26" points="278.071,162.678 274.344,311.432 284.977,309.547 284.969,161.87 "/>
<path fill="#BE0A26" stroke="#BE0A26" d="M226.052,139.535l-6.954,13.835l5.726,13.835l53.558-2.166l6.552-0.265l2.056-0.084
	v-28.928L226.052,139.535z M281.468,157.854c-1.083,0-1.961-0.936-1.961-2.09s0.878-2.09,1.961-2.09c1.084,0,1.962,0.936,1.962,2.09
	S282.552,157.854,281.468,157.854z M281.468,148.607c-1.083,0-1.961-0.936-1.961-2.089c0-1.155,0.878-2.09,1.961-2.09
	c1.084,0,1.962,0.935,1.962,2.09C283.43,147.672,282.552,148.607,281.468,148.607z"/>
<path fill="#BE0A26" stroke="#BE0A26" d="M345.064,95.513l-74.026,11.739v1.678v26.832l74.026-7.547l8.588-17.188L345.064,95.513z
	 M282.131,128.444c-1.083,0-1.962-0.936-1.962-2.089c0-1.154,0.878-2.09,1.962-2.09s1.961,0.936,1.961,2.09
	C284.093,127.508,283.215,128.444,282.131,128.444z M282.131,119.197c-1.083,0-1.962-0.935-1.962-2.089
	c0-1.154,0.878-2.089,1.962-2.089s1.961,0.936,1.961,2.089C284.093,118.262,283.215,119.197,282.131,119.197z"/>
<text transform="matrix(0.9635 -0.2679 0.2679 0.9635 243.1416 414.4131)" fill="#68BFB7" font-family="'SukhumvitSet-Bold'" font-size="48">Links</text>
</svg>
