<?xml version="1.0" encoding="utf-8"?>
<!-- Generator: Adobe Illustrator 16.0.4, SVG Export Plug-In . SVG Version: 6.00 Build 0)  -->
<!DOCTYPE svg PUBLIC "-//W3C//DTD SVG 1.1//EN" "http://www.w3.org/Graphics/SVG/1.1/DTD/svg11.dtd">
<svg version="1.1" id="Ebene_1" xmlns="http://www.w3.org/2000/svg" xmlns:xlink="http://www.w3.org/1999/xlink" x="0px" y="0px"
	 width="566.93px" height="566.93px" viewBox="0 0 566.93 566.93" enable-background="new 0 0 566.93 566.93" xml:space="preserve">
<g>
	<path fill="#BE0A26" d="M535.799,171.901c-22.741-47.741-53.905-80.382-69.604-72.904c-15.699,7.477-9.987,52.242,12.754,99.984
		c22.743,47.744,53.907,80.383,69.604,72.908C564.253,264.41,558.542,219.645,535.799,171.901z M551.48,263.242
		c-11.985,5.707-38.811-25.58-59.917-69.889c-21.105-44.307-28.501-84.854-16.517-90.562s38.81,25.582,59.914,69.889
		C556.067,216.988,563.463,257.533,551.48,263.242z"/>
	<path fill="#BE0A26" d="M548.751,264.904c0.384,9.442-5.019,4.466-9.279,6.495c-11.986,5.707-47.186-24.725-68.292-69.033
		c-21.106-44.307-23.861-87.822-11.877-93.53c2.675-1.274,10.178-9.568,14.104-7.423c0.017-0.328,0.894-13.73,0,0
		c-7.366-4.948-15.573,1.142-20.573,3.523c-15.697,7.477-9.987,52.242,12.755,99.984c22.743,47.741,53.907,80.382,69.604,72.907
		c6.564-3.129,18.57-6.429,17.642-14.038C552.776,263.75,548.807,264.947,548.751,264.904z"/>
	<path fill="#BE0A26" d="M513.136,267.802c0.335,8.255-5.336,7.961-9.046,9.736c-10.432,4.99-41.072-21.617-59.446-60.356
		c-18.371-38.739-20.77-76.784-10.338-81.774c2.328-1.114,12.671-16.57,16.089-14.694c1.293-6.489,0.776-12.005,0,0
		c-6.413-4.326-18.062,7.917-21.72,11.284c-11.146,10.258-8.693,45.676,11.102,87.417c19.797,41.741,46.923,70.278,60.588,63.743
		c5.715-2.735,15.88-2.767,15.356-14.706C515.671,268.416,513.186,267.838,513.136,267.802z"/>
	<path fill="#BE0A26" d="M196.533,358.743c10.165,24.901,34.19,41.204,44.533,41.792c-12.429-4.689-29.702-21.765-39.09-44.761
		c-9.15-22.415-8.108-43.84-1.8-53.452C191.926,306.089,186.035,333.029,196.533,358.743z"/>
	<path fill="#BE0A26" d="M210.633,324.104l-0.495-18.558l3.234-3.989c-0.462-0.859-0.744-1.329-0.802-1.318
		c-8.759,1.93-10.628,29.276,0.293,56.031c10.922,26.755,30.5,42.784,39.258,40.855c2.198-0.484,3.733-2.313,4.628-5.205
		c0,0-0.152-0.319-0.427-0.902l-5.11,0.387L210.633,324.104z"/>
	<path fill="#BE0A26" d="M211.964,297.527c-1.85-0.532-3.598-0.658-5.198-0.308c-0.325,0.073-0.643,0.17-0.957,0.282
		c1.983,0.017,3.97,0.477,5.742,1.803C211.563,299.244,211.766,298.371,211.964,297.527z"/>
	<path fill="#BE0A26" d="M253.011,397.568c-0.036-0.028-2.88,0.223-2.915,0.198c-0.517,5.273-3.84,1.956-6.952,2.644
		c-0.607,0.134-1.309,0.169-2.078,0.125c-10.343-0.588-34.369-16.891-44.533-41.792c-10.498-25.714-4.606-52.654,3.643-56.421
		c0.333-0.152,0.669-0.281,1.009-0.355c1.956-0.431,7.83-4.257,10.365-2.662c-1.772-1.326-3.758-1.786-5.742-1.803
		c-3.256-0.031-6.501,1.133-8.772,1.634c-11.472,2.525-19.2,34.74-7.432,63.564c11.767,28.828,38.577,43.358,50.049,40.833
		c2.37-0.524,5.661-0.934,8.384-1.734C250.824,400.979,253.017,399.752,253.011,397.568z"/>
	<path fill="#BE0A26" d="M211.965,297.527c0.643-2.758,0.33-1.421-0.001,0c-0.198,0.844-0.4,1.717-0.414,1.777
		C211.719,298.58,211.855,297.997,211.965,297.527z"/>
	<path fill="#BE0A26" d="M212.863,356.27c-14.451-25.024-5.052-51.949,3.707-53.878c0.058-0.015-4.851-3.812-5.02-3.087
		c-2.535-1.595-8.409,2.231-10.365,2.662c-0.34,0.074-0.676,0.203-1.009,0.355c-6.309,9.612-7.35,31.037,1.8,53.452
		c9.388,22.996,26.661,40.071,39.09,44.761c0.77,0.044,7.951,1.325,8.316,1.081c20.137-13.429-20.412-16.994-19.205-22.335
		C230.177,379.281,225.723,378.538,212.863,356.27z"/>
	<path fill="#BE0A26" d="M122.771,453.69c-0.022-0.018-1.874,0.146-1.896,0.128c-0.336,3.433-2.5,1.276-4.526,1.723
		c-0.394,0.087-0.852,0.106-1.353,0.08c-6.732-0.383-25.176-8.417-31.792-24.625c-6.833-16.74-0.192-36.85,5.177-39.303
		c0.218-0.098,0.436-0.183,0.657-0.229c1.273-0.282,5.097-2.771,6.747-1.734c-1.154-0.863-2.446-1.162-3.737-1.174
		c-2.12-0.02-4.232,0.739-5.71,1.063c-7.467,1.645-14.258,25.085-6.598,43.849c7.659,18.764,26.87,25.748,34.337,24.104
		c1.542-0.342,3.684-0.608,5.457-1.131C121.349,455.911,122.775,455.112,122.771,453.69z"/>
	<path fill="#BE0A26" d="M124.927,449.429c0.178,0.376,0.277,0.585,0.277,0.585c-0.582,1.882-1.581,3.07-3.012,3.387
		c-5.701,1.256-21.982-7.962-29.091-25.375c-7.107-17.414-2.353-36.43,3.348-37.686c0.038-0.009,0.222,0.299,0.522,0.858
		l1.357-1.673c-0.777-0.409-1.54-0.739-2.272-0.951c-0.071,0.304-0.16,0.688-0.27,1.156c-1.65-1.037-5.474,1.452-6.747,1.734
		c-0.221,0.046-0.439,0.131-0.657,0.229c-4.106,6.258-7.67,22.234-1.714,36.825c6.11,14.968,20.239,24.05,28.329,27.103
		c0.501,0.026,0.958,0.007,1.353-0.08c2.026-0.446,4.189,1.71,4.526-1.723c0.022,0.018,1.874-0.146,1.896-0.128
		c0.004,1.422-1.422,2.221-3.237,2.752c0.302-0.021,0.596-0.056,0.875-0.115c2.526-0.557,4.177-2.825,4.963-6.302l-0.27-0.612
		L124.927,449.429z"/>
	<path fill="#BE0A26" d="M50.125,492.736c-0.017-0.014-1.445,0.114-1.462,0.099c-0.26,2.647-1.928,0.983-3.491,1.329
		c-0.305,0.066-0.658,0.084-1.044,0.061c-5.192-0.293-21.638-4.21-26.741-16.714c-5.271-12.909,2.072-30.701,6.213-32.592
		c0.168-0.075,0.336-0.143,0.507-0.18c0.982-0.214,3.931-2.137,5.204-1.334c-0.89-0.667-1.887-0.898-2.883-0.907
		c-1.635-0.015-3.265,0.571-4.404,0.821c-5.76,1.266-15.495,21.205-9.586,35.677s25.222,18.003,30.981,16.735
		c1.19-0.264,2.842-0.469,4.209-0.872C49.028,494.45,50.128,493.833,50.125,492.736z"/>
	<path fill="#BE0A26" d="M51.788,489.448c0.138,0.293,0.213,0.453,0.213,0.453c-0.448,1.449-1.219,2.368-2.323,2.612
		c-4.396,0.969-18.891-6.022-24.374-19.457c-5.482-13.431,0.122-28.216,4.519-29.185c0.029-0.005,0.171,0.232,0.403,0.664
		l1.046-1.293c-0.6-0.313-1.188-0.568-1.753-0.73c-0.055,0.234-0.124,0.527-0.208,0.893c-1.273-0.803-4.222,1.12-5.204,1.334
		c-0.171,0.037-0.339,0.104-0.507,0.18c-3.167,4.826-7.343,20.35-2.749,31.604c4.713,11.546,17.038,15.351,23.277,17.702
		c0.386,0.023,0.739,0.006,1.044-0.061c1.563-0.346,3.231,1.318,3.491-1.329c0.017,0.016,1.445-0.112,1.462-0.099
		c0.003,1.097-1.097,1.714-2.497,2.123c0.233-0.018,0.46-0.043,0.675-0.09c1.949-0.429,3.222-2.178,3.829-4.859l-0.723-3.984
		L51.788,489.448z"/>
	<path fill="#BE0A26" d="M515.699,180.534c-14.262-34.842-35.42-59.158-47.259-54.314c-11.835,4.846,39.811,131.02,51.647,126.175
		C531.924,247.548,529.961,215.376,515.699,180.534z M516.447,243.134c-0.965,6.602-69.515-123.906-40.84-106.073
		c9.91,9.384,20.766,26.318,29.204,46.937C514.394,207.408,518.424,229.612,516.447,243.134z"/>
	<path fill="#BE0A26" d="M463.754,258.783l-20.29-32.166l-15.34-41.074l-4.454-23.753l1.979-21.28L204.938,300.354l-5.443,2.969
		l-3.464,14.846l3.464,25.239l15.835,27.712l14.846,11.875l13.361,9.405l14.351-4.951l224.67-109.365L463.754,258.783z
		 M229.687,377.55c-7.92-4.825-8.291-7.795-8.291-7.795c13.607,8.166,156.752-82.271,156.752-82.271S238.828,383.119,229.687,377.55
		z M204.446,330.043l-1.979-8.908c0,0,218.516-165.048,220.712-147.472c0.988,7.918,3.957,18.806,3.957,18.806L204.446,330.043z"/>
	<path fill="#BE0A26" d="M102.007,454.254l-2.474-0.989l-14.846-11.382l-6.434-14.353l-0.495-21.277l-48.448,37.152l-4.008,3.425
		l-3.959,6.931l-1.485,9.896l0.99,8.906l3.959,7.92l5.938,3.957l6.433,4.454l9.775,5.104c0,0,4.732,1.207,5.047-4.097
		c0.091-1.535-0.037-2.291-0.262-2.616L102.007,454.254z M29.251,474.353c-12.046,6.736,47.478-41.032,49.604-35.522
		c2.124,5.515,0-6.736,2.833,0.614C84.525,446.796,41.296,467.614,29.251,474.353z"/>
	<path fill="#BE0A26" d="M225.229,398.83l-13.857-9.899l-4.948-6.432l-9.402-12.372l-3.958-7.423l-4.949-15.343l-2.969-10.885
		l1.484-16.827l-92.541,69.777l-4.453,6.434l-1.979,12.37l0.494,8.415v8.411l4.454,9.403l3.464,3.959l4.454,3.957l5.444,6.931
		l7.423,3.462l8.803,0.632l106.501-53.582L225.229,398.83z M182.175,344.393c1.485,4.454,0-5.442,1.98,0.496
		s-28.208,22.762-36.621,28.207C139.122,378.538,180.69,339.938,182.175,344.393z M114.721,444.25
		c-0.141,0.068-0.217,0.106-0.217,0.106L114.721,444.25c4.492-2.207,78.277-38.655,84.035-55.565
		c-0.372,5.195,9.65,9.649,9.65,9.649L114.721,444.25z"/>
</g>
</svg>
