<?xml version="1.0" encoding="utf-8"?>
<!-- Generator: Adobe Illustrator 16.0.4, SVG Export Plug-In . SVG Version: 6.00 Build 0)  -->
<!DOCTYPE svg PUBLIC "-//W3C//DTD SVG 1.1//EN" "http://www.w3.org/Graphics/SVG/1.1/DTD/svg11.dtd">
<svg version="1.1" id="Ebene_1" xmlns="http://www.w3.org/2000/svg" xmlns:xlink="http://www.w3.org/1999/xlink" x="0px" y="0px"
	 width="566.93px" height="566.93px" viewBox="0 0 566.93 566.93" enable-background="new 0 0 566.93 566.93" xml:space="preserve">
<path fill="#C6C7C8" stroke="#C6C7C8" d="M300.666,275.663c-8.109-0.869,8.107-12.155,4.055-20.839
	c-4.055-8.682,32.643-96.98,37.52-115.782c2.703-10.42-1.619-18.789-5.762-18.24c-4.141,0.549-8.785,8.99-10.812,15.937
	c-2.027,6.946,3.24,1.476,4.367,6.107c1.125,4.631-23.875,85.092-33.107,104.772c-3.695,7.877-8.107,2.896-8.107,2.896
	l-50.227-97.827c0,0,3.345-13.144-0.034-17.485c-3.378-4.342-11.591-5.069-16.321,10.561c-4.729,15.628,11.625,7.212,11.625,7.212
	s29.28,62.516,45.497,97.248c-4.055,100.72-90.856-128.245-230.045-191.629c-29.73-15.628-34.46-18.233-29.73,16.498
	c4.73,34.731,36.487,59.911,26.352,114.612c-8.655,46.713,129.518,88.991,170.064,100.345
	c-25.269-6.873-86.193-23.671-98.442-29.146c-15.54-6.947-71.622,28.652-59.459,89.432c12.163,60.78,61.486,79.017,98.649,111.14
	c79.73,52.099,101.352-36.467,113.514-45.15c16.613-11.859,8.745,67.169,22.296,65.122c22.975-3.473,112.838-56.438,139.865-117.217
	c27.029-60.781,20.947-92.038,0-83.357c-14.01,5.812-63.689,15.891-95.055,21.929c41.455-8.942,117.377-30.451,122.758-68.815
	c7.434-52.964,76.354-90.3,82.434-177.128C548.641-29.971,308.773,276.532,300.666,275.663z M525.605,74.72
	c-5.986,83.06-71.406,104.86-78.723,155.525c-7.318,50.665-151.307,78.15-151.307,78.15s96.617,8.352,126.346-11.909
	c19.094-13.011,24.691,8.101-1.92,66.242c-26.607,58.142-99.305,84.041-121.924,87.363c-13.342,1.961-13.406-72.786-29.76-61.442
	c-11.976,8.306-30.945,103.596-109.444,53.762c-36.587-30.731-65.787-41.704-77.762-99.843
	c-11.974-58.143,29.821-64.246,45.121-57.603c15.301,6.647,129.703,13.3,129.703,13.3S50.973,240.332,60.952,188.004
	c9.979-52.327-20.304-61.82-24.96-95.043c-4.658-33.224-13.91-28.391,15.36-13.44c137.039,60.633,214.724,282.417,231.166,173.303
	c-15.966-33.225-45.875-95.996-47.845-102.395c-1.971-6.4-6.559,0.786-4.505-3.763c4.657-14.951,4.955,1.158,4.955,1.158
	l47.974,100.721c0,0,6.072,15.76,14.052,0.81c7.984-14.952,34.01-98.115,34.371-110.502c0.314-10.829,3.469-7.583,3.469-7.583
	s2.67-0.79,0.361,9.32c-7.793,34.094-37.461,105.958-33.471,114.264c3.994,8.308-12.717,23.186-5.721,28.195
	C315.979,297.229,531.592-8.338,525.605,74.72z"/>
</svg>
