<?xml version="1.0" encoding="utf-8"?>
<!-- Generator: Adobe Illustrator 16.0.4, SVG Export Plug-In . SVG Version: 6.00 Build 0)  -->
<!DOCTYPE svg PUBLIC "-//W3C//DTD SVG 1.1//EN" "http://www.w3.org/Graphics/SVG/1.1/DTD/svg11.dtd">
<svg version="1.1" id="Ebene_1" xmlns="http://www.w3.org/2000/svg" xmlns:xlink="http://www.w3.org/1999/xlink" x="0px" y="0px"
	 width="566.93px" height="566.93px" viewBox="0 0 566.93 566.93" enable-background="new 0 0 566.93 566.93" xml:space="preserve">
<g>
	<path fill="#D9DADB" stroke="#C6C7C8" d="M185.748,89.332c-2.01-14.703-6.303-33.036-6.303-33.036L33.709,62.897l8.318,415.46
		l3.896-29.296l0.97-362.371L185.748,89.332z"/>
	<polygon fill="#D9DADB" stroke="#C6C7C8" points="251.989,74.999 462.175,111.537 453.698,85.631 174.959,58.742 	"/>
	<polygon fill="#D9DADB" stroke="#C6C7C8" points="444.821,103.803 531.385,373.036 41.091,450.381 41.012,476.273 544.558,396.824 
		450.551,104.367 	"/>
</g>
<polygon fill="#D9DADB" stroke="#C6C7C8" points="50.268,100.493 229.349,390.424 430.239,113.278 224.917,368.154 "/>
<g>
	<path fill="#D9DADB" stroke="#C6C7C8" d="M279.062,77.16c-2.011-14.703-99.618-20.864-99.618-20.864L33.709,62.897l7.303,413.376
		l41.855-29.948L62.046,118.8L279.062,77.16z"/>
	<polygon fill="#D9DADB" stroke="#C6C7C8" points="251.989,74.999 462.175,111.537 453.698,85.631 179.445,56.296 	"/>
	<polygon fill="#D9DADB" stroke="#C6C7C8" points="430.204,99.604 501.252,385.179 41.091,450.381 41.012,476.273 544.558,396.824 
		462.175,111.537 	"/>
</g>
<polygon fill="#D9DADB" stroke="#C6C7C8" points="50.268,100.493 229.349,390.424 430.239,113.278 228.857,334.098 "/>
</svg>
