<?xml version="1.0" encoding="utf-8"?>
<!-- Generator: Adobe Illustrator 16.0.4, SVG Export Plug-In . SVG Version: 6.00 Build 0)  -->
<!DOCTYPE svg PUBLIC "-//W3C//DTD SVG 1.1//EN" "http://www.w3.org/Graphics/SVG/1.1/DTD/svg11.dtd">
<svg version="1.1" id="Ebene_1" xmlns="http://www.w3.org/2000/svg" xmlns:xlink="http://www.w3.org/1999/xlink" x="0px" y="0px"
	 width="566.93px" height="566.93px" viewBox="0 0 566.93 566.93" enable-background="new 0 0 566.93 566.93" xml:space="preserve">
<g>
	<g>
		<path fill="#C6C7C8" stroke="#C6C7C8" stroke-width="1.1208" d="M543.95,146.536c-0.95-4.199-22.381-38.729-32.965-46.26
			c-18.56-13.211-435.281-0.773-454.331,6.179c-19.047,6.952-41.787,51.949-43.522,62.991
			c-2.282,14.509,14.489,256.844,25.856,287.126c9.316,24.819,14.449,22.146,19.772,22.908c0.765,0.11,7.01-1.972,10.024-1.997
			c-1.323-0.017-17.285,3.872-26.457-20.461c-11.191-29.692-27.703-267.297-25.457-281.523c1.709-10.827,24.097-54.945,42.85-61.761
			c18.754-6.816,429.033-19.013,447.308-6.058c10.421,7.383,31.518,41.239,32.454,45.357c3.96,17.416,0.749,272.538-5.99,283.02
			c-6.738,10.481-29.949,22.706-38.934,26.449c-0.276,0.116,16.016-0.145,14.975,0.005c3.377-0.354,8.441-3.271,8.984-3.5
			c9.126-3.817,12.5-13.13,19.345-23.821C544.71,424.499,547.972,164.298,543.95,146.536z"/>
	</g>
	<path fill="#C6C7C8" stroke="#C6C7C8" d="M39.24,131.417c0,0,9.657-3.384,17.44-4.827c6.8-1.261,352.827-6.707,440.131-8.062
		c12.62-0.196,24.329,4.56,24.329,4.56l3.275,4.585c0,0-13.217-6.716-27.229-6.51c-90.597,1.334-429.467,6.455-440.448,8.609
		c-12.678,2.487-18.996,4.827-18.996,4.827L39.24,131.417z"/>
	<path fill="#C6C7C8" stroke="#C6C7C8" d="M34.561,138.764c0,0,13.945-5.251,22.182-6.931c7.06-1.44,344.326-4.912,440.529-5.874
		c16.03-0.161,30.233,6.613,30.233,6.613l1,2.496c0,0-13.601-7.758-31.231-7.569c-98.755,1.058-425.818,4.77-440.391,7.708
		c-17.174,3.462-25.083,8.329-25.083,8.329L34.561,138.764z"/>
	<path fill="#C6C7C8" stroke="#C6C7C8" stroke-width="1.2398" d="M211.667,124.835c0,0-0.999-7.592,6.987-32.899
		c7.987-25.308,92.842-16.451,102.827-8.858c9.983,7.592,6.986,39.227,6.986,39.227l-13.603-2.212c0,0,2.994-14.3-11.979-26.954
		c-14.976-12.655-64.392-17.588-67.387,8.984c-2.995,26.574-4.492,19.467-4.492,19.467L211.667,124.835z"/>
	<path fill="#C6C7C8" stroke="#C6C7C8" stroke-width="1.1012" d="M526.761,199.613c-0.886-3.485-20.886-32.15-30.765-38.402
		c-17.323-10.97-406.258-0.643-424.037,5.129c-17.778,5.771-39,43.124-40.622,52.291c-2.128,12.045,13.523,213.219,24.132,238.36
		c8.695,20.602,13.486,18.382,18.455,19.017c0.729,0.095,2.613,0.127,5.524,0.103c-1.185-0.015,4.236-0.571,3.812-0.625
		c-0.598-0.076-7.437,0.414-8.038,0.374c-1.321-0.085,1.444,0.609,0,0c-3.297-1.392-11.225-6.222-16.488-18.688
		c-10.51-24.905-26.014-224.196-23.906-236.129c1.605-9.08,22.63-46.083,40.241-51.801c17.612-5.717,402.904-15.947,420.066-5.08
		c9.786,6.191,29.599,34.589,30.477,38.042c3.717,14.607,0.705,228.59-5.622,237.382c-5.332,7.409-11.034,15.882-17.942,18.927
		c1.997,5.747-24.378,5.003-25.706,5.497c0.421-0.069,21.874-8.229,22.029-8.288c8.521-3.17,16.326-7.606,22.717-16.48
		C527.476,430.365,530.514,214.36,526.761,199.613z"/>
	<path fill="#C6C7C8" stroke="#C6C7C8" stroke-width="1.1012" d="M34.841,132.821c0,0,28.451-6.242,38.435-6.242
		c9.983,0,4.492,38.935,4.492,38.935l-46.43,53.117c0,0-12.969,4.285-14.466-8.693c-1.498-12.978,0-43.426,0-43.426L34.841,132.821z
		"/>
	<path fill="#C6C7C8" stroke="#C6C7C8" d="M498.556,140.059c31.943-33.444,34.938-3.494,34.938-3.494l5.99,11.979l1.997,58.901
		c0,0-14.975,2.995-13.977-1.997c0.997-4.992-2.995-8.985-2.995-8.985C504.045,162.52,491.068,184.483,498.556,140.059z"/>
	<path fill="#C6C7C8" stroke="#C6C7C8" stroke-width="1.3638" d="M147.838,104.12c0,0-5.358,16.473-6.125,19.966
		c-0.766,3.493,1.531,38.934,1.531,38.934l24.5,307.478h16.842L157.026,163.02c0,0-5.358-26.704-1.531-38.934
		c3.828-12.229,10.718-22.961,10.718-22.961l-19.905-0.998"/>
	<path fill="#C6C7C8" stroke="#C6C7C8" stroke-width="1.3433" d="M423.012,98.586c0,0,5.254,16.295,6.008,19.752
		c0.752,3.455-1.5,38.512-1.5,38.512L403.707,466l-17.461,0.999l27.756-310.148c0,0,5.255-26.416,1.5-38.512
		c-3.75-12.099-10.508-22.713-10.508-22.713l19.519-0.988"/>
	<polyline fill="#C6C7C8" stroke="#C6C7C8" stroke-width="0.9303" points="507.541,463.011 53.811,479.479 72.926,474.203 	"/>
</g>
</svg>
