<?xml version="1.0" encoding="utf-8"?>
<!-- Generator: Adobe Illustrator 16.0.4, SVG Export Plug-In . SVG Version: 6.00 Build 0)  -->
<!DOCTYPE svg PUBLIC "-//W3C//DTD SVG 1.1//EN" "http://www.w3.org/Graphics/SVG/1.1/DTD/svg11.dtd">
<svg version="1.1" id="Ebene_1" xmlns="http://www.w3.org/2000/svg" xmlns:xlink="http://www.w3.org/1999/xlink" x="0px" y="0px"
	 width="566.93px" height="566.93px" viewBox="0 0 566.93 566.93" enable-background="new 0 0 566.93 566.93" xml:space="preserve">
<text transform="matrix(0.9708 -0.24 0.24 0.9708 491.8271 319.3779)" fill="#BE0A26" stroke="#BE0A26" stroke-miterlimit="10" font-family="'MyriadPro-Bold'" font-size="19.9008">©</text>
<g>
	<path fill="#BE0A26" stroke="#BE0A26" stroke-miterlimit="10" d="M84.763,221.663c-0.021,0.05-0.041,0.098-0.046,0.138
		C84.701,221.897,84.724,221.833,84.763,221.663z"/>
	<path fill="#BE0A26" stroke="#BE0A26" stroke-miterlimit="10" d="M559.582,262.485l-50.247,18.729
		c0.069-24.378-3.015-49.232-9.597-73.96C462.442,67.157,327.485-15.74,198.297,22.105C69.107,59.938-5.384,204.19,31.897,344.284
		c5.7,21.407,13.689,41.47,23.581,59.979c-10.063,6.558-24.129,15.744-47.861,31.616c0.324-0.13,0.71-0.253,1.142-0.378
		l-1.142,0.378l113.974,50.555l0.084-0.024l0.635,44.28c0,0,26.646-11.833,41.518-18.257c48.048,24.841,103.5,33.099,158.446,19.937
		l36.671,30.127c0,0,9.124-31.777,14.231-48.894c54.386-27.731,95.552-75.973,117.738-133.541
		c-2.143,8.941-8.671,21.011-8.671,21.011l17.944,10.762L470.1,425.084l48.332-11.002c0,0-15.026-21.3-24.516-34.979
		L559.582,262.485z M35.708,341.675C-0.912,204.078,72.342,62.385,199.332,25.189c126.984-37.19,259.623,44.194,296.245,181.792
		c6.754,25.375,9.76,50.887,9.393,75.86l-36.313,13.536c-2.547,0.707-4.935,1.317-7.111,1.807
		c-29.81,6.689-28.201-31.898-8.025-35.702c4.343,1.573,3.906,7.65-0.623,7.471c9.609,6.004,11.236-19.915-4.079-16.147
		c-6.044,1.488-24.562,15.361-51.69,38.248c-18.468,15.578-12.986,13.202-37.609,28.625c-7.301,2.964-15.843,5.658-20.497-0.262
		c-7.305-9.288,6.07-29.462,14.363-28.132c4.337,1.568,3.901,7.648-0.624,7.47c9.609,6.003,11.229-19.916-4.086-16.148
		c-6.037,1.488-24.397,21.926-53.15,42.686c-17.521,12.657-13.741,9.389-31.872,20.613c-8.24,3.438-21.741,9.289-27.142,2.422
		c-7.304-9.29,6.07-29.472,14.356-28.135c4.346,1.577,3.906,7.651-0.616,7.473c9.602,5.998,11.228-19.916-4.088-16.148
		c-6.038,1.483-24.395,21.92-53.144,42.686c-13.529,9.767-15.463,10.685-24.231,15.898l0.701-0.571
		c-7.946,3.231-21.477,9.146-27.264,1.779c-7.305-9.284,6.067-29.463,14.355-28.128c4.342,1.573,3.904,7.648-0.618,7.471
		c9.602,5.998,11.228-19.917-4.085-16.148c-6.043,1.485-30.835,22.939-59.584,43.695c-14.295,10.328-20.659,14.535-32.845,22.479
		C49.458,383.199,41.416,363.12,35.708,341.675z M128.226,513.076l-5.501-26.968l0.401-0.116c5.779,4.611,11.74,8.938,17.854,12.99
		L128.226,513.076z M348.421,545.016l-24.168-13.139c3.032-0.755,6.062-1.553,9.089-2.439c4.225-1.237,8.387-2.595,12.492-4.057
		L348.421,545.016z M331.96,523.46c-71.78,21.023-145.355,4.154-202.383-39.326l355.276-102.341
		C457.295,449.063,403.054,502.641,331.96,523.46z"/>
</g>
<text transform="matrix(0.9635 -0.2679 0.2679 0.9635 78.1543 454.4199)" fill="#BE0A26" stroke="#BE0A26" stroke-miterlimit="10" font-family="'Rockwell-Bold'" font-size="30">Figurentheater PETRUSCHKA</text>
<g>
	<path fill="#BE0A26" stroke="#BE0A26" d="M403.875,209.363c1.102-0.039,1.746-0.072,1.746-0.072S404.953,209.292,403.875,209.363z"
		/>
	<path fill="#BE0A26" stroke="#BE0A26" d="M156.955,143.847c0.089,0.03,0.183,0.06,0.278,0.09c0.048-0.109,0.077-0.179,0.077-0.179
		S157.174,143.795,156.955,143.847z"/>
	<path fill="#BE0A26" stroke="#BE0A26" d="M146.292,128.293c-0.289-0.012-0.39-0.167-0.097-0.587
		C146.47,127.313,146.447,127.617,146.292,128.293c0.765,0.031,2.895-0.97,2.895-0.97s-1.709,0.762-3.632-2.484
		c-0.044-0.074-0.079-0.148-0.114-0.223c-0.406,1.941-0.627,3.859,0.118,4.198"/>
	<path fill="#BE0A26" stroke="#BE0A26" d="M147.227,135.587c1.734,2.428,2.682,2.631,4.206,2.355
		c-0.003-0.004,2.914-2.646,2.911-2.65C153.144,133.915,149.027,135.743,147.227,135.587z"/>
	<path fill="#BE0A26" stroke="#BE0A26" d="M147.55,141.328c-0.205-0.043,4.637-4.057,4.637-4.057
		c-6.216-0.37,1.733-1.361-5.445-0.065c-0.303,0.055-0.705,1.077-0.81,1.619C146.849,138.839,146.453,141.458,147.55,141.328z"/>
	<path fill="#BE0A26" stroke="#BE0A26" d="M368.823,205.266C369.56,204.533,367.705,204.431,368.823,205.266L368.823,205.266z"/>
	<path fill="#BE0A26" stroke="#BE0A26" d="M285.916,242.778c1.092-1.037,1.75-1.689,1.75-1.689S286.261,241.094,285.916,242.778z"/>
	<path fill="#BE0A26" stroke="#BE0A26" d="M163.888,238.144c-0.93,2.354-1.224,5.023-1.1,7.856c0.174-1.273,0.475-2.492,0.933-3.632
		C167.572,232.804,166.461,231.636,163.888,238.144z"/>
	<path fill="#BE0A26" stroke="#BE0A26" d="M159.232,172.041c1.906,0.889,1.153-2.282-0.048-6.194
		c-3.234-1.24-4.522,6.438-4.288,15.309C155.281,175.103,156.657,170.84,159.232,172.041z"/>
	<path fill="#BE0A26" stroke="#BE0A26" d="M311.307,225.223c1.646-1.816,2.668-2.977,2.668-2.977S312.567,223.482,311.307,225.223z"
		/>
	<path fill="#BE0A26" stroke="#BE0A26" d="M433.955,235.483c1.689-2.391,2.935-4.405,2.935-4.405s-5.272-0.065-8.971-0.55
		c-1.606,0.763-3.426,1.633-5.159,2.477C418.466,235.096,431.642,235.439,433.955,235.483z"/>
	<path fill="#BE0A26" stroke="#BE0A26" d="M217.793,72.479c0.241,1.576,2.073,1.11,4.271-0.087c-1.273-0.35-2.254-1.023-2.326-2.263
		c-0.217-3.726,15.311-7.066,15.311-7.066s-17.682,2.355-12.291,1.57c5.391-0.785,8.41-7.263,8.41-7.263s-7.347,6.447-10.886,7.235
		C218.92,66.916,217.429,70.098,217.793,72.479z"/>
	<path fill="#BE0A26" stroke="#BE0A26" d="M219.076,78.787c0.008,0.138,0.031,0.267,0.063,0.391
		c2.478-1.255,5.553-3.637,7.453-5.194C222.768,75.25,218.967,76.971,219.076,78.787z"/>
	<path fill="#BE0A26" stroke="#BE0A26" d="M228.111,72.706c0.16-0.14,0.252-0.221,0.252-0.221s-1.932,0.314-3.967,0.232
		c-0.717,0.344-1.495,0.599-2.329,0.718C218.936,73.884,223.663,73.281,228.111,72.706z"/>
	<path fill="#BE0A26" stroke="#BE0A26" d="M308.201,236.062c1.711,4.01,28.64-13.568,28.64-13.568s2.35,0.385,0.641,3.44
		c-1.708,3.054,20.732-12.419,27.146-14.523c1.303-0.428,1.937-0.783,2.213-1.052c-1.109-0.813,0.729-0.714,0,0
		c0.528,0.388,1.724,0.982,4.198,1.816c4.493,1.517,11.829,2.075,18.37,2.239c3.529-3.887,11.055-4.826,14.467-5.05
		c-5.514,0.195-22.728,0.548-30.815-2.23c-2.495-0.858-3.703-1.468-4.236-1.866c-0.277,0.276-0.917,0.641-2.233,1.08
		c-6.469,2.162-29.11,18.055-27.387,14.918s-0.646-3.533-0.646-3.533s-27.17,18.054-28.896,13.936
		c-0.166-0.395-0.259-0.801-0.293-1.212C308.243,232.164,307.422,234.233,308.201,236.062z"/>
	<path fill="#BE0A26" stroke="#BE0A26" d="M208.816,115.095c0,0-0.856,1.34-2.564,3.058c-1.709,1.717-0.002,1.914,2.778,4.204
		c2.781,2.291,0.211-0.188,0.642,5.733c0.429,5.921,7.478,9.749,12.182,14.333c4.704,4.584,5.342,8.792,7.694,14.523
		c2.353,5.73,11.754,5.735,13.465,15.67c1.712,9.936,6.409,19.495,6.197,24.078c-0.211,4.585,9.831,14.718,10.902,21.212
		s4.272,18.158,3.419,25.608c-0.853,7.45-3.42,13.378,0.213,16.816c2.964,2.801,16.149-8.996,20.922-13.452
		c0.235-1.126,0.965-1.48,1.399-1.594c-0.256-1.095-0.273-1.91-0.15-2.508c-4.815,4.578-18.12,16.694-21.109,13.816
		c-3.667-3.529-1.076-9.621-0.215-17.271c0.861-7.653-2.372-19.631-3.451-26.302s-11.213-17.079-10.999-21.787
		c0.214-4.708-4.527-14.526-6.254-24.731c-1.726-10.205-11.212-10.208-13.585-16.095c-2.373-5.886-3.017-10.209-7.763-14.917
		c-4.746-4.708-11.859-8.639-12.292-14.721c-0.433-6.082,2.158-3.536-0.647-5.889c-1.036-0.868-1.923-1.443-2.544-1.913
		c-0.591,0.539-1.167,1.126-1.662,1.745C203.262,117.385,208.816,115.095,208.816,115.095z"/>
	<path fill="#BE0A26" stroke="#BE0A26" d="M206.722,110.649c0.027-0.029,0.048-0.055,0.078-0.085
		c1.723-1.764,2.587-3.141,2.587-3.141s-5.604,2.353-3.45-0.393c2.155-2.745,5.823-4.907,5.823-4.907s-4.724,1.011-7.373,0.879
		c-0.525,2.055-0.782,4.751-1.981,6.36C201.23,110.937,203.994,110.953,206.722,110.649z"/>
	<path fill="#BE0A26" stroke="#BE0A26" d="M179.965,294.729c0.198,0.965,6.066,0.677,12.338,0.084
		c2.335-0.46,4.959-0.802,7.812-0.926c0.315-0.014,0.615-0.023,0.914-0.033c3.758-0.458,6.506-0.844,6.506-0.844
		s-3.535,0.267-12.053-1.281c-7.251,0.776-14.977,1.33-15.206,0.196c-0.434-2.15-5.389,0.187-10.135-0.197
		c-4.747-0.385-2.156,1.963-2.156,1.963l5.345,0.748C176.753,294.06,179.64,293.146,179.965,294.729z"/>
	<path fill="#BE0A26" stroke="#BE0A26" d="M166.712,99.043c0.856,4.584,0.212,3.061,2.35,2.676c2.14-0.385,3.208-9.746,3.208-9.746
		l-0.213,6.306l2.238-4.859c0.337-0.965,0.754-1.639,0.754-1.639l-0.754,1.639c-0.426,1.218-0.723,2.901,0.113,4.286
		c1.498,2.481,0.853,3.06,1.923,3.63c1.07,0.571,1.281,0.002,5.13-1.72c3.848-1.722,3.417-23.693,9.404-20.639
		c5.72,2.919,8.116-8.634,8.319-11.167c0.01-0.438,0.016-0.589,0.016-0.299c0,0.077-0.006,0.182-0.016,0.299
		c-0.049,2.167-0.198,11.549-0.198,11.549l9.242-13.405c0.19-0.335,0.376-0.545,0.376-0.545l-0.376,0.545
		c-0.511,0.907-1.037,2.736,2.086,3.85c2.643,0.944,6.59-2.418,9.221-5.124c-0.59-0.033-0.986-0.339-1.09-1.027
		c-0.649-4.315,4.528-11.188,4.528-11.188s-7.761,10.008-12.076,8.44c-3.151-1.145-2.62-3.024-2.104-3.955l-9.325,13.77
		c0,0,0.15-9.645,0.199-11.866c-0.202,2.596-2.619,14.473-8.394,11.473c-6.04-3.138-5.605,19.429-9.489,21.198
		c-3.882,1.769-4.095,2.353-5.175,1.767c-1.08-0.586-0.43-1.181-1.941-3.729c-0.844-1.422-0.543-3.151-0.114-4.402l-2.257,4.991
		l0.215-6.478c0,0-1.076,9.615-3.234,10.01c-0.861,0.158-1.275,0.5-1.517,0.559C166.917,95.253,166.248,96.558,166.712,99.043z"/>
	<path fill="#BE0A26" stroke="#BE0A26" d="M149.402,115.618c0,0,4.271-3.199,6.836-7.976c1.231-2.291,1.33-7.306,1.101-11.907
		c-0.183,1.66-0.497,3.078-1,4.032c-2.589,4.907-6.899,9.616-6.899,9.616s-2.007,1.884-2.159,4.598
		c-0.059,1.046,0.018-1.036,0.483-0.639C148.892,111.985,149.402,115.618,149.402,115.618z"/>
	<path fill="#BE0A26" stroke="#BE0A26" d="M421.546,215.724c0.576-0.221,0.896-0.349,0.896-0.349S422.143,214.205,421.546,215.724z"
		/>
	<path fill="#BE0A26" stroke="#BE0A26" d="M163.506,65.6c0,0,6.624-15.477,5.555-9.555c-1.065,5.921-0.64,5.733,1.07,4.395
		c1.611-1.26,6.066-6.59,8.9-8.959c0.131-1.028,0.187-1.258,0.503-0.404c-0.16,0.122-0.329,0.259-0.503,0.404
		c-0.112,0.872-0.282,2.325-0.708,4.178c1.503-0.107,3.17,0.064,4.971,0.338c5.174,0.788-3.234-3.926-3.234-3.926l2.372-4.711
		c0,0-5.39,5.101-4.098,0.197c0.652-2.475,0.866-4.399,1.001-5.473c-2.858,2.433-7.354,7.908-8.98,9.203
		c-1.725,1.374-2.155,1.568-1.078-4.515c1.076-6.083-5.607,9.814-5.607,9.814s-3.233-6.873-3.235-1.374
		c-0.001,5.499-3.881,22.572-3.881,22.572s0.313,2.259,0.589,5.367c1.105-5.067,3.155-14.98,3.157-18.889
		C160.302,58.91,163.506,65.6,163.506,65.6z"/>
	<path fill="#BE0A26" stroke="#BE0A26" d="M165.856,90.634c0.415,0.674,0.83,1.076,1.228,1.3c-0.052-0.298-0.11-0.626-0.179-0.999
		c-0.864-4.708,2.158-5.302,3.019-7.458c0.778-1.948-1.08,1.862-3.196-0.275C165.454,85.784,164.573,88.552,165.856,90.634z"/>
	<path fill="#BE0A26" stroke="#BE0A26" d="M419.095,220.54c0.592-1.479,0.888-0.339,0.888-0.339S419.666,220.325,419.095,220.54
		c-0.279,0.699-0.624,1.98-1.035,4.248c-0.613,3.373,2.722,4.307,6.372,4.364c0.096-0.19,0.354-0.397,0.814-0.626
		c4.743-2.351,10.135-4.907,10.135-4.907s-16.173,3.725-14.879-3.533c0.414-2.329,0.762-3.644,1.044-4.362
		c-5.456,2.093-34.038,12.627-34.038,3.577c0-0.116,0.014-0.224,0.019-0.337c-1.32,1.296-2.169,2.947-2.169,5.058
		C385.357,232.834,413.688,222.578,419.095,220.54z"/>
	<path fill="#BE0A26" stroke="#BE0A26" d="M249.427,298.881c0.824,0.219,1.365,0.109,1.365,0.109s-0.425-2.148-0.545-4.056
		C249.126,294.431,249.186,296.818,249.427,298.881z"/>
	<path fill="#BE0A26" stroke="#BE0A26" d="M205.291,316.459c0.44,0.088,0.791-0.24,1.071-0.794
		C205.327,316.081,204.795,316.36,205.291,316.459z"/>
	<path fill="#BE0A26" stroke="#BE0A26" d="M214.705,311.677c0.747-0.671,1.092-1.374,0.722-2.087
		c-0.1-0.193-0.156-0.411-0.181-0.646C214.702,309.981,214.471,310.955,214.705,311.677z"/>
	<path fill="#BE0A26" stroke="#BE0A26" d="M285.119,250.396c1.339,4.039,17.358-12.667,24.241-20.098
		c-0.085-1.76,0.876-3.599,1.946-5.075c-6.652,7.338-23.551,25.411-24.935,21.166c-0.102-0.312-0.185-0.602-0.256-0.88
		c-0.288,0.278-0.787,0.754-1.449,1.371C284.509,247.643,284.575,248.758,285.119,250.396z"/>
	<path fill="#BE0A26" stroke="#BE0A26" d="M206.362,315.665c0.037-0.014,0.078-0.031,0.116-0.045
		c0.021-0.118,0.042-0.237,0.061-0.356C206.483,315.408,206.423,315.541,206.362,315.665z"/>
	<path fill="#BE0A26" stroke="#BE0A26" d="M241.193,293.526c-0.328,0.541-0.581,1.704-0.913,3
		C240.667,295.571,240.95,294.503,241.193,293.526z"/>
	<path fill="#BE0A26" stroke="#BE0A26" d="M146.039,120.747c0.112-0.185,0.229-0.367,0.354-0.545"/>
	<path fill="#BE0A26" stroke="#BE0A26" d="M253.06,288.996c0.434,2.417,2.348,4.836,4.13,6.635c2.349,0.472,4.383,0.218,4.383,0.218
		s-3.107-2.285-5.358-5.293C254.355,290.24,253.141,289.737,253.06,288.996z"/>
	<path fill="#BE0A26" stroke="#BE0A26" d="M430.205,246.387c0,0-0.789,0.515-1.971,1.195
		C430.094,249.672,430.205,246.387,430.205,246.387z"/>
	<path fill="#BE0A26" stroke="#BE0A26" d="M423.046,247.058c0.487,1.013,0.922,1.835,1.312,2.511
		c1.424-0.627,2.809-1.375,3.876-1.987c-0.398-0.449-0.879-1.15-1.454-2.177C425.22,246.95,423.815,247.819,423.046,247.058z"/>
	<path fill="#BE0A26" stroke="#BE0A26" d="M384.165,264.224c0.805-0.276,1.462-0.508,1.927-0.674c0.055-1.02,0.161-2.44,0.339-4.404
		c0.016-0.177,0.039-0.353,0.067-0.524c-1.246,1.079-2.049,2.453-2.209,4.194C384.244,263.322,384.201,263.79,384.165,264.224z"/>
	<path fill="#BE0A26" stroke="#BE0A26" d="M279.688,285.054c-0.135-0.057-0.246-0.122-0.343-0.191
		c-0.834,0.728-1.383,1.402-1.543,1.961C280.125,286.299,281.154,285.668,279.688,285.054z"/>
	<path fill="#BE0A26" stroke="#BE0A26" d="M198.487,311.938c-1.175,0.528-2.439,1.069-3.674,1.551
		c-0.209,0.524-0.261,1.056-0.091,1.583C195.484,313.929,196.953,312.844,198.487,311.938z"/>
	<path fill="#BE0A26" stroke="#BE0A26" d="M386.861,263.267c0,0-0.277,0.105-0.77,0.283
		C385.808,268.743,386.861,263.267,386.861,263.267z"/>
	<path fill="#BE0A26" stroke="#BE0A26" d="M175.689,302.947c0.322-0.815-0.16-1.198-1.062-1.315
		c-1.937,0.567-4.994-0.91-5.996,5.014c-0.096,0.567-0.075,1.002,0.023,1.346C170.194,302.069,174.473,306.034,175.689,302.947z"/>
	<path fill="#BE0A26" stroke="#BE0A26" d="M174.554,85.16l0.761-1.683C175.315,83.477,174.895,84.169,174.554,85.16z"/>
	<path fill="#BE0A26" stroke="#BE0A26" d="M180.798,302.381c0.577-0.585,1.01-1.107,1.24-1.517
		C180.93,301.537,180.47,302.104,180.798,302.381z"/>
	<path fill="#BE0A26" stroke="#BE0A26" d="M211.597,306.961c0.961,0.23,1.208-1.002,1.164-2.543
		c-0.154,0.096-0.341,0.124-0.569,0.068c-2.374-0.584-24.582,4.705-23.937,7.655c0.091,0.415,0.483,0.606,1.074,0.638
		C194.193,309.947,209.646,306.488,211.597,306.961z"/>
	<path fill="#BE0A26" stroke="#BE0A26" d="M208.792,56.95l0.379-0.56C209.171,56.39,208.983,56.606,208.792,56.95z"/>
	<path fill="#BE0A26" stroke="#BE0A26" d="M162.867,298.934c2.697,0.339,6,0.408,8.216,0.409c0.852-0.164,1.693-0.291,2.438-0.343
		l-0.182-1.787l-4.173-0.573c-1.945-0.043-4.199-0.149-6.14-0.397c-4.53-0.58-9.701,4.506-9.272,8.439
		c0.028,0.253,0.062,0.479,0.101,0.685C154.792,301.953,159.052,298.454,162.867,298.934z"/>
	<path fill="#BE0A26" stroke="#BE0A26" d="M199.667,58.854c0.009-0.119,0.016-0.226,0.016-0.304
		C199.684,58.252,199.677,58.405,199.667,58.854z"/>
	<path fill="#BE0A26" stroke="#BE0A26" d="M179.335,42.085c0.175-0.149,0.346-0.291,0.509-0.416
		C179.524,40.793,179.468,41.029,179.335,42.085z"/>
	<path fill="#BE0A26" stroke="#BE0A26" d="M204.758,318.617c0.436,0.085,0.783-0.233,1.061-0.773
		C204.794,318.248,204.267,318.52,204.758,318.617z"/>
	<path fill="#BE0A26" stroke="#BE0A26" d="M427.677,250.394c0,0-0.782,0.502-1.952,1.162
		C427.567,253.592,427.677,250.394,427.677,250.394z"/>
	<path fill="#BE0A26" stroke="#BE0A26" d="M384.716,266.829c0,0-0.274,0.101-0.762,0.273
		C383.673,272.16,384.716,266.829,384.716,266.829z"/>
	<path fill="#BE0A26" stroke="#BE0A26" d="M401.582,214.345c1.092-0.038,1.73-0.069,1.73-0.069S402.648,214.277,401.582,214.345z"/>
	<path fill="#BE0A26" stroke="#BE0A26" d="M427.919,230.527c2.755-1.308,4.887-2.301,4.887-2.301s-4.377,0.988-8.374,0.925
		C424.1,229.806,425.732,230.24,427.919,230.527z"/>
	<path fill="#BE0A26" stroke="#BE0A26" d="M230.403,66.365c0,0-4.676,4.031-8.34,6.027c0.721,0.198,1.534,0.292,2.333,0.325
		C228.272,70.854,230.403,66.365,230.403,66.365z"/>
	<path fill="#BE0A26" stroke="#BE0A26" d="M222.281,61.587c0,0-1.123,1.421-2.748,3.093c0.223,0.013,0.472-0.012,0.747-0.074
		C221.319,62.843,222.281,61.587,222.281,61.587z"/>
	<path fill="#BE0A26" stroke="#BE0A26" d="M433.955,235.483c-2.813,3.982-6.854,9.006-8.409,7.505
		c0.454,0.958,0.864,1.755,1.234,2.417c3.391-3.359,7.521-9.916,7.521-9.916S434.175,235.487,433.955,235.483z"/>
	<path fill="#BE0A26" stroke="#BE0A26" d="M234.25,71.907c0,0-3.001,0.393-6.139,0.799c-0.293,0.253-0.828,0.709-1.52,1.277
		C230.409,72.719,234.25,71.907,234.25,71.907z"/>
	<path fill="#BE0A26" stroke="#BE0A26" d="M309.832,229.788c-0.149,0.163-0.311,0.336-0.472,0.51
		c0.003,0.052,0.003,0.105,0.008,0.157C309.519,230.226,309.674,230.002,309.832,229.788z"/>
	<path fill="#BE0A26" stroke="#BE0A26" d="M401.582,214.345c-2.402,0.083-7.043,0.197-12.174,0.068
		c-1.098,1.209-1.804,2.704-1.882,4.551C391.132,215.429,398.29,214.558,401.582,214.345z"/>
	<path fill="#BE0A26" stroke="#BE0A26" d="M207.059,112.969c1.964-1.788,4.109-3.033,4.109-3.033s-2.211,0.464-4.446,0.713
		C205.736,111.699,206.026,112.189,207.059,112.969z"/>
	<path fill="#BE0A26" stroke="#BE0A26" d="M194.725,315.085c-0.001-0.005-0.001-0.01-0.003-0.014
		c-0.483,0.723-0.685,1.468-0.438,2.206c1.281,3.829,12.61-5.732,12.61-5.732s-0.056,1.892-0.356,3.719
		c0.797-2.067,0.91-6.066,0.91-6.066S196.018,319.016,194.725,315.085z"/>
	<path fill="#BE0A26" stroke="#BE0A26" d="M212.624,296.635c0,0,0.812-3.175-11.594-2.781c-2.614,0.32-5.715,0.675-8.726,0.959
		c-8.604,1.692-13.232,5.009-10.518,5.159c0.512,0.027,0.546,0.367,0.252,0.893c2.668-1.62,9.124-3.861,17.59-4.224
		c13.25-0.569,12.396,2.676,12.396,2.676s0.673,2.872,0.736,5.102C214.21,303.526,212.624,296.635,212.624,296.635z"/>
	<path fill="#BE0A26" stroke="#BE0A26" d="M198.964,309.599c-3.455,1.581-7.678,3.284-9.635,3.181
		c-1.003,0.585-1.566,1.142-1.457,1.633c0.287,1.288,3.491,0.422,6.94-0.924C195.379,312.07,197.125,310.706,198.964,309.599z"/>
	<path fill="#BE0A26" stroke="#BE0A26" d="M168.655,307.991c-0.086,0.328-0.165,0.679-0.232,1.071
		c-1.285,7.461,16.458-6.312,13.038-6.498c-0.328-0.019-0.546-0.081-0.664-0.184C177.492,305.736,169.533,311.056,168.655,307.991z"
		/>
	<path fill="#BE0A26" stroke="#BE0A26" d="M189.98,287.605c-12.936-2.953-16.822-4.701-19.839-14.523
		c-2.294-7.47-6.956-18.099-7.354-27.083c-1.288,9.409,4.498,21.96,7.13,30.384c2.99,9.565,6.842,11.266,19.664,14.142
		c2.188,0.489,4.147,0.885,5.9,1.203c6.496-0.696,12.612-1.571,12.612-1.571S202.917,290.559,189.98,287.605z"/>
	<path fill="#BE0A26" stroke="#BE0A26" d="M173.808,296.635l-0.216-2.158l-0.261-0.038c-1.104,0.123-2.264,0.19-3.412,0.1
		c-4.704-0.374-2.136,1.911-2.136,1.911l1.382,0.19C171.762,296.695,173.808,296.635,173.808,296.635z"/>
	<path fill="#BE0A26" stroke="#BE0A26" d="M175.964,300.364c0.463-1.195-0.727-1.483-2.443-1.364l0.031,0.316
		c0,0-0.996,0.028-2.469,0.026c-2.692,0.522-5.47,1.413-5.47,1.413s-6.04,0.206-7.332,1.57c-1.292,1.366-2.156,4.319-2.156,4.319
		s-1.702,1.726-2.272-1.279c-0.167,0.604-0.242,1.209-0.177,1.784c0.425,3.83,2.351,1.912,2.351,1.912s0.856-2.875,2.138-4.205
		c1.28-1.33,7.266-1.529,7.266-1.529s6.492-2.047,9.197-1.696C175.196,301.465,175.669,301.123,175.964,300.364z"/>
	<path fill="#BE0A26" stroke="#BE0A26" d="M205.818,317.844c2.994-1.181,10.259-3.499,8.985-5.916
		c-0.042-0.078-0.07-0.163-0.099-0.251c-1.82,1.638-6.038,3.072-8.227,3.943C206.322,316.47,206.108,317.279,205.818,317.844z"/>
	<path fill="#BE0A26" stroke="#BE0A26" d="M360.554,265.231c1.939-8.642-20.271,19.043-21.134,10.599
		c-0.863-8.446-35.581,9.424-36.66,0.98c-1.051-8.24-27.355,5.212-23.416,8.052c5.171-4.515,21.207-11.104,22.019-4.848
		c1.067,8.222,35.478-9.178,36.333-0.957c0.854,8.224,22.87-18.729,20.945-10.317c-1.734,7.583,20.847-0.06,25.312-1.639
		c0.04-0.729,0.109-1.672,0.211-2.878C377.153,266.622,358.983,272.218,360.554,265.231z"/>
	<path fill="#BE0A26" stroke="#BE0A26" d="M417.635,249.671c0.37,3.029-0.152,2.409-0.152,2.409s-29.087-4.757-30.984,6.542
		c7.084-6.135,28.569-2.687,28.569-2.687s0.516,0.605,0.15-2.345c1.035,2.853,7.267-0.204,10.507-2.034
		c-0.378-0.416-0.83-1.06-1.366-1.987C421.419,250.866,418.339,251.644,417.635,249.671z"/>
	<path fill="#BE0A26" stroke="#BE0A26" d="M254.025,286.035c0.275,1.56,1.139,3.118,2.189,4.521
		c7.749,1.312,26.762-0.668,22.28-2.515c-0.646-0.267-0.844-0.691-0.693-1.218C271.24,288.302,254.343,288.938,254.025,286.035z"/>
	<path fill="#BE0A26" stroke="#BE0A26" d="M163.025,219.694c-3.232-3.936-5.608-17.069-7.332-29.051
		c-0.443-3.083-0.714-6.358-0.797-9.487c-0.286,4.5-0.025,9.989,0.704,14.964c1.707,11.665,4.062,24.452,7.267,28.285
		C165.787,227.899,166.257,223.63,163.025,219.694z"/>
	<path fill="#BE0A26" stroke="#BE0A26" d="M227.071,302.523c-3.046-6.106-12.216,2.604-11.826,6.42
		c2.068-3.944,8.623-8.771,11.098-3.895c3.204,6.312,9.62-0.961,12.183-4.205c0.864-1.093,1.363-2.796,1.753-4.317
		c-0.255,0.629-0.554,1.209-0.917,1.678C236.776,301.536,230.304,309.006,227.071,302.523z"/>
	<path fill="#BE0A26" stroke="#BE0A26" d="M244.107,292.905c-1.808-4.436-2.182-2.328-2.914,0.621
		c0.431-0.711,0.991-0.356,2.036,2.158c2.776,6.693,6.625,5.925,6.625,5.925s-0.257-1.283-0.427-2.729
		C248.043,298.512,245.863,297.215,244.107,292.905z"/>
	<path fill="#BE0A26" stroke="#BE0A26" d="M252.085,292.905c-1.721-1.987-1.976-0.137-1.839,2.029
		c0.239,0.109,0.531,0.344,0.889,0.75c3.205,3.635,9.405,2.866,9.405,2.866s-1.614-1.166-3.352-2.92
		C255.421,295.276,253.474,294.511,252.085,292.905z"/>
	<path fill="#BE0A26" stroke="#BE0A26" d="M171.865,60.512c-2.154,5.297-0.649,5.303-1.941,8.44
		c-1.292,3.138-6.255,9.424-3.882,13.347c0.229,0.379,0.459,0.674,0.686,0.903c1.061-2.151,2.393-4.174,2.976-5.562
		c1.281-3.055-0.211-3.061,1.924-8.217s6.2-5.163,11.329-4.396c5.127,0.769-3.206-3.821-3.206-3.821l2.35-4.586
		c0,0-5.342,4.966-4.061,0.191c0.108-0.4,0.199-0.78,0.285-1.15C175.506,55.861,173.27,57.059,171.865,60.512z"/>
	<path fill="#BE0A26" stroke="#BE0A26" d="M157.419,136.862c0,0-2.053,0.734-3.562,0.344c-0.264-0.068-1.327,0.003-1.67,0.065
		c0.615,0.721-2.13,0.361-3.505,0.523c0.926,0.196,4.924,2.635,5.984,2.797C155.961,140.79,157.419,136.862,157.419,136.862z"/>
	<path fill="#BE0A26" stroke="#BE0A26" d="M167.761,94.242c0.714-0.854,1.552-1.5,1.942-2.461c0.704-1.729-0.766,1.2-2.62,0.154
		C167.423,93.898,167.446,94.317,167.761,94.242z"/>
	<path fill="#BE0A26" stroke="#BE0A26" d="M146.41,142.612c2.137,3.629,5.13,1.147,6.625,1.528c1.172,0.298,3.128-0.105,3.921-0.293
		c-0.525-0.176-0.959-0.347-1.262-0.507c-2.587-1.373-2.372,1.176-5.822,0c-2.483-0.847-3.062-3.316-2.793-4.71
		c-0.651-0.009-1.097-0.031-1.097-0.031"/>
	<path fill="#BE0A26" stroke="#BE0A26" d="M157.641,154.111c-0.114-0.012-0.228-0.023-0.331-0.033
		c-2.216-0.214,0.243,6.462,1.875,11.769c0.058,0.022,0.115,0.036,0.175,0.065C162.125,167.224,159.344,159.917,157.641,154.111z"/>
	<path fill="#BE0A26" stroke="#BE0A26" d="M157.144,83.152c-0.41,1.872-0.69,3.087-0.69,3.087s0.636,4.504,0.886,9.497
		C157.753,91.963,157.478,86.932,157.144,83.152z"/>
	<path fill="#BE0A26" stroke="#BE0A26" d="M157.419,147.461c3.883,0.384,10.889,4.76,13.905,3.583
		c3.017-1.178,2.213-1.767,5.66-4.711c3.448-2.944-6.792-5.889-6.792-5.889s6.792,5.447-1.294,7.655
		c-2.126,0.581-9.082-3.453-13.205-4.76c-0.263,0.59-0.267,0.505-1.35,0.343c-1.283-0.193-4.529,1.031-4.529,1.031
		s-1.357-1.809-2.426-1.62c-1.069,0.19-0.979,5.826,2.44,6.97C153.248,151.209,156.442,147.365,157.419,147.461z"/>
	<path fill="#BE0A26" stroke="#BE0A26" d="M218.659,82.299c0,0-3.02,4.91-6.469,4.907c-3.449-0.002-1.942,4.91-4.96,4.907
		c-3.018-0.002-2.159,6.48-4.313,9.422c-0.743,1.013,0.077,1.398,1.469,1.467c0.41-1.602,0.983-2.814,2.293-2.812
		c2.991,0.002,1.498-4.78,4.916-4.777s6.412-4.778,6.412-4.778s-5.128-1.531-1.496-2.292c3.631-0.762,11.114-7.263,11.114-7.263
		s-7.707,1.232-8.486-1.902c-0.73,0.37-1.409,0.642-1.989,0.766C213.486,80.726,218.659,82.299,218.659,82.299z"/>
	<path fill="#BE0A26" stroke="#BE0A26" d="M309.832,229.788c1.633-1.769,2.645-2.899,2.645-2.899S311.084,228.093,309.832,229.788z"
		/>
	<path fill="#BE0A26" stroke="#BE0A26" d="M286.4,245.235c0,0-0.137,0-0.334,0.05c0.018,0.076,0.031,0.146,0.05,0.223
		C286.3,245.333,286.4,245.235,286.4,245.235z"/>
	<path fill="#BE0A26" stroke="#BE0A26" d="M177.793,214.589c-0.08-0.724,11.963-11.821,12.292-12.268
		c-1.505,0.476-16.184,12.369-15.958,14.427c0.469,4.284,17.757-10.856,18.438-11.58
		C191.625,205.544,178.012,216.562,177.793,214.589z"/>
	<path fill="#BE0A26" stroke="#BE0A26" d="M186.45,220.957c0-2.528,5.176-12.772,5.36-13.139
		c-0.866,0.941-9.123,13.646-9.154,10.806c-0.036-3.267,7.967-11.689,7.967-11.689s-8.479,8.296-9.609,8.786
		c-0.147,0.376-0.667,1.92-0.634,4.954c0.034,3.073,3.573-0.63,4.495-1.648c-0.196,0.397-0.454,1.437-0.454,4.173
		c0,3.057,4.679-0.907,6.095-3.604C189.774,220,186.45,222.55,186.45,220.957z"/>
	<path fill="#BE0A26" stroke="#BE0A26" d="M189.751,214.449c0.129-0.141,0.206-0.227,0.206-0.227S189.865,214.224,189.751,214.449z"
		/>
	<path fill="#BE0A26" stroke="#BE0A26" d="M198.064,214.196c1.009-0.083-1.725,7.361-5.715,7.361
		c-3.234,0.098,4.528-6.184,3.881-10.109S198.593,212.625,198.064,214.196z"/>
	<path fill="#BE0A26" stroke="#BE0A26" d="M183.936,203.798c-1.72-3.243,0.938,1.69,9.169-9.131
		c8.232-10.822,2.157-5.496,7.242-19.457c0.949-5.542-12.015-20.713-9.485-21.588c1.467-0.508,9.748,10.821,7.991,20.437
		c-1.758,9.616-12.527,26.073-18.303,27.609c-5.775,1.537-3.085,5.568-2.218,5.854c0.569,0.188,8.766-3.858,9.058-3.729
		C189.438,202.812,188.793,202.812,183.936,203.798z"/>
	<path fill="#BE0A26" stroke="#BE0A26" d="M212.463,165.583c0.894,0.536,1.772,1.07,2.63,1.6"/>
	<path fill="#BE0A26" stroke="#BE0A26" d="M199.359,206.771c0.634,0.31-0.756,2.561,1.062,0.873
		c1.816-1.688,2.871-7.982,4.692-10.951C204.686,193.214,201.019,202.384,199.359,206.771z"/>
	<path fill="#BE0A26" stroke="#BE0A26" d="M183.81,213.101c0.026-0.011,0.052-0.021,0.078-0.032
		c0.025-0.062,0.041-0.096,0.041-0.096S183.885,213.021,183.81,213.101z"/>
	<path fill="#BE0A26" stroke="#BE0A26" d="M191.686,215.105c-0.207,1.653-0.736,3.185-1.365,4.386
		c1.159-0.634,2.721-3.221,3.105-6.246c0.072-0.564,0.179-1.026,0.308-1.409C193.709,211.838,192.193,211.061,191.686,215.105z"/>
</g>
<path fill="#BE0A26" stroke="#BE0A26" d="M659.152,121.82"/>
<path fill="#BE0A26" stroke="#BE0A26" d="M175.799,119.887c0-0.205,1.01-0.688,1.835-1.079c-0.45-0.545-1.081-0.887-1.78-0.887
	c-1.37,0-2.48,1.296-2.48,2.895c0,1.599,1.11,2.896,2.48,2.896s2.48-1.296,2.48-2.896c0-0.383-0.067-0.748-0.184-1.082
	C177.316,119.908,175.799,120.139,175.799,119.887z"/>
<path fill="#BE0A26" stroke="#BE0A26" d="M403.228,209.755c1.103-0.039,1.747-0.072,1.747-0.072S404.305,209.684,403.228,209.755z"
	/>
<path fill="#BE0A26" stroke="#BE0A26" d="M156.309,144.239c0.089,0.03,0.182,0.06,0.276,0.09c0.049-0.109,0.078-0.179,0.078-0.179
	S156.527,144.188,156.309,144.239z"/>
<path fill="#BE0A26" stroke="#BE0A26" d="M145.548,128.098c0.274-0.393,0.252-0.089,0.097,0.587c0.766,0.031,2.896-0.97,2.896-0.97
	s-1.71,0.762-3.634-2.484c-0.043-0.073-0.078-0.148-0.114-0.223c-0.405,1.941-0.626,3.859,0.119,4.199
	c0.171,0.078,0.362,0.132,0.564,0.176c0.065-0.258,0.125-0.498,0.17-0.698C145.355,128.674,145.255,128.519,145.548,128.098z"/>
<path fill="#BE0A26" stroke="#BE0A26" d="M146.581,135.979c1.734,2.428,2.68,2.631,4.205,2.355c-0.003-0.003,2.914-2.646,2.911-2.65
	C152.496,134.307,148.379,136.135,146.581,135.979z"/>
<path fill="#BE0A26" stroke="#BE0A26" d="M146.903,141.72c-0.205-0.043,4.637-4.057,4.637-4.057
	c-6.216-0.37,1.733-1.361-5.446-0.065c-0.302,0.055-0.703,1.077-0.808,1.62C146.201,139.231,145.807,141.85,146.903,141.72z"/>
<path fill="#BE0A26" stroke="#BE0A26" d="M368.176,205.658C368.913,204.925,367.058,204.824,368.176,205.658L368.176,205.658z"/>
<path fill="#BE0A26" stroke="#BE0A26" d="M285.27,243.17c1.09-1.037,1.749-1.689,1.749-1.689S285.613,241.485,285.27,243.17z"/>
<path fill="#BE0A26" stroke="#BE0A26" d="M163.241,238.536c-0.931,2.354-1.225,5.023-1.099,7.856c0.174-1.273,4.734-4.56,5.193-5.7
	C171.185,231.128,165.814,232.028,163.241,238.536z"/>
<path fill="#BE0A26" stroke="#BE0A26" d="M158.585,172.433c1.906,0.889,1.153-2.281-0.049-6.194
	c-3.234-1.24-4.521,6.438-4.286,15.31C154.634,175.496,156.01,171.232,158.585,172.433z"/>
<path fill="#BE0A26" stroke="#BE0A26" d="M310.66,225.615c1.646-1.816,2.666-2.977,2.666-2.977S311.921,223.874,310.66,225.615z"/>
<path fill="#BE0A26" stroke="#BE0A26" d="M433.308,235.875c1.689-2.391,2.936-4.405,2.936-4.405s-5.272-0.065-8.971-0.55
	c-1.607,0.763-3.426,1.633-5.158,2.477C417.82,235.488,430.994,235.832,433.308,235.875z"/>
<path fill="#BE0A26" stroke="#BE0A26" d="M217.146,72.872c0.241,1.576,2.073,1.11,4.271-0.087c-1.274-0.35,1.195-1.221,1.123-2.461
	c-0.218-3.727,11.862-6.868,11.862-6.868s-17.684,2.355-12.292,1.57c5.391-0.785,8.41-7.262,8.41-7.262s-7.347,6.447-10.887,7.235
	C218.272,67.309,216.781,70.49,217.146,72.872z"/>
<path fill="#BE0A26" stroke="#BE0A26" d="M217.149,76.016c0.009,0.139,1.312,3.43,1.343,3.554c2.478-1.255,5.553-3.637,7.453-5.194
	C222.121,75.642,217.042,74.2,217.149,76.016z"/>
<path fill="#BE0A26" stroke="#BE0A26" d="M227.463,73.098c0.162-0.139,0.252-0.22,0.252-0.22s-1.931,0.314-3.966,0.232
	c-0.717,0.345-1.494,0.599-2.328,0.719C218.289,74.276,223.016,73.673,227.463,73.098z"/>
<path fill="#BE0A26" stroke="#BE0A26" d="M307.555,236.454c1.711,4.011,28.639-13.568,28.639-13.568s2.35,0.385,0.642,3.44
	c-1.71,3.054,20.732-12.419,27.144-14.524c1.306-0.428,1.938-0.782,2.213-1.052c-1.108-0.813,0.729-0.714,0,0
	c0.529,0.388,1.726,0.982,4.2,1.816c4.494,1.517,11.827,2.075,18.369,2.239c3.53-3.888,11.056-4.827,14.467-5.051
	c-5.513,0.195-22.726,0.548-30.813-2.23c-2.497-0.857-3.567-4.708-4.101-5.106c-0.277,0.276-2.565,2.309-3.882,2.748
	c-6.469,2.162-27.599,19.628-25.875,16.49c1.723-3.137,0.214-7.657,0.214-7.657s-28.03,22.178-29.757,18.06
	c-0.165-0.395-0.258-0.801-0.292-1.212C307.597,232.557,306.773,234.625,307.555,236.454z"/>
<path fill="#BE0A26" stroke="#BE0A26" d="M208.169,115.487c0,0-0.856,1.341-2.564,3.058s-0.001,1.914,2.778,4.204
	c2.781,2.291,0.212-0.188,0.641,5.733c0.43,5.921,7.479,9.749,12.183,14.333c4.704,4.584,5.342,8.792,7.694,14.524
	c2.353,5.73,11.754,5.734,13.465,15.669c1.711,9.936,6.41,19.495,6.198,24.079c-0.212,4.584,9.831,14.717,10.9,21.212
	c1.071,6.495,0.374,18.085-0.481,25.535c-0.853,7.45,0.679,17.76,4.313,21.198c2.964,2.801,15.952-13.305,20.723-17.76
	c0.235-1.126,0.966-1.48,1.4-1.594c-0.256-1.095,2.337-10.08,2.459-10.677c-4.814,4.576-20.729,24.863-23.718,21.985
	c-3.668-3.529-1.077-9.619-0.216-17.271c0.861-7.653,0.863-19.437-0.216-26.108s-10.997-16.097-10.782-20.806
	c0.214-4.708-4.527-15.704-6.254-25.909c-1.727-10.205-14.662-10.207-17.034-16.093c-2.374-5.886-3.018-10.209-7.764-14.917
	s-9.704-8.641-10.136-14.723c-0.433-6.082,0.003-3.534-2.802-5.887c-1.036-0.868-1.922-1.443-2.543-1.913
	c-0.592,0.54-1.168,1.126-1.663,1.745C202.614,117.777,208.169,115.487,208.169,115.487z"/>
<path fill="#BE0A26" stroke="#BE0A26" d="M206.075,111.041c0.027-0.029,0.047-0.055,0.077-0.085c1.724-1.764,2.588-3.14,2.588-3.14
	s-3.234,2.154-1.079-0.591c2.155-2.745,3.451-4.708,3.451-4.708s-4.724,1.01-7.372,0.878c-0.525,2.055-0.783,4.751-1.982,6.36
	C200.584,111.329,203.348,111.345,206.075,111.041z"/>
<path fill="#BE0A26" stroke="#BE0A26" d="M179.317,295.121c0.198,0.965,6.067,0.676,12.339,0.083
	c2.335-0.459,4.96-0.802,7.813-0.925c0.314-0.015,0.613-0.023,0.913-0.033c3.759-0.458,6.507-0.844,6.507-0.844
	s-3.535,0.267-12.054-1.281c-7.251,0.776-13.901-0.047-14.13-1.182c-0.434-2.15-7.977-0.401-12.723-0.785
	c-4.748-0.385-0.645,3.929-0.645,3.929l5.347,0.748C176.107,294.451,178.993,293.539,179.317,295.121z"/>
<path fill="#BE0A26" stroke="#BE0A26" d="M166.064,99.435c0.857,4.584,0.212,3.061,2.351,2.675c2.139-0.385,3.207-9.745,3.207-9.745
	l-0.214,6.306l2.238-4.859c0.337-0.964,0.754-1.638,0.754-1.638l-0.754,1.638c-0.425,1.218-0.723,2.901,0.113,4.286
	c1.498,2.481,0.854,3.06,1.924,3.63c1.07,0.571,1.281,0.002,5.129-1.72c3.848-1.722,3.418-23.693,9.403-20.639
	c5.722,2.919,7.106-1.213,7.31-3.746c0.01-0.438,1.026-8.01,1.026-7.72c0,0.076-0.006,0.181-0.016,0.299
	c-0.049,2.167-0.198,11.549-0.198,11.549l9.538-10.213c0.189-0.336,0.081-3.738,0.081-3.738l-0.375,0.546
	c-0.511,0.907-1.038,2.736,2.084,3.849c2.644,0.944,6.59-2.418,9.22-5.124c-0.589-0.033-0.985-0.339-1.089-1.027
	c-0.649-4.315,4.528-11.188,4.528-11.188s-7.762,10.007-12.076,8.439c-3.151-1.145-2.62-3.024-2.104-3.955l-9.326,13.77
	c0,0,0.151-9.645,0.2-11.866c-0.203,2.596-2.62,14.473-8.394,11.473c-6.04-3.138-5.391,14.913-9.274,16.682
	c-3.882,1.769-4.31,6.869-5.39,6.283c-1.08-0.586-0.43-1.18-1.941-3.729c-0.843-1.422-0.543-3.151-0.114-4.402l-2.258,4.991
	l0.216-6.477c0,0-1.077,9.615-3.235,10.01c-0.861,0.158-1.273,0.5-1.515,0.558C166.27,95.645,165.6,96.95,166.064,99.435z"/>
<path fill="#BE0A26" stroke="#BE0A26" d="M149.917,114.999c0,0,4.933-1.821,7.5-6.597c1.231-2.292-0.494-7.673-0.725-12.274
	c-0.182,1.66-0.497,3.078-1,4.032c-2.589,4.906-6.898,9.616-6.898,9.616s-2.983,4.244-3.882,8.047
	c-0.496,2.096,1.016-5.027,1.48-4.631C147.389,111.088,149.917,114.999,149.917,114.999z"/>
<path fill="#BE0A26" stroke="#BE0A26" d="M420.898,216.116c0.576-0.221,0.896-0.348,0.896-0.348S421.496,214.597,420.898,216.116z"
	/>
<path fill="#BE0A26" stroke="#BE0A26" d="M162.858,65.992c0,0,6.625-15.477,5.557-9.555c-1.066,5.922-0.641,5.733,1.069,4.396
	c1.611-1.26,6.067-6.591,8.899-8.959c0.132-1.028,0.188-1.258,0.505-0.404c-0.162,0.122-0.331,0.259-0.505,0.404
	c-0.111,0.872-0.28,2.326-0.707,4.179c1.504-0.108,3.169,0.063,4.97,0.338c5.174,0.788-3.234-3.925-3.234-3.925l2.371-4.711
	c0,0-5.389,5.101-4.097,0.196c0.652-2.474,0.866-4.398,1.001-5.473c-2.858,2.433-7.354,7.908-8.979,9.203
	c-1.726,1.374-2.155,1.567-1.079-4.515c1.077-6.083-5.606,9.814-5.606,9.814s-4.96-10.604-4.961-5.105
	c-0.001,5.498-6.469,23.946-6.469,23.946s4.627,4.617,4.902,7.724c1.107-5.066,3.156-14.98,3.157-18.889
	C159.655,59.302,162.858,65.992,162.858,65.992z"/>
<path fill="#BE0A26" stroke="#BE0A26" d="M165.209,91.026c0.416,0.674,0.83,1.076,1.227,1.3c-0.051-0.297-0.11-0.626-0.177-0.999
	c-0.864-4.708,4.313-5.108,5.174-7.264c0.778-1.948-3.236,1.668-5.352-0.469C164.808,86.176,163.927,88.944,165.209,91.026z"/>
<path fill="#BE0A26" stroke="#BE0A26" d="M416.186,224.794c0.592-1.48,3.149-4.202,3.149-4.202s-0.317,0.125-0.888,0.339
	c-0.279,0.699-0.624,1.98-1.035,4.248c-0.611,3.373,2.721,4.307,6.372,4.364c0.098-0.19,0.354-0.397,0.814-0.625
	c4.744-2.351,10.135-4.907,10.135-4.907s-16.173,3.724-14.88-3.533c0.416-2.328,0.765-3.644,1.045-4.362
	c-5.456,2.093-34.037,12.627-34.037,3.577c0-0.117,0.015-0.224,0.02-0.337c-1.322,1.295-2.171,2.947-2.171,5.058
	C384.71,233.227,410.779,226.832,416.186,224.794z"/>
<path fill="#BE0A26" stroke="#BE0A26" d="M248.78,299.272c0.823,0.22,1.363,0.11,1.363,0.11s-0.423-2.149-0.544-4.055
	C248.479,294.823,248.539,297.21,248.78,299.272z"/>
<path fill="#BE0A26" stroke="#BE0A26" d="M204.645,316.851c0.439,0.088,0.789-0.239,1.07-0.793
	C204.681,316.473,204.149,316.752,204.645,316.851z"/>
<path fill="#BE0A26" stroke="#BE0A26" d="M214.057,312.069c0.747-0.672,1.093-1.374,0.723-2.088c-0.1-0.192-0.157-0.411-0.18-0.646
	C214.055,310.374,213.823,311.348,214.057,312.069z"/>
<path fill="#BE0A26" stroke="#BE0A26" d="M284.472,250.788c1.341,4.039,17.36-12.666,24.242-20.098
	c-0.086-1.76,4.404-8.344,5.474-9.821c-6.651,7.338-27.08,30.157-28.463,25.911c-0.103-0.312-0.184-0.602-0.254-0.88
	c-0.29,0.278-0.788,0.754-1.451,1.371C283.861,248.035,283.929,249.15,284.472,250.788z"/>
<path fill="#BE0A26" stroke="#BE0A26" d="M205.715,316.058c0.038-0.015,0.078-0.03,0.116-0.046c0.022-0.117,0.041-0.236,0.062-0.355
	C205.835,315.8,205.777,315.936,205.715,316.058z"/>
<path fill="#BE0A26" stroke="#BE0A26" d="M240.547,293.918c-0.33,0.541-0.582,1.705-0.914,3
	C240.02,295.963,240.304,294.896,240.547,293.918z"/>
<path fill="#BE0A26" stroke="#BE0A26" d="M252.413,289.389c0.434,2.417,2.347,4.835,4.13,6.636c2.348,0.472,4.384,0.217,4.384,0.217
	s-3.108-2.285-5.359-5.294C253.708,290.633,252.495,290.129,252.413,289.389z"/>
<path fill="#BE0A26" stroke="#BE0A26" d="M429.558,246.78c0,0-0.787,0.513-1.97,1.194
	C429.448,250.064,429.558,246.78,429.558,246.78z"/>
<path fill="#BE0A26" stroke="#BE0A26" d="M422.397,247.45c0.49,1.013,0.924,1.835,1.314,2.511c1.423-0.627,2.81-1.375,3.876-1.987
	c-0.398-0.449-0.879-1.15-1.456-2.177C424.571,247.342,423.17,248.211,422.397,247.45z"/>
<path fill="#BE0A26" stroke="#BE0A26" d="M383.518,264.616c0.807-0.276,1.464-0.508,1.926-0.674c0.057-1.02,0.163-2.44,0.339-4.404
	c0.016-0.177,0.039-0.353,0.069-0.524c-1.245,1.079-2.049,2.453-2.208,4.194C383.596,263.714,383.556,264.182,383.518,264.616z"/>
<path fill="#BE0A26" stroke="#BE0A26" d="M279.04,285.447c-0.135-0.059-0.245-0.124-0.342-0.193
	c-0.834,0.729-1.385,1.402-1.543,1.961C279.478,286.691,280.506,286.061,279.04,285.447z"/>
<path fill="#BE0A26" stroke="#BE0A26" d="M197.84,312.329c-1.175,0.528-2.439,1.07-3.673,1.552c-0.21,0.523-0.262,1.055-0.092,1.582
	C194.838,314.321,196.306,313.236,197.84,312.329z"/>
<path fill="#BE0A26" stroke="#BE0A26" d="M386.214,263.659c0,0-0.277,0.105-0.771,0.283
	C385.161,269.135,386.214,263.659,386.214,263.659z"/>
<path fill="#BE0A26" stroke="#BE0A26" d="M175.043,303.34c0.321-0.816-0.16-1.198-1.062-1.316c-1.937,0.568-4.995-0.909-5.995,5.015
	c-0.097,0.567-0.076,1.002,0.022,1.346C169.546,302.461,173.826,306.426,175.043,303.34z"/>
<path fill="#BE0A26" stroke="#BE0A26" d="M173.908,85.552l0.761-1.683C174.668,83.869,174.248,84.561,173.908,85.552z"/>
<path fill="#BE0A26" stroke="#BE0A26" d="M180.151,302.774c0.577-0.586,1.011-1.108,1.24-1.518
	C180.282,301.93,179.823,302.496,180.151,302.774z"/>
<path fill="#BE0A26" stroke="#BE0A26" d="M210.95,307.353c0.961,0.23,1.208-1.002,1.164-2.542c-0.154,0.096-0.341,0.124-0.569,0.067
	c-2.374-0.583-25.448,1.758-24.802,4.708c0.092,0.416,1.348,3.555,1.94,3.586C193.547,310.339,208.999,306.881,210.95,307.353z"/>
<path fill="#BE0A26" stroke="#BE0A26" d="M208.146,57.342l0.379-0.559C208.524,56.783,208.336,56.999,208.146,57.342z"/>
<path fill="#BE0A26" stroke="#BE0A26" d="M162.22,299.326c2.697,0.339,6.001,0.407,8.216,0.409c0.853-0.165,1.694-0.292,2.437-0.344
	l-0.18-1.786l-4.173-0.574c-1.946-0.042-4.635-1.721-6.575-1.97c-4.531-0.58-9.268,6.079-8.838,10.013
	c0.027,0.252,0.061,0.479,0.1,0.684C154.146,302.345,158.404,298.846,162.22,299.326z"/>
<path fill="#BE0A26" stroke="#BE0A26" d="M199.02,59.246c0.01-0.119,0.017-0.226,0.017-0.304
	C199.037,58.645,199.03,58.798,199.02,59.246z"/>
<path fill="#BE0A26" stroke="#BE0A26" d="M178.688,42.477c0.175-0.15,0.347-0.291,0.509-0.416
	C178.877,41.185,178.821,41.422,178.688,42.477z"/>
<path fill="#BE0A26" stroke="#BE0A26" d="M204.11,319.009c0.436,0.085,0.783-0.233,1.061-0.772
	C204.146,318.641,203.619,318.912,204.11,319.009z"/>
<path fill="#BE0A26" stroke="#BE0A26" d="M427.029,250.786c0,0-0.781,0.502-1.952,1.162
	C426.92,253.984,427.029,250.786,427.029,250.786z"/>
<path fill="#BE0A26" stroke="#BE0A26" d="M384.07,267.221c0,0-0.275,0.1-0.763,0.273C383.025,272.552,384.07,267.221,384.07,267.221
	z"/>
<path fill="#BE0A26" stroke="#BE0A26" d="M400.935,214.738c1.092-0.038,1.729-0.07,1.729-0.07S402.001,214.669,400.935,214.738z"/>
<path fill="#BE0A26" stroke="#BE0A26" d="M427.272,230.919c2.754-1.308,4.887-2.3,4.887-2.3s-4.377,0.988-8.375,0.925
	C423.452,230.198,425.085,230.632,427.272,230.919z"/>
<path fill="#BE0A26" stroke="#BE0A26" d="M229.756,66.757c0,0-4.676,4.031-8.339,6.027c0.72,0.198,1.534,0.292,2.332,0.325
	C227.625,71.247,229.756,66.757,229.756,66.757z"/>
<path fill="#BE0A26" stroke="#BE0A26" d="M221.634,61.979c0,0-1.124,1.421-2.749,3.093c0.224,0.013-3.089,5.312-2.815,5.251
	C217.11,68.56,221.634,61.979,221.634,61.979z"/>
<path fill="#BE0A26" stroke="#BE0A26" d="M433.308,235.875c-2.813,3.982-9.528,5.73-11.084,4.229
	c0.455,0.958,3.538,5.031,3.908,5.693c3.392-3.359,7.524-9.916,7.524-9.916S433.527,235.879,433.308,235.875z"/>
<path fill="#BE0A26" stroke="#BE0A26" d="M233.604,72.299c0,0-3,0.393-6.14,0.798c-0.292,0.254,0.513,4.313-0.18,4.881
	C231.102,76.714,233.604,72.299,233.604,72.299z"/>
<path fill="#BE0A26" stroke="#BE0A26" d="M309.186,230.18c-0.15,0.163-0.312,0.337-0.472,0.51c0.001,0.053,0.003,0.105,0.008,0.157
	C308.871,230.618,309.027,230.395,309.186,230.18z"/>
<path fill="#BE0A26" stroke="#BE0A26" d="M400.935,214.738c-2.401,0.083-7.044,0.196-12.174,0.068
	c-1.097,1.208-1.802,2.703-1.88,4.55C390.486,215.821,397.643,214.95,400.935,214.738z"/>
<path fill="#BE0A26" stroke="#BE0A26" d="M206.413,113.361c1.963-1.788,5.992-2.8,5.992-2.8s-4.094,0.231-6.33,0.48
	C205.089,112.091,205.379,112.582,206.413,113.361z"/>
<path fill="#BE0A26" stroke="#BE0A26" d="M194.078,315.478c-0.001-0.005-0.002-0.01-0.003-0.015
	c-0.482,0.723-1.542,4.572-1.294,5.311c1.281,3.828,13.468-8.836,13.468-8.836s-0.057,1.892-0.356,3.719
	c0.796-2.067,0.909-6.066,0.909-6.066S195.371,319.407,194.078,315.478z"/>
<path fill="#BE0A26" stroke="#BE0A26" d="M212.192,299.383c0,0,0.812-3.175-11.594-2.781c-2.614,0.318-5.715,0.673-8.726,0.957
	c-8.604,1.693-13.232,5.011-10.518,5.16c0.511,0.027,0.546,0.368,0.251,0.892c2.669-1.618,9.125-3.859,17.591-4.224
	c13.249-0.567,12.396,2.676,12.396,2.676s0.673,2.873,0.737,5.104C213.778,306.273,212.192,299.383,212.192,299.383z"/>
<path fill="#BE0A26" stroke="#BE0A26" d="M198.316,309.991c-3.454,1.582-7.677,3.285-9.634,3.181
	c-1.003,0.585-1.566,1.142-1.457,1.633c0.287,1.287,2.106,3.192,5.555,1.847C193.346,315.234,196.477,311.099,198.316,309.991z"/>
<path fill="#BE0A26" stroke="#BE0A26" d="M168.008,308.384c-0.085,0.327-0.163,0.679-0.231,1.07
	c-1.284,7.461,16.458-6.312,13.037-6.497c-0.326-0.02-0.544-0.082-0.663-0.183C176.845,306.128,168.886,311.448,168.008,308.384z"/>
<path fill="#BE0A26" stroke="#BE0A26" d="M191.918,283.285c-12.937-2.954-15.961-0.775-18.977-10.599
	c-2.294-7.469-10.403-17.311-10.8-26.294c-1.288,9.409,4.497,21.96,7.129,30.384c2.99,9.566,6.842,11.265,19.664,14.142
	c2.188,0.489,4.146,0.885,5.899,1.203c6.497-0.696,12.613-1.572,12.613-1.572S204.854,286.238,191.918,283.285z"/>
<path fill="#BE0A26" stroke="#BE0A26" d="M173.161,297.026l-0.216-2.158l-0.26-0.037c-1.105,0.122-8.298-1.444-9.446-1.535
	c-4.705-0.375,3.897,3.546,3.897,3.546l1.383,0.189C171.115,297.088,173.161,297.026,173.161,297.026z"/>
<path fill="#BE0A26" stroke="#BE0A26" d="M175.316,300.756c0.463-1.194-0.726-1.483-2.444-1.364l0.033,0.317
	c0,0-0.998,0.028-2.47,0.026c-2.691,0.522-5.469,1.413-5.469,1.413s-6.04,0.205-7.332,1.57s-2.156,4.319-2.156,4.319
	s-1.702,1.725-2.272-1.28c-0.167,0.605-0.241,1.209-0.177,1.785c0.425,3.83,2.351,1.911,2.351,1.911s1.833-2.071,3.114-3.401
	c1.28-1.33,6.47,0.394,6.47,0.394s6.312-4.772,9.018-4.423C174.549,301.857,175.022,301.516,175.316,300.756z"/>
<path fill="#BE0A26" stroke="#BE0A26" d="M205.171,318.236c2.993-1.182,10.259-3.499,8.984-5.915
	c-0.042-0.08-0.071-0.164-0.099-0.252c-1.819,1.637-5.933,0.376-8.122,1.246C205.779,314.166,205.462,317.671,205.171,318.236z"/>
<path fill="#BE0A26" stroke="#BE0A26" d="M359.906,265.623c1.941-8.642-20.271,19.043-21.133,10.599
	c-0.862-8.446-35.582,9.424-36.659,0.98c-1.053-8.24-27.357,5.212-23.416,8.052c5.171-4.515,19.148-6.262,19.962-0.006
	c1.068,8.222,36.451-9.595,37.306-1.374c0.854,8.224,23.705-17.442,21.78-9.029c-1.733,7.584,21.097-5.772,25.562-7.351
	c0.041-0.728,0.108-1.672,0.21-2.878C376.507,267.014,358.337,272.61,359.906,265.623z"/>
<path fill="#BE0A26" stroke="#BE0A26" d="M416.988,250.063c0.369,3.03-7.058-0.538-7.058-0.538s-22.182-1.81-24.079,9.489
	c7.083-6.135,28.568-2.687,28.568-2.687s0.518,0.605,0.15-2.345c1.036,2.853,7.266-0.204,10.507-2.034
	c-0.377-0.416-0.828-1.06-1.365-1.987C420.773,251.258,417.692,252.036,416.988,250.063z"/>
<path fill="#BE0A26" stroke="#BE0A26" d="M253.379,286.428c0.274,1.559,1.138,3.118,2.188,4.52
	c7.748,1.312,27.952,3.213,23.47,1.366c-0.645-0.267-2.033-4.57-1.882-5.099C270.594,288.694,253.696,289.332,253.379,286.428z"/>
<path fill="#BE0A26" stroke="#BE0A26" d="M165.826,219.494c-3.232-3.936-6.688-16.675-8.41-28.656
	c-0.444-3.083-2.074-9.434-2.157-12.562c-0.286,4.5-1.035,13.262-0.307,18.237c1.708,11.666,4.063,24.452,7.267,28.285
	C165.141,228.292,169.059,223.43,165.826,219.494z"/>
<path fill="#BE0A26" stroke="#BE0A26" d="M226.423,302.916c-3.045-6.107-12.658,5.588-12.268,9.405
	c2.068-3.944,8.496-8.985,10.971-4.108c3.204,6.311,10.19-3.733,12.752-6.975c0.864-1.096,1.365-2.799,1.754-4.32
	c-0.255,0.63-0.553,1.21-0.918,1.679C236.129,301.928,229.657,309.398,226.423,302.916z"/>
<path fill="#BE0A26" stroke="#BE0A26" d="M243.459,293.297c-1.807-4.436-2.182-2.327-2.913,0.621c0.43-0.71-0.075,4.909,0.969,7.425
	c2.776,6.694,7.69,0.659,7.69,0.659s-0.257-1.283-0.426-2.729C247.396,298.904,245.216,297.607,243.459,293.297z"/>
<path fill="#BE0A26" stroke="#BE0A26" d="M251.438,293.297c-1.72-1.985-1.975-0.137-1.838,2.031c0.24,0.108,0.531,0.342,0.889,0.748
	c3.204,3.636,9.356,6.051,9.356,6.051s-1.564-4.351-3.302-6.103C254.773,295.668,252.827,294.903,251.438,293.297z"/>
<path fill="#BE0A26" stroke="#BE0A26" d="M171.218,60.904c-2.155,5.297-0.649,5.303-1.94,8.44
	c-1.292,3.138-6.256,9.424-3.881,13.347c0.229,0.379,0.458,0.674,0.685,0.903c1.061-2.151,5.201-4.227,5.783-5.616
	c1.281-3.055,0.021-3.283,2.157-8.439c2.135-5.157,3.159-4.887,8.288-4.12c5.127,0.768-3.207-3.822-3.207-3.822l2.351-4.586
	c0,0-5.342,4.966-4.061,0.191c0.107-0.401,0.199-0.78,0.284-1.15C174.859,56.254,172.624,57.451,171.218,60.904z"/>
<path fill="#BE0A26" stroke="#BE0A26" d="M156.771,137.255c0,0-2.051,0.734-3.56,0.343c-0.264-0.068-1.327,0.003-1.671,0.065
	c0.615,0.721-2.13,0.361-3.505,0.524c0.925,0.196,4.924,2.635,5.983,2.796C155.314,141.182,156.771,137.255,156.771,137.255z"/>
<path fill="#BE0A26" stroke="#BE0A26" d="M167.115,94.634c0.713-0.854,1.551-1.5,1.941-2.46c0.703-1.729-0.765,1.199-2.621,0.153
	C166.776,94.291,166.798,94.709,167.115,94.634z"/>
<path fill="#BE0A26" stroke="#BE0A26" d="M145.763,143.004c2.137,3.629,5.13,1.147,6.625,1.528c1.171,0.298,3.127-0.105,3.921-0.293
	c-0.527-0.176-0.96-0.347-1.263-0.507c-2.587-1.373-2.373,1.176-5.822,0c-2.482-0.847-3.063-3.316-2.793-4.71
	c-0.652-0.009-1.097-0.031-1.097-0.031"/>
<path fill="#BE0A26" stroke="#BE0A26" d="M156.995,154.503c-0.116-0.012-0.229-0.023-0.332-0.033
	c-2.215-0.215,0.243,6.461,1.874,11.769c0.06,0.023,0.116,0.037,0.176,0.065C161.479,167.616,158.698,160.309,156.995,154.503z"/>
<path fill="#BE0A26" stroke="#BE0A26" d="M156.496,83.544c-0.408,1.872-6.626,5.426-6.626,5.426s6.573,2.165,6.823,7.158
	C157.106,92.355,156.831,87.324,156.496,83.544z"/>
<path fill="#BE0A26" stroke="#BE0A26" d="M156.771,147.854c3.884,0.384,10.998,6.083,14.015,4.906
	c3.017-1.178,2.105-3.09,5.553-6.034s-6.792-5.888-6.792-5.888s6.792,5.447-1.294,7.655c-2.127,0.58-9.083-3.453-13.206-4.76
	c-0.263,0.59-0.267,0.505-1.35,0.343c-1.283-0.193-4.528,1.031-4.528,1.031s-1.357-1.809-2.426-1.62
	c-1.069,0.19-0.939,6.558,2.48,7.703C152.642,152.333,155.796,147.757,156.771,147.854z"/>
<path fill="#BE0A26" stroke="#BE0A26" d="M218.012,82.691c0,0-3.668,3.337-7.117,3.334c-3.449-0.002-1.294,6.482-4.312,6.479
	s-2.158,6.48-4.313,9.421c-0.742,1.014,0.077,1.398,1.47,1.467c0.409-1.602,0.981-2.813,2.293-2.812
	c2.99,0.002,1.497-4.781,4.915-4.778c3.417,0.003,10.298-5.067,10.298-5.067s-5.789-1.791-2.156-2.551
	c3.631-0.763,10.566-9.814,10.566-9.814s-10.386,4.333-11.164,1.199c-0.73,0.37-1.409,0.642-1.989,0.766
	C212.838,81.119,218.012,82.691,218.012,82.691z"/>
<path fill="#BE0A26" stroke="#BE0A26" d="M309.186,230.18c-3.839,7.766-2.762,6.784-2.762,6.784S310.436,228.485,309.186,230.18z"/>
<path fill="#BE0A26" stroke="#BE0A26" d="M285.754,245.628c0,0-0.136,0-0.334,0.05c0.016,0.075,0.03,0.146,0.051,0.223
	C285.654,245.725,285.754,245.628,285.754,245.628z"/>
<path fill="#BE0A26" stroke="#BE0A26" d="M177.146,214.981c-0.081-0.724,11.962-11.821,12.292-12.267
	c-1.506,0.476-16.183,12.368-15.958,14.426c0.47,4.284,17.757-10.856,18.437-11.58C190.977,205.937,177.366,216.954,177.146,214.981
	z"/>
<path fill="#BE0A26" stroke="#BE0A26" d="M185.803,221.349c0-2.528,5.175-12.772,5.36-13.139
	c-0.866,0.941-9.123,13.646-9.154,10.806c-0.036-3.267,7.969-11.689,7.969-11.689s-8.479,8.296-9.61,8.786
	c-0.147,0.376-0.666,1.92-0.633,4.954c0.033,3.074,3.573-0.63,4.495-1.647c-0.197,0.397-0.455,1.437-0.455,4.173
	c0,3.058,4.68-0.907,6.095-3.604C189.127,220.393,185.803,222.942,185.803,221.349z"/>
<path fill="#BE0A26" stroke="#BE0A26" d="M189.104,214.841c0.13-0.141,0.206-0.228,0.206-0.228S189.218,214.616,189.104,214.841z"/>
<path fill="#BE0A26" stroke="#BE0A26" d="M197.417,214.589c1.01-0.084-1.725,7.36-5.714,7.36c-3.235,0.098,4.528-6.184,3.881-10.109
	S197.946,213.018,197.417,214.589z"/>
<path fill="#BE0A26" stroke="#BE0A26" d="M183.29,204.19c-1.721-3.243,0.937,1.69,9.168-9.131
	c8.232-10.822,2.157-5.496,7.243-19.457c0.949-5.542-12.016-20.713-9.486-21.588c1.466-0.507,9.748,10.821,7.99,20.437
	s-12.527,26.073-18.303,27.609c-5.775,1.536-3.085,5.567-2.217,5.854c0.569,0.188,8.766-3.858,9.057-3.729
	C188.792,203.204,188.146,203.205,183.29,204.19z"/>
<path fill="#BE0A26" stroke="#BE0A26" d="M211.817,165.975c0.892,0.536,1.772,1.07,2.63,1.6"/>
<path fill="#BE0A26" stroke="#BE0A26" d="M198.713,207.164c0.632,0.309-0.757,2.561,1.06,0.873
	c1.818-1.688,2.872-7.981,4.693-10.951C204.038,193.607,200.373,202.776,198.713,207.164z"/>
<path fill="#BE0A26" stroke="#BE0A26" d="M183.163,213.493c0.026-0.01,0.052-0.021,0.078-0.032c0.023-0.062,0.039-0.096,0.039-0.096
	S183.238,213.413,183.163,213.493z"/>
<path fill="#BE0A26" stroke="#BE0A26" d="M191.039,215.497c-0.208,1.653-0.735,3.185-1.365,4.386
	c1.16-0.634,2.721-3.221,3.107-6.246c0.072-0.564,0.177-1.025,0.307-1.409C193.062,212.23,191.546,211.453,191.039,215.497z"/>
<path fill="#BE0A26" stroke="#BE0A26" d="M658.347,122.309"/>
<path fill="#BE0A26" stroke="#BE0A26" d="M177.365,112.6c-4.682,0-8.478,3.613-8.478,8.07s3.795,8.07,8.478,8.07
	c4.683,0,8.478-3.613,8.478-8.07S182.048,112.6,177.365,112.6z M179.548,125.687c-0.812,0.429-1.73,0.676-2.706,0.676
	c-3.285,0-5.949-2.747-5.949-6.134c0-2.104,1.029-3.96,2.596-5.065c0.812-0.429,1.731-0.676,2.707-0.676
	c3.286,0,5.949,2.747,5.949,6.133C182.145,122.726,181.115,124.582,179.548,125.687z"/>
<path fill="#BE0A26" stroke="#BE0A26" d="M147.28,112.033c-2.143,0-3.881,3.317-3.881,7.41s1.738,7.411,3.881,7.411
	c2.144,0,3.882-3.318,3.882-7.411S149.424,112.033,147.28,112.033z M149.978,118.285c-0.049,0.052-0.19,0.148-0.375,0.271
	c-0.016,0.05-0.028,0.103-0.028,0.16c0,0.261,0.182,0.472,0.407,0.472s-1.445,0.475-1.445,0.214c0-0.161,0.632-0.561,1.066-0.846
	c0.056-0.177,0.197-0.304,0.368-0.31C149.973,118.259,149.976,118.271,149.978,118.285z M147.47,125.38
	c-1.459,0-2.643-2.417-2.643-5.397c0-2.981,1.184-5.398,2.643-5.398c1.063,0,1.977,1.284,2.396,3.131
	c-0.33-0.418-0.743-0.678-1.198-0.678c-1.063,0-1.926,1.363-1.926,3.042c0,1.681,0.862,3.043,1.926,3.043
	c0.425,0,0.814-0.224,1.132-0.591C149.354,124.227,148.478,125.38,147.47,125.38z"/>
<text transform="matrix(0.9635 -0.2679 0.2679 0.9635 150.4141 413.417)"><tspan x="0" y="0" fill="#68BFB7" font-family="'SukhumvitSet-Bold'" font-size="48">Figurentheater</tspan><tspan x="0.001" y="57.6" fill="#68BFB7" font-family="'SukhumvitSet-Bold'" font-size="48">PETRUSCHKA</tspan></text>
</svg>
