<?xml version="1.0" encoding="utf-8"?>
<!-- Generator: Adobe Illustrator 16.0.4, SVG Export Plug-In . SVG Version: 6.00 Build 0)  -->
<!DOCTYPE svg PUBLIC "-//W3C//DTD SVG 1.1//EN" "http://www.w3.org/Graphics/SVG/1.1/DTD/svg11.dtd">
<svg version="1.1" id="Ebene_1" xmlns="http://www.w3.org/2000/svg" xmlns:xlink="http://www.w3.org/1999/xlink" x="0px" y="0px"
	 width="566.93px" height="566.93px" viewBox="0 0 566.93 566.93" enable-background="new 0 0 566.93 566.93" xml:space="preserve">
<text transform="matrix(0.9708 -0.24 0.24 0.9708 491.8271 319.3779)" fill="#BE0A26" font-family="'MyriadPro-Bold'" font-size="19.9008">©</text>
<g>
	<path fill="#BE0A26" d="M84.763,221.663c-0.021,0.05-0.041,0.098-0.046,0.138C84.701,221.897,84.724,221.833,84.763,221.663z"/>
	<path fill="#BE0A26" d="M559.582,262.485l-50.247,18.729c0.069-24.378-3.015-49.232-9.597-73.96
		C462.442,67.157,327.485-15.74,198.297,22.105C69.107,59.938-5.384,204.19,31.897,344.284c5.7,21.407,13.689,41.47,23.581,59.979
		c-10.063,6.558-24.129,15.744-47.861,31.616c0.324-0.13,0.71-0.253,1.142-0.378l-1.142,0.378l113.974,50.555l0.084-0.024
		l0.635,44.28c0,0,26.646-11.833,41.518-18.257c48.048,24.841,103.5,33.099,158.446,19.937l36.671,30.127
		c0,0,9.124-31.777,14.231-48.894c54.386-27.731,95.552-75.973,117.738-133.541c-2.143,8.941-8.671,21.011-8.671,21.011
		l17.944,10.762L470.1,425.084l48.332-11.002c0,0-15.026-21.3-24.516-34.979L559.582,262.485z M35.708,341.675
		C-0.912,204.078,72.342,62.385,199.332,25.189c126.984-37.19,259.623,44.194,296.245,181.792c6.754,25.375,9.76,50.887,9.393,75.86
		l-36.313,13.536c-2.547,0.707-4.935,1.317-7.111,1.807c-29.81,6.689-28.201-31.898-8.025-35.702
		c4.343,1.573,3.906,7.65-0.623,7.471c9.609,6.004,11.236-19.915-4.079-16.147c-6.044,1.488-24.562,15.361-51.69,38.248
		c-18.468,15.578-12.986,13.202-37.609,28.625c-7.301,2.964-15.843,5.658-20.497-0.262c-7.305-9.288,6.07-29.462,14.363-28.132
		c4.337,1.568,3.901,7.648-0.624,7.47c9.609,6.003,11.229-19.916-4.086-16.148c-6.037,1.488-24.397,21.926-53.15,42.686
		c-17.521,12.657-13.741,9.389-31.872,20.613c-8.24,3.438-21.741,9.289-27.142,2.422c-7.304-9.29,6.07-29.472,14.356-28.135
		c4.346,1.577,3.906,7.651-0.616,7.473c9.602,5.998,11.228-19.916-4.088-16.148c-6.038,1.483-24.395,21.92-53.144,42.686
		c-13.529,9.767-15.463,10.685-24.231,15.898l0.701-0.571c-7.946,3.231-21.477,9.146-27.264,1.779
		c-7.305-9.284,6.067-29.463,14.355-28.128c4.342,1.573,3.904,7.648-0.618,7.471c9.602,5.998,11.228-19.917-4.085-16.148
		c-6.043,1.485-30.835,22.939-59.584,43.695c-14.295,10.328-20.659,14.535-32.845,22.479
		C49.458,383.199,41.416,363.12,35.708,341.675z M128.226,513.076l-5.501-26.968l0.401-0.116c5.779,4.611,11.74,8.938,17.854,12.99
		L128.226,513.076z M348.421,545.016l-24.168-13.139c3.032-0.755,6.062-1.553,9.089-2.439c4.225-1.237,8.387-2.595,12.492-4.057
		L348.421,545.016z M331.96,523.46c-71.78,21.023-145.355,4.154-202.383-39.326l355.276-102.341
		C457.295,449.063,403.054,502.641,331.96,523.46z"/>
</g>
<path fill="#BE0A26" d="M221.428,139.59c-3.206-12.226-8.449-21.043-18.333-20.236c0,0-13.735-1.483-20.7,11.064
	c0.743,32.354-4.724,70.402-7.393,83.6c1.944,10.195,6.18,17.861,14.25,20.15c13.543,3.839,25.277-2.94,32.465-13.986
	c-0.52-0.626-1.013-1.261-1.457-1.911C209.017,201.759,221.587,197.355,221.428,139.59"/>
<path fill="#BE0A26" d="M276.02,124.045c-3.614-25.12,0.242-49.538-26.412-50.027c0,0-29.348-4.122-28.24,59.467
	c0.037,2.102,0.056,4.132,0.062,6.104c3.796,14.482,4.736,33.748,7.137,47.476c2.022,11.558-0.812,23.841-6.85,33.118
	c13.102,15.826,49.481,23.619,63.331-0.734c1.178-2.071,2.177-4.144,3.041-6.217c-4.707-12.556-7.471-26.167-7.471-26.167
	C271.723,159.157,272.177,138.658,276.02,124.045"/>
<path fill="#BE0A26" d="M229.303,186.771c-2.401-13.729-4.077-32.699-7.875-47.181c-2.276,54.737-12.414,62.169-1.169,78.682
	c0.442,0.649,0.938,1.284,1.456,1.911C227.753,210.906,231.326,198.328,229.303,186.771"/>
<path fill="#BE0A26" d="M321.777,169.009c-0.271-22.376,5.885-40.17,9.222-48.135c-9.125-27.666-19.892-37.268-34.878-28.015
	c0,0-14.136,8.499-20.102,31.186c0.741,5.146,1.794,10.323,3.489,15.328c9.151,27.031,18.288,50.587,8.579,73.859
	c4.478,11.942,10.713,22.931,18,20.348c6.302-2.234,14.18-13.573,20.438-28.764C327.119,190.534,321.973,185.306,321.777,169.009"/>
<path fill="#BE0A26" d="M279.509,139.373c-1.695-5.005-2.75-10.182-3.489-15.328c-3.842,14.613-4.298,35.111,4.597,63.02
	c0,0,2.764,13.611,7.472,26.167C297.796,189.96,288.66,166.404,279.509,139.373"/>
<path fill="#BE0A26" d="M179.931,143.691c0.56-5.24,0.696-10.092,2.463-13.273c-0.528-22.961-4.181-43.049-14.185-49.335
	c0,0-7.752-1.767-11.628,10.599c0,0-8.967,15.711-13.614,38.415c3.805,11.639,8.401,29.828,4.085,39.927
	c-3.756,8.784-4.419,15.476-3.806,23.094c2.596,20.816,5.884,32.374,9.458,35.75c4.984,4.711,17.72,7.067,22.149-14.131
	c0.047-0.227,0.097-0.475,0.147-0.719C173.653,192.854,178.057,161.207,179.931,143.691"/>
<path fill="#BE0A26" d="M182.394,130.417c-1.765,3.182-3.104,7.25-3.664,12.488c-1.871,17.516-7.791,49.831-3.729,71.112
	C177.671,200.821,185.19,164.298,182.394,130.417"/>
<path fill="#BE0A26" d="M379.869,105.813c-3.876-12.366-11.628-10.599-11.628-10.599c-8.088,5.081-12.022,19.179-13.515,36.519
	c1.574,8.057,2.345,17.38,2.489,25.892c0.199,11.724,0.206,24.109-0.774,35.616c1.672,15.902,3.815,29.229,5.154,35.626
	c4.431,21.198,17.166,18.842,22.149,14.131c4.983-4.708,9.413-25.316,12.183-64.766
	C398.696,138.785,379.869,105.813,379.869,105.813"/>
<path fill="#BE0A26" d="M354.727,131.733c-3.249-16.635-11.631-29.454-21.65-15.405c0,0-0.849,1.611-2.077,4.545
	c1.326,4.021,2.617,8.418,3.883,13.201c5.766,21.795,0.229,49.896-8.357,70.741c-0.081,1.942-0.265,4.047-0.585,6.375
	c-2.677,19.446,10.706,33.201,20.966,17.549c5.649-8.617,8.334-21.401,9.536-35.499C354.413,173.95,353.08,150.87,354.727,131.733"
	/>
<path fill="#BE0A26" d="M336.174,133.78c-1.266-4.782-3.849-8.885-5.175-12.906c-3.337,7.964-9.492,25.759-9.222,48.135
	c0.195,16.297,5.342,21.524,4.748,35.807C336.082,184.22,341.938,155.577,336.174,133.78"/>
<path fill="#BE0A26" d="M358.968,157.92c-0.145-8.513-2.667-18.13-4.241-26.187c-1.646,19.135-2.033,41.201,1.715,61.508
	C357.422,181.734,359.169,169.643,358.968,157.92"/>
<path fill="#BE0A26" d="M142.967,130.097c-2.091-6.397-3.944-10.825-3.944-10.825c-17.397-18.498-21.412,16.126-21.858,42.214
	c-0.446,26.087-2.23,54.546,8.029,70.198c10.259,15.652,23.642,1.897,20.966-17.549c-1.175-8.534-2.436-15.058-2.914-21.017
	c-1.024-8.208-1.94-17.857-2.723-29.017C139.664,151.883,140.882,140.287,142.967,130.097"/>
<path fill="#BE0A26" d="M147.051,170.024c4.318-10.1-0.279-28.288-4.084-39.926c-2.085,10.189-4.685,21.491-3.828,33.709
	c0.783,11.158,3.083,21.1,4.107,29.311C142.634,185.5,143.297,178.808,147.051,170.024"/>
<path fill="#BE0A26" d="M131.763,195.312c-0.837,12.887,1.859,25.424,1.497,38.306c-0.318,11.316-0.991,22.494,3.555,33.032
	c1.353,3.139,5.748,0.413,4.371-2.715c-4.798-10.903-2.714-22.826-3.207-34.418c-0.5-11.766-6.197-22.613-6.139-34.205
	C131.84,195.257,131.766,195.257,131.763,195.312"/>
<path fill="#BE0A26" d="M163.187,185.299c1.014,12.977-2.445,25.461-4.232,38.167c-2.225,15.816,4.308,31.45,0.961,47.235
	c-0.625,2.951,3.55,4.205,4.281,1.255c3.991-16.106-2.662-32.236-1.243-48.52c1.087-12.479,2.542-25.73,0.308-38.148
	C163.256,185.243,163.184,185.251,163.187,185.299"/>
<path fill="#BE0A26" d="M201.78,197.672c0.509,13.52-1.673,26.786-4.357,39.935c-2.109,10.337-2.614,22.742,2.994,32.025
	c1.427,2.366,5.247,0.91,4.411-1.977c-1.697-5.855-3.663-11.041-3.751-17.306c-0.095-6.665,1.668-13.013,2.82-19.494
	c2.018-11.368,1.133-22.122-1.658-33.249C202.173,197.34,201.768,197.388,201.78,197.672"/>
<path fill="#BE0A26" d="M253.969,203.438c-1.219,13.988,0.839,27.99,0.588,42.014c-0.093,5.2-0.334,10.276,0.102,15.461
	c0.411,4.892-0.643,9.762,0.054,14.59c0.62,4.307,6.458,3.548,7.508,0c1.372-4.636,1.508-9.792,1.017-14.59
	c-0.566-5.535-0.562-11.078-1.215-16.612c-1.602-13.552-3.083-28.132-7.747-40.907C254.211,203.22,253.986,203.248,253.969,203.438"
	/>
<path fill="#BE0A26" d="M305,277.114c1.331,3.018,6.353,0.83,5.123-2.297c-2.984-7.616-1.579-16.586-1.479-24.652
	c0.113-9.009,0.146-18.023,0.188-27.033c0.074-16.14-0.557-32.299-5.217-47.779c-0.016-0.052-0.082-0.03-0.074,0.023"/>
<path fill="#BE0A26" d="M303.541,175.376c2.459,17.781,0.824,35.775,0.168,53.632c-0.318,8.618-0.708,17.237-0.9,25.859
	c-0.169,7.566-0.904,15.221,2.191,22.247"/>
<path fill="#BE0A26" d="M335.182,220.715c2.596,10.665,2.377,23.022,0.533,33.837c-1.224,7.19-2.67,14.409,1.489,20.871
	c2.085,3.238,7.093,0.153,4.977-3.092c-4.519-6.927-0.878-17.876-1.033-25.771c-0.182-9.236-2.711-17.35-5.89-25.866
	C335.239,220.645,335.169,220.662,335.182,220.715"/>
<path fill="#BE0A26" d="M373.856,220.667c1.471,15.992-0.799,32.86-1.854,48.844c-0.266,4.025,5.464,3.914,5.843,0
	c0.815-8.49,0.744-17.077-0.023-25.564c-0.714-7.895-2.65-15.486-3.857-23.295C373.953,220.586,373.85,220.602,373.856,220.667"/>
<text transform="matrix(0.9635 -0.2679 0.2679 0.9635 170.9668 409.416)"><tspan x="0" y="0" fill="#68BFB7" font-family="'SukhumvitSet-Bold'" font-size="48">Kinderkultur</tspan><tspan x="0.001" y="57.6" fill="#68BFB7" font-family="'SukhumvitSet-Bold'" font-size="48">Festival</tspan></text>
</svg>
