<?xml version="1.0" encoding="utf-8"?>
<!-- Generator: Adobe Illustrator 16.0.4, SVG Export Plug-In . SVG Version: 6.00 Build 0)  -->
<!DOCTYPE svg PUBLIC "-//W3C//DTD SVG 1.1//EN" "http://www.w3.org/Graphics/SVG/1.1/DTD/svg11.dtd">
<svg version="1.1" id="Ebene_1" xmlns="http://www.w3.org/2000/svg" xmlns:xlink="http://www.w3.org/1999/xlink" x="0px" y="0px"
	 width="566.93px" height="566.93px" viewBox="0 0 566.93 566.93" enable-background="new 0 0 566.93 566.93" xml:space="preserve">
<text transform="matrix(0.9708 -0.24 0.24 0.9708 491.8271 319.3779)" fill="#BE0A26" font-family="'MyriadPro-Bold'" font-size="19.9008">©</text>
<g>
	<path fill="#BE0A26" d="M84.763,221.663c-0.021,0.05-0.041,0.098-0.046,0.138C84.701,221.897,84.724,221.833,84.763,221.663z"/>
	<path fill="#BE0A26" d="M559.582,262.485l-50.247,18.729c0.069-24.378-3.015-49.232-9.597-73.96
		C462.442,67.157,327.485-15.74,198.297,22.105C69.107,59.938-5.384,204.19,31.897,344.284c5.7,21.407,13.689,41.47,23.581,59.979
		c-10.063,6.558-24.129,15.744-47.861,31.616c0.324-0.13,0.71-0.253,1.142-0.378l-1.142,0.378l113.974,50.555l0.084-0.024
		l0.635,44.28c0,0,26.646-11.833,41.518-18.257c48.048,24.841,103.5,33.099,158.446,19.937l36.671,30.127
		c0,0,9.124-31.777,14.231-48.894c54.386-27.731,95.552-75.973,117.738-133.541c-2.143,8.941-8.671,21.011-8.671,21.011
		l17.944,10.762L470.1,425.084l48.332-11.002c0,0-15.026-21.3-24.516-34.979L559.582,262.485z M35.708,341.675
		C-0.912,204.078,72.342,62.385,199.332,25.189c126.984-37.19,259.623,44.194,296.245,181.792c6.754,25.375,9.76,50.887,9.393,75.86
		l-36.313,13.536c-2.547,0.707-4.935,1.317-7.111,1.807c-29.81,6.689-28.201-31.898-8.025-35.702
		c4.343,1.573,3.906,7.65-0.623,7.471c9.609,6.004,11.236-19.915-4.079-16.147c-6.044,1.488-24.562,15.361-51.69,38.248
		c-18.468,15.578-12.986,13.202-37.609,28.625c-7.301,2.964-15.843,5.658-20.497-0.262c-7.305-9.288,6.07-29.462,14.363-28.132
		c4.337,1.568,3.901,7.648-0.624,7.47c9.609,6.003,11.229-19.916-4.086-16.148c-6.037,1.488-24.397,21.926-53.15,42.686
		c-17.521,12.657-13.741,9.389-31.872,20.613c-8.24,3.438-21.741,9.289-27.142,2.422c-7.304-9.29,6.07-29.472,14.356-28.135
		c4.346,1.577,3.906,7.651-0.616,7.473c9.602,5.998,11.228-19.916-4.088-16.148c-6.038,1.483-24.395,21.92-53.144,42.686
		c-13.529,9.767-15.463,10.685-24.231,15.898l0.701-0.571c-7.946,3.231-21.477,9.146-27.264,1.779
		c-7.305-9.284,6.067-29.463,14.355-28.128c4.342,1.573,3.904,7.648-0.618,7.471c9.602,5.998,11.228-19.917-4.085-16.148
		c-6.043,1.485-30.835,22.939-59.584,43.695c-14.295,10.328-20.659,14.535-32.845,22.479
		C49.458,383.199,41.416,363.12,35.708,341.675z M128.226,513.076l-5.501-26.968l0.401-0.116c5.779,4.611,11.74,8.938,17.854,12.99
		L128.226,513.076z M348.421,545.016l-24.168-13.139c3.032-0.755,6.062-1.553,9.089-2.439c4.225-1.237,8.387-2.595,12.492-4.057
		L348.421,545.016z M331.96,523.46c-71.78,21.023-145.355,4.154-202.383-39.326l355.276-102.341
		C457.295,449.063,403.054,502.641,331.96,523.46z"/>
</g>
<path fill="#BE0A26" stroke="#E2001A" d="M167.148,73.354c-9.312-0.082-16.924,8.036-17.003,18.13
	c-0.079,10.095,7.407,18.345,16.718,18.426c9.312,0.082,16.923-8.036,17.003-18.131C183.943,81.684,176.459,73.435,167.148,73.354z
	 M166.882,107.5c-7.324-0.064-13.213-6.231-13.154-13.776c0.059-7.542,6.042-13.606,13.367-13.542
	c7.324,0.065,13.212,6.231,13.154,13.775C180.19,101.5,174.206,107.564,166.882,107.5z"/>
<path fill="#BE0A26" stroke="#E2001A" d="M262.034,40.845c-12.475-1.491-23.768,8.382-25.222,22.052
	c-1.453,13.67,7.483,25.959,19.959,27.451c12.476,1.491,23.769-8.381,25.223-22.051C283.446,54.627,274.51,42.337,262.034,40.845z
	 M257.118,87.084c-9.812-1.173-16.887-10.405-15.801-20.619c1.086-10.215,9.922-17.546,19.735-16.373
	c9.812,1.173,16.886,10.405,15.8,20.62C275.767,80.928,266.932,88.256,257.118,87.084z"/>
<path fill="#BE0A26" stroke="#E2001A" d="M352.838,85.182c-9.311-0.082-16.925,8.035-17.001,18.13
	c-0.081,10.095,7.405,18.345,16.715,18.426c9.312,0.082,16.925-8.035,17.003-18.13C369.634,93.513,362.149,85.264,352.838,85.182z
	 M352.572,119.328c-7.326-0.064-13.213-6.231-13.153-13.775c0.06-7.543,6.042-13.606,13.365-13.542
	c7.324,0.065,13.213,6.231,13.154,13.775C365.881,113.329,359.896,119.393,352.572,119.328z"/>
<path fill="#E2001A" stroke="#E2001A" d="M137.952,272.095c89.467,29.81,158.832,15.979,218.123-2.832
	C338.183,296.175,164.674,298.908,137.952,272.095z"/>
<path fill="#BE0A26" stroke="#E2001A" d="M137.952,272.095c-11.101-11.153-1.376-87.364-1.376-87.364s32.681,52.113,23.907,62.348
	c-8.774,10.233-22.237,24.007-22.237,24.007S138.332,271.311,137.952,272.095z"/>
<path fill="#BE0A26" stroke="#E2001A" d="M135.562,160.945c-5.628-0.049-10.236,5.606-10.291,12.631
	c-0.055,7.025,4.464,12.759,10.093,12.809c5.628,0.049,10.236-5.605,10.291-12.63C145.71,166.729,141.19,160.995,135.562,160.945z
	 M135.377,184.708c-4.427-0.04-7.983-4.326-7.942-9.576c0.041-5.249,3.663-9.473,8.09-9.435c4.427,0.04,7.983,4.327,7.941,9.576
	C143.426,180.522,139.804,184.747,135.377,184.708z"/>
<path fill="#BE0A26" stroke="#E2001A" d="M354.478,270.075c12.126-9.878,9.864-86.746,9.864-86.746s-37.574,48.262-29.843,59.4
	c7.731,11.139,19.784,26.313,19.784,26.313S354.174,269.255,354.478,270.075z"/>
<path fill="#BE0A26" stroke="#E2001A" d="M356.378,171.42c-0.629,6.993,3.406,13.121,9.008,13.688
	c5.604,0.566,10.655-4.644,11.285-11.637c0.627-6.995-3.407-13.122-9.008-13.689C362.061,159.215,357.007,164.425,356.378,171.42z
	 M358.408,173.168c0.466-5.226,4.421-9.1,8.829-8.655c4.407,0.446,7.598,5.043,7.129,10.269c-0.47,5.227-4.422,9.102-8.832,8.656
	C361.13,182.993,357.937,178.394,358.408,173.168z"/>
<path fill="#E2001A" stroke="#E2001A" d="M137.6,272.096c-0.016,0-0.032,0-0.049,0C137.565,272.096,137.584,272.096,137.6,272.096z"
	/>
<path fill="#E2001A" stroke="#E2001A" d="M137.952,272.095c0,0-0.022,0-0.054,0C137.918,272.095,137.931,272.095,137.952,272.095z"
	/>
<path fill="#E2001A" stroke="#E2001A" d="M137.551,272.096c-0.096,0-0.175,0.001-0.251,0.001
	C137.385,272.098,137.47,272.097,137.551,272.096z"/>
<path fill="#E2001A" stroke="#E2001A" d="M137.898,272.095c-0.109,0-0.207,0-0.298,0.001
	C137.73,272.095,137.837,272.095,137.898,272.095z"/>
<path fill="#E2001A" stroke="#E2001A" d="M137.3,272.098c-0.129,0-0.253,0.001-0.351,0.001
	C137.031,272.099,137.151,272.098,137.3,272.098z"/>
<path fill="#E2001A" stroke="#E2001A" d="M136.949,272.099C136.672,272.101,136.746,272.101,136.949,272.099L136.949,272.099z"/>
<path fill="#BE0A26" stroke="#E2001A" d="M253.66,191.855c-9.312-0.082-16.925,8.035-17.002,18.13
	c-0.08,10.095,7.406,18.345,16.715,18.426c9.312,0.082,16.925-8.035,17.002-18.13C270.456,200.187,262.97,191.938,253.66,191.855z
	 M253.394,226.002c-7.326-0.064-13.213-6.231-13.153-13.775c0.059-7.543,6.042-13.606,13.366-13.542
	c7.325,0.065,13.212,6.231,13.154,13.775C266.702,220.003,260.718,226.066,253.394,226.002z"/>
<g>
	<path fill="#BE0A26" stroke="#E2001A" d="M183.069,209.941c-5.892,0.828-9.935,6.678-9.03,13.065
		c0.903,6.389,6.411,10.896,12.306,10.067c5.894-0.829,9.936-6.679,9.031-13.066C194.472,213.619,188.963,209.112,183.069,209.941z"
		/>
	<path fill="#BE0A26" stroke="#E2001A" d="M346.248,252.439c12.073,1.73,3.906-130.483,3.474-131.991
		c0.06-0.107,0.077-0.153-0.04-0.127c-0.137-0.431-0.179-0.143-0.189,0.122c-0.925,0.576-48.422,67.939-57.555,98.978
		c-2.271-34.634-32.743-130.192-33.783-131.557c0.031-0.129-0.004-0.219-0.098-0.116c-0.392-0.467-0.29-0.086-0.176,0.218
		c-0.755,0.997-39.823,88.426-45.004,126.839c-8.496-33.991-44.734-106.53-45.603-107.409c0.008-0.113-27.356,153.279-8.233,140.252
		c0,0-19.53,16.825-21.09,24.447c31.298-34.146,162.789-35.383,199.162-13.199C370.371,279.18,351.66,264.271,346.248,252.439z
		 M186.634,235.114c-7.49,1.054-14.546-5.022-15.755-13.571c-1.211-8.548,3.881-16.332,11.373-17.385
		c7.491-1.053,14.546,5.023,15.756,13.571C199.219,226.277,194.126,234.061,186.634,235.114z M178.09,173.665
		c-10.027-3.266-16.112,37.845-16.112,37.845s-3.441-71.192,8.592-76.205c12.032-5.014,28.408,59.91,28.408,59.91
		S188.118,176.931,178.09,173.665z M257.304,103.46c10.026,2.767,18.244,76.352,18.244,76.352s-7.435-40.671-18.355-40.671
		s-27.965,44.189-27.965,44.189S247.277,100.693,257.304,103.46z M276.499,209.058c-0.32,13.743-10.76,24.513-23.317,24.056
		c-12.556-0.458-22.476-11.968-22.155-25.711c0.322-13.744,10.762-24.514,23.317-24.057
		C266.9,183.804,276.82,195.314,276.499,209.058z M335.044,226.374c-1.187,8.552-8.317,14.622-15.928,13.557
		c-7.605-1.064-12.812-8.86-11.622-17.412c1.186-8.552,8.318-14.621,15.926-13.557C331.026,210.026,336.233,217.822,335.044,226.374
		z M334.691,181.275c-8.176-6.661-22.102,18.203-22.102,18.203s15.884-56.356,28.915-56.695s0.825,69.148,0.825,69.148
		S342.868,187.936,334.691,181.275z"/>
</g>
<path fill="#BE0A26" stroke="#E2001A" d="M323.49,213.824c-5.791-1.364-11.68,2.624-13.152,8.904
	c-1.475,6.281,2.027,12.478,7.82,13.842c5.793,1.364,11.682-2.623,13.153-8.904C332.783,221.385,329.283,215.188,323.49,213.824z"/>
<text transform="matrix(0.9635 -0.2679 0.2679 0.9635 146.6548 441.9121)" fill="#68BFB7" font-family="'SukhumvitSet-Bold'" font-size="48">Schlosswochen</text>
</svg>
