<?xml version="1.0" encoding="utf-8"?>
<!-- Generator: Adobe Illustrator 16.0.4, SVG Export Plug-In . SVG Version: 6.00 Build 0)  -->
<!DOCTYPE svg PUBLIC "-//W3C//DTD SVG 1.1//EN" "http://www.w3.org/Graphics/SVG/1.1/DTD/svg11.dtd">
<svg version="1.1" id="Ebene_1" xmlns="http://www.w3.org/2000/svg" xmlns:xlink="http://www.w3.org/1999/xlink" x="0px" y="0px"
	 width="566.93px" height="566.93px" viewBox="0 0 566.93 566.93" enable-background="new 0 0 566.93 566.93" xml:space="preserve">
<text transform="matrix(0.9708 -0.24 0.24 0.9708 491.8271 319.3779)" fill="#BE0A26" font-family="'MyriadPro-Bold'" font-size="19.9008">©</text>
<g>
	<path fill="#BE0A26" stroke="#BE0A26" d="M84.763,221.663c-0.021,0.05-0.041,0.098-0.046,0.138
		C84.701,221.897,84.724,221.833,84.763,221.663z"/>
	<path fill="#BE0A26" stroke="#BE0A26" d="M559.582,262.485l-50.247,18.729c0.069-24.378-3.015-49.232-9.597-73.96
		C462.442,67.157,327.485-15.74,198.297,22.105C69.107,59.938-5.384,204.19,31.897,344.284c5.7,21.407,13.689,41.47,23.581,59.979
		c-10.063,6.558-24.129,15.744-47.861,31.616c0.324-0.13,0.71-0.253,1.142-0.378l-1.142,0.378l113.974,50.555l0.084-0.024
		l0.635,44.28c0,0,26.646-11.833,41.518-18.257c48.048,24.841,103.5,33.099,158.446,19.937l36.671,30.127
		c0,0,9.124-31.777,14.231-48.894c54.386-27.731,95.552-75.973,117.738-133.541c-2.143,8.941-8.671,21.011-8.671,21.011
		l17.944,10.762L470.1,425.084l48.332-11.002c0,0-15.026-21.3-24.516-34.979L559.582,262.485z M35.708,341.675
		C-0.912,204.078,72.342,62.385,199.332,25.189c126.984-37.19,259.623,44.194,296.245,181.792c6.754,25.375,9.76,50.887,9.393,75.86
		l-36.313,13.536c-2.547,0.707-4.935,1.317-7.111,1.807c-29.81,6.689-28.201-31.898-8.025-35.702
		c4.343,1.573,3.906,7.65-0.623,7.471c9.609,6.004,11.236-19.915-4.079-16.147c-6.044,1.488-24.562,15.361-51.69,38.248
		c-18.468,15.578-12.986,13.202-37.609,28.625c-7.301,2.964-15.843,5.658-20.497-0.262c-7.305-9.288,6.07-29.462,14.363-28.132
		c4.337,1.568,3.901,7.648-0.624,7.47c9.609,6.003,11.229-19.916-4.086-16.148c-6.037,1.488-24.397,21.926-53.15,42.686
		c-17.521,12.657-13.741,9.389-31.872,20.613c-8.24,3.438-21.741,9.289-27.142,2.422c-7.304-9.29,6.07-29.472,14.356-28.135
		c4.346,1.577,3.906,7.651-0.616,7.473c9.602,5.998,11.228-19.916-4.088-16.148c-6.038,1.483-24.395,21.92-53.144,42.686
		c-13.529,9.767-15.463,10.685-24.231,15.898l0.701-0.571c-7.946,3.231-21.477,9.146-27.264,1.779
		c-7.305-9.284,6.067-29.463,14.355-28.128c4.342,1.573,3.904,7.648-0.618,7.471c9.602,5.998,11.228-19.917-4.085-16.148
		c-6.043,1.485-30.835,22.939-59.584,43.695c-14.295,10.328-20.659,14.535-32.845,22.479
		C49.458,383.199,41.416,363.12,35.708,341.675z M128.226,513.076l-5.501-26.968l0.401-0.116c5.779,4.611,11.74,8.938,17.854,12.99
		L128.226,513.076z M348.421,545.016l-24.168-13.139c3.032-0.755,6.062-1.553,9.089-2.439c4.225-1.237,8.387-2.595,12.492-4.057
		L348.421,545.016z M331.96,523.46c-71.78,21.023-145.355,4.154-202.383-39.326l355.276-102.341
		C457.295,449.063,403.054,502.641,331.96,523.46z"/>
</g>
<line fill="#BE0A26" stroke="#E2001A" x1="658.777" y1="527.383" x2="661.777" y2="525.42"/>
<path fill="#BE0A26" stroke="#E2001A" d="M140.986,249.447c-0.015,0-0.029,0-0.044,0
	C140.955,249.447,140.972,249.447,140.986,249.447z"/>
<path fill="#BE0A26" stroke="#E2001A" d="M141.308,249.446c0,0-0.02,0-0.049,0C141.277,249.446,141.289,249.446,141.308,249.446z"/>
<path fill="#BE0A26" stroke="#E2001A" d="M140.941,249.447c-0.088,0.001-0.16,0.001-0.23,0.001
	C140.789,249.448,140.867,249.448,140.941,249.447z"/>
<path fill="#BE0A26" stroke="#E2001A" d="M141.259,249.446c-0.1,0-0.189,0.001-0.273,0.001
	C141.105,249.447,141.203,249.446,141.259,249.446z"/>
<path fill="#BE0A26" stroke="#E2001A" d="M140.711,249.448c-0.118,0.001-0.232,0.001-0.321,0.001
	C140.465,249.45,140.576,249.45,140.711,249.448z"/>
<path fill="#BE0A26" stroke="#E2001A" d="M140.391,249.45C140.137,249.451,140.205,249.451,140.391,249.45L140.391,249.45z"/>
<path fill="#BE0A26" stroke="#BE0A26" d="M345.633,74.732c0,0-3.836,1.315-8.929,3.272c2.829-2.495,5.007-4.579,5.007-4.579
	s-2.604,1.965-5.153,4.318c0.509-1.007,0.818-1.628,0.818-1.628s-0.106,0.061-0.301,0.176c2.445-4.558,4.808-9.304,4.808-9.304
	s-0.752,1.155-1.907,2.988c2.719-4.962,5.657-10.869,5.657-10.869s-4.777,7.346-8.784,14.404c-0.294,0.071-0.763,0.185-1.374,0.333
	c0.007-0.93,0.016-2.007,0.026-3.156c1.11-2.164,1.875-3.701,1.875-3.701s-0.693,0.402-1.849,1.091c0.048-4.7,0.104-9.51,0.104-9.51
	s-1.051,5.696-2.563,10.996c-1.467,0.895-3.202,1.972-5.046,3.152c1.122-4.644,3.438-10.405,3.438-10.405
	s-13.508,10.475-20.975,12.802c0.562-1.536,0.976-2.564,0.976-2.564s-0.429,1.028-1.139,2.614c-1.026,0.307-1.932,0.453-2.667,0.389
	c0.854-4.787,3.806-12.132,3.806-12.132s-2.47,5.937-5.402,11.319c-0.538-0.668-0.908-1.588-1.146-2.671
	c0.931-2.742,1.801-4.904,1.801-4.904s-0.75,1.804-1.914,4.322c-1.013-5.988,1.418-15.946,1.418-15.946s-2.207,6.676-4.93,14.243
	c0.491-3.541,1.18-6.362,1.18-6.362s-2.688,8.131-5.792,16.617c-0.009-0.042-0.019-0.085-0.026-0.127
	c0.489-3.996,1.312-7.362,1.312-7.362s-0.629,1.067-1.658,2.778c0.118-5.595,1.658-11.906,1.658-11.906s-1.727,2.931-4.149,6.884
	c1.227-6.274,2.405-11.531,2.405-11.531s-1.269,3.763-3.283,8.864c-0.23,0.391-0.601,1.01-1.074,1.803
	c0.37-1.728,0.608-2.786,0.608-2.786s-0.575,1.705-1.565,4.375c-0.841,1.393-1.865,3.072-2.988,4.888
	c0.029-0.086,0.047-0.135,0.047-0.135s-0.047,0.095-0.13,0.271c-2.93,4.729-6.516,10.344-9.335,14.198
	c0.011-0.302,0.065-0.675,0.161-1.112c-0.508,1.005-1.025,1.991-1.551,2.944c-1.35,1.703-2.406,2.763-2.944,2.763
	c-1.527,0,0.031-9.98,1.719-18.851c-1.131,4.878-2.56,10.417-4.198,15.438c-1.577-6.571,1.575-20.219,2.918-25.478l-7.023,26.489
	c0.55-9.077,3.839-20.74,3.839-20.74l-6.381,11.19l0.368-5.152c0.807-3.561,1.505-6.039,1.505-6.039l-1.229,2.155l0.485-6.803
	l-5.775,11.5l-14.19,24.89l1.881-26.357l-0.901,3.506l0.901-12.634l-5.743,22.324v-4.619l0.997-13.961l-0.997,3.874V69.24
	c0,0-1.188,7.615-2.821,17.307l-0.929,3.608V77.121c0,0-2.074,13.284-4.506,27.098v-17.97V77.12c0,0-2.212,14.167-4.747,28.455
	v-24.71c0,0-0.47,3.013-1.225,7.654c-0.137-3.868-0.272-6.347-0.272-6.347s0.033,2.919,0.123,7.262
	c-0.864,5.296-2.052,12.434-3.327,19.628c-0.07-10.284-0.545-19.009-0.545-19.009s0.105,9.354,0.457,19.507
	c-1.157,6.513-2.378,13.031-3.487,18.232c-0.404-4.253-0.704-9.946-0.924-15.619c-0.003,1.246-0.012,2.503-0.03,3.761
	c-0.116-9.272-0.523-16.753-0.523-16.753s0.106,9.498,0.465,19.739c-0.089,3.501-0.254,6.926-0.525,10.018
	c-1.74-4.499-3.134-11.357-4.155-17.686c-0.104-9.594-0.532-17.456-0.532-17.456s0.085,7.488,0.355,16.335
	c-1.216-7.792-1.851-14.489-1.851-14.489s-0.55,12.971-1.257,26.251c-1.634-9.307-2.493-18.37-2.493-18.37
	s-0.468,11.042-1.096,23.181c-1.151-5.529-2.022-11.526-2.597-16.036c-0.342-4.781-0.557-8.021-0.557-8.021
	s-0.051,0.705-0.148,1.954c-0.072-0.689-0.109-1.078-0.109-1.078s-0.085,2.001-0.23,5.227c-0.383,4.51-0.986,11.083-1.786,18.211
	c-0.186-1.008-0.361-2.018-0.527-3.02c-0.561-7.577-0.95-13.414-0.95-13.414s-0.179,1.25-0.504,3.367
	c-0.495-3.943-0.749-6.628-0.749-6.628s-0.29,6.837-0.719,15.665c-0.351,2.051-0.741,4.266-1.165,6.577
	c-0.777-10.086-1.369-18.98-1.369-18.98s-0.551,3.858-1.494,9.558c-0.535,1.562-1.894,5.514-3.703,10.657
	c-1.633-12.644-3.023-24.351-3.023-24.351s-0.584,8.162-1.667,18.683c-1.562,6.235-4.23,16.726-7.079,27.214
	c1.549-11.933,3.994-23.809,3.994-23.809s-1.776,7.26-4.277,16.952c1.512-12.647,4.277-26.081,4.277-26.081
	s-4.828,19.733-9.773,37.581c0.972-14.146,5.026-33.837,5.026-33.837s-1.026,4.198-2.616,10.465c0.38-2.348,0.62-3.77,0.62-3.77
	s-0.328,1.812-0.873,4.765c-1.582,6.218-3.661,14.245-5.831,22.211c1.438-10.133,2.954-19.096,2.954-19.096
	s-2.388,13.201-5.013,26.535c-1.197,4.236-2.38,8.273-3.486,11.812c-0.012-0.709-0.019-1.454-0.024-2.227
	c1.623-12.844,4.016-26.992,4.016-26.992s-1.805,9.975-4,21.339c0.012-1.306,0.029-2.646,0.051-4
	c1.621-12.701,3.95-26.467,3.95-26.467s-1.713,9.466-3.832,20.463c0.23-10.027,0.589-19.184,0.589-19.184
	s-0.826,15.303-3.051,31.665c-0.499,2.458-0.993,4.845-1.47,7.075c0.037-6.237,0.212-13.507,0.386-19.425
	c1.333-9.175,2.631-16.851,2.631-16.851s-1.054,5.83-2.532,13.653c0.155-4.875,0.286-8.237,0.286-8.237s-0.235,4.358-0.792,10.906
	c-1.34,7.042-2.938,15.231-4.4,22.166c0.207-11.683,0.686-23.943,0.686-23.943s-0.161,2.985-0.532,7.726
	c0.228-9.071,0.532-16.854,0.532-16.854s-1.366,25.324-5.321,45.651c-0.681-9.807,0.575-41.907,0.575-41.907
	s-1.481,27.446-5.822,48.127c-3.698-10.616-1.674-32.414-1.674-32.414l-4.295,22.535c-0.086-7.854,0.545-14.654,0.545-14.654
	l-4.5,23.611l0.211,2.335c-0.003,0-0.005-0.001-0.008-0.002c-0.379-2.669-0.588-5.545-0.688-8.379
	c0.15-4.907,0.479-8.437,0.479-8.437l-0.548,2.878c0.054-6.673,0.548-12.006,0.548-12.006l-4.5,23.611l0.558,6.2l-0.313,1.642
	c-2.018-11.28-0.492-27.708-0.492-27.708l-4.5,23.611l0.566,6.285c-0.264-0.054-0.535-0.091-0.82-0.091
	c0.327,0.337,0.625,0.704,0.909,1.087l0.423,4.701c-0.083,0.648,0.006,1.485,0.221,2.453l0.113,1.256
	c-0.297-0.137-0.612-0.235-0.941-0.295c-1.041-2.826-2.742-5.457-5.472-5.457c2.291,2.368,3.499,5.903,4.106,9.488
	c-0.094-0.176-0.189-0.354-0.284-0.532c-0.023-0.143-0.048-0.28-0.068-0.426c-0.055,0-0.098,0.015-0.15,0.017
	c-2.121-3.993-4.232-8.199-5.768-11.311c1.461,3.038,3.418,7.184,5.314,11.414c-1.792,0.728-0.445,5.026,1.299,9.455
	c-2.157-1.236-4.422-3.898-5.203-9.575c-1.797,0-1.721,2.146-0.897,5.028c-1.59-3.063-1.064-1.725,0.728,2.255
	c0.805,2.257,1.848,4.712,2.731,6.863c-0.444-0.104-0.924-0.255-1.419-0.477c-0.496-1.246-0.896-2.74-1.143-4.542
	c-1.272,0-1.601,1.079-1.397,2.728c-0.474-0.497-0.927-1.096-1.346-1.806c-0.144-0.265-0.288-0.531-0.433-0.798
	c-0.694-1.415-1.255-3.213-1.57-5.508c-0.496,0,4.474,16.992,4.341,19.598c-3.05-5.215-6.86-12.76-9.262-17.626
	c2.145,4.46,5.36,11.302,7.876,17.303c-2.838-3.226-9.179-15.709-12.622-22.687c2.722,5.664,7.174,15.171,9.724,21.915
	c-0.831-0.696-1.655-1.437-2.467-2.199c-0.113-0.178-0.223-0.346-0.337-0.531c0,0.074,0.004,0.146,0.005,0.219
	c-5.26-5.012-9.755-10.794-9.755-10.794c-1.239,9.078,4.214,17.03,10.364,22.112c-0.107,0.027-0.215,0.052-0.324,0.075
	c-6.764-5.271-13.79-14.306-13.79-14.306c-1.243,9.109,4.251,17.085,10.428,22.164c-3.367,1.882,0.836,9.696,3.769,9.588
	c0.259,0.903,0.688,1.822,1.21,2.641c-1.528,2.862-3.022,5.755-4.476,8.682c-11.053,15.666-19.216,30.279-22.939,42.836
	c-1.588,21.327-2.454,46.39,3.487,4.413c8.544-19.324,18.711-37.798,29.884-55.29c3.648-2.228,12.763,8.095,14.13,8.81
	c1.031,0.538-2.33-7.071-3.452-12.218c1.682,1.549,2.997,2.853,3.452,3.09c0.597,0.312-0.282-2.115-1.344-5.212
	c2.76,2.317,5.195,4.868,5.851,5.212c0.657,0.344-0.472-2.628-1.667-6.162c0.967,0.397,1.987,0.851,3.024,1.337
	c-1.529-1.259-2.671-2.639-2.95-4.066c4.264,2.83,9.816,4.781,9.816,4.781s-4.84-2.8-9.873-5.266c-0.044-0.84,0.224-1.693,0.9-2.545
	c2.174,1.938,3.955,3.754,4.5,4.04c0.259,0.136,0.237-0.251,0.046-0.976c8.578,4.942,28.697,10.131,28.697,10.131
	s-4.567-2.958-9.719-6.752c2.987,0.855,4.973,1.367,4.973,1.367s-6.566-4.253-12.835-9.101c8.543,3.026,17.582,5.357,17.582,5.357
	s-1.29-0.835-3.269-2.185c4.485,1.337,7.776,2.185,7.776,2.185s-10.547-6.831-17.67-13.045c8.064,1.581,17.663,4.844,17.663,4.844
	s-2.295-0.903-5.433-2.291c5.191,1.58,9.189,2.612,9.189,2.612s-11.217-7.266-18.328-13.628c7.234,1.685,14.571,4.179,14.571,4.179
	s-4.206-1.656-9.015-3.929c6.877,1.67,13.522,3.929,13.522,3.929s-11.42-4.494-18.143-8.843c3.229-0.739,7.109-1.488,11.298-2.22
	c5.72,1.525,10.594,3.182,10.594,3.182s-3.782-1.489-8.273-3.58c18.306-3.092,41.017-5.766,41.017-5.766s-20.033,0.723-34.215-1.443
	c15.093-2.249,29.468-3.941,29.468-3.941s-8.507,0.308-18.357-0.078c14.395-2.11,27.61-3.666,27.61-3.666s-2.086,0.075-5.381,0.104
	c0.563-0.068,0.875-0.104,0.875-0.104s-2.233,0.081-5.732,0.107c-8.079-0.063-19.296-0.492-27.405-2.16
	c18.369-3.119,41.394-5.829,41.394-5.829s-17.135,0.62-30.93-1.002c17.325-2.906,37.173-4.201,37.173-4.201
	s-31.508,1.371-46.826-0.299c0.737-0.143,1.48-0.282,2.234-0.419c6.891-0.875,15.564-1.193,23.875-1.239
	c13.091,0.07,24.189,0.709,24.189,0.709s-1.379-0.129-3.707-0.367c5.002,0.181,8.213,0.367,8.213,0.367s-10.31-0.967-22.271-2.488
	c13.593,0.654,27.264,1.002,27.264,1.002s-13.003-1.08-27.633-1.845c5.939-0.547,9.914-0.806,9.914-0.806s-7.54,0.327-17.035,0.467
	c-0.582-0.024-1.163-0.047-1.743-0.071c-5.282-0.765-10.461-1.614-14.848-2.514c5.117-0.925,16.348-1.547,27.757-1.958
	c10.672,0.662,18.841,1.34,18.841,1.34s-4.093-0.603-10.093-1.546c7.966,0.212,13.597,0.537,13.597,0.537s-2.939-0.275-7.493-0.763
	c10.03-0.234,17.736-0.309,17.736-0.309s-9.49,0.068-20.829-0.03c-6.702-0.743-15.644-1.82-23.989-3.095
	c15.693,0.951,35.818,1.463,35.818,1.463s-0.963-0.08-2.646-0.211c4.339,0.139,7.152,0.211,7.152,0.211s-27.03-2.245-46.999-2.554
	c-0.41-0.072-0.814-0.144-1.215-0.217c4.238-1.061,10.424-2.337,17.352-3.66c1.52-0.069,3.067-0.134,4.627-0.196
	c13.886,1.398,25.981,2.903,25.981,2.903s-10.449-1.311-22.771-3.022c15.942-0.564,32.025-0.721,32.025-0.721
	s-2.495,0.018-6.446,0.022c1.241-0.016,1.939-0.022,1.939-0.022s-2.304,0.017-5.996,0.022c-6.349-0.01-14.731-0.061-22.722-0.227
	c1.811-0.333,3.644-0.665,5.481-0.994c11.845,0.514,22.494,0.784,22.494,0.784s-8.369-0.695-19.231-1.365
	c17.556-3.104,34.475-5.796,34.475-5.796s-2.941-0.091-7.496-0.292c0.806-0.009,1.253-0.014,1.253-0.014s-0.494,0.003-1.392,0.008
	c-7.329-0.322-18.746-0.921-28.874-1.863c3.909-0.71,7.886-1.414,11.752-2.085c11.421-0.692,20.01-1.139,20.01-1.139
	s-4.404-0.138-10.783-0.442c2.781-0.47,5.4-0.909,7.771-1.301c12.454,1.03,22.311,2.077,22.311,2.077s-5.777-1.347-13.388-3.441
	c7.006-0.398,11.645-0.636,11.645-0.636s-6.698-1.005-15.71-2.546c7.554,0.692,12.707,1.239,12.707,1.239
	s-11.296-2.633-23.112-6.263c14.941,1.147,27.858,2.519,27.858,2.519s-1.178-0.274-3.161-0.766c4.714,0.453,7.667,0.767,7.667,0.767
	s-22.97-5.355-37.665-11.32c5.421,0.312,10.992,0.712,16.226,1.129c-5.101-1.384-10.047-3.056-14.16-5.006
	c6.39-0.186,13.704-0.03,20.719,0.27c-2.377-0.6-4.531-1.363-6.285-2.329c9.08,1.05,18.248,2.366,25.537,3.488
	c-5.23-0.396-12.082-0.853-19.252-1.159c8.394,2.118,19.515,2.213,25.194,2.094c5.365,0.863,8.762,1.462,8.762,1.462
	s-2.744-0.538-7.048-1.508c1.243-0.042,1.966-0.083,1.966-0.083s-1.413-0.135-3.821-0.34c-7.417-1.713-18.307-4.468-28.077-7.866
	c5.99,0.673,12.063,1.474,17.657,2.27c-1.915-0.421-3.835-0.88-5.716-1.378c3.497,0.443,6.942,0.912,10.224,1.378
	c-10.033-2.202-20.215-5.458-23.968-10.012c0.937-0.317,1.963-0.605,3.069-0.865c8.125,0.769,16.854,1.888,24.647,2.996
	c-5.356-1.175-10.754-2.651-15.194-4.464c18.102-1.787,43.721-0.041,49.372,0.384c4.95,0.922,8.132,1.475,8.132,1.475
	s-11.787-2.533-26.858-5.165c6.993,1.461,13.63,2.739,18.556,3.658c-6.784-0.637-38.17-3.743-48.511-7.643
	c1.209-0.021,2.454-0.027,3.728-0.018c8.8,1.101,18.003,2.566,26.228,4.002c-5.495-1.148-11.204-2.409-16.481-3.699
	c22.404,1.148,48.087,5.12,48.087,5.12s-15.446-2.683-31.265-6.101c12.853-0.091,25.942-0.875,25.942-0.875
	s-17.38-1.351-34.939-1.149c-3.896-0.917-7.631-1.857-10.963-2.789c7.675-0.251,17.36,0.072,25.729,0.507
	c-7.992-0.683-16.429-1.643-20.596-2.874c0.837-0.176,1.71-0.348,2.616-0.515c9.833,1.121,20.584,2.734,28.713,4.038
	c-3.033-0.208-6.732-0.441-10.733-0.649c4.488,0.383,8.833,0.679,12.202,0.885c4.261,0.691,7.664,1.273,9.645,1.617
	c-1.816-0.322-4.816-0.861-8.473-1.545c3.221,0.191,5.294,0.288,5.294,0.288s-2.451-0.208-6.337-0.484
	c-6.28-1.183-14.229-2.748-21.407-4.365c14.588,0.257,33-0.845,33-0.845s-12.243-0.951-26.558-1.139
	c13.054-1.502,25.809-2.296,25.809-2.296s-11.806-0.549-22.888-1.628c3.351-0.36,6.61-0.668,9.432-0.917
	c-4.857,0.299-10.852,0.515-15.753,0.223c-2.493-0.311-4.801-0.652-6.745-1.024c-0.195-0.064-0.382-0.131-0.557-0.201
	c0.029-0.005,0.058-0.01,0.087-0.015c7.401,0.087,16.299,0.532,23.516,0.969c-0.181,0.016-0.362,0.031-0.548,0.048
	c0.222-0.014,0.442-0.027,0.66-0.042c7.642,0.463,13.371,0.915,13.371,0.915s-4.609-0.384-10.836-1.091
	c3.431-0.256,5.754-0.501,5.754-0.501s-2.395,0.166-6.035,0.469c-4.883-0.558-10.717-1.312-16.096-2.232
	c14.472-1.862,30.388-2.853,30.388-2.853s-15.879-0.739-28.09-2.187c5.303-0.663,10.9-1.21,15.391-1.606
	c-2.537,0.156-5.383,0.29-8.222,0.34c1.296-0.123,2.543-0.237,3.715-0.34c-2.537,0.156-5.384,0.29-8.224,0.34
	c-3.268-0.067-6.281-0.299-8.504-0.798c4.367-2.247,9.787-4.53,14.522-6.393c3.707-0.408,7.351-0.754,10.461-1.029
	c-2.51,0.155-5.326,0.287-8.138,0.338c7.723-1.154,13.913-1.854,13.913-1.854s-4.455,0.197-10.215,0.25
	c3.085-1.14,5.133-1.842,5.133-1.842s-2.538,0.838-6.025,1.849c-0.459,0.003-0.926,0.005-1.397,0.006
	c3.996-2.402,11.93-10.983,11.93-10.983s-3.241,1.112-7.719,2.809C338.277,82.687,345.633,74.732,345.633,74.732z M127.157,222.691
	c0.028,0.065,0.057,0.131,0.084,0.194c0.008,0.067,0.015,0.133,0.023,0.2C127.226,222.958,127.192,222.823,127.157,222.691z
	 M331.721,83.869c0.008-0.002,0.017-0.004,0.025-0.006c-0.013,0.066-0.017,0.128-0.021,0.191c-0.032,0.112-0.063,0.221-0.091,0.326
	c-0.075,0.022-0.15,0.043-0.226,0.065C331.511,84.254,331.615,84.062,331.721,83.869z M327.476,75.737
	c1.348-0.313,2.635-0.616,3.806-0.893c-0.412,0.979-0.835,1.817-1.265,2.44c-0.726,0.04-1.58,0.092-2.52,0.156
	C327.41,76.989,327.411,76.406,327.476,75.737z M329.549,77.87c-0.361,0.382-0.726,0.605-1.088,0.605
	c-0.233,0-0.418-0.076-0.567-0.21C328.492,78.123,329.046,77.991,329.549,77.87z M323.745,83.417
	c1.614-0.748,3.292-1.486,4.97-2.197c-0.098,0.122-0.194,0.244-0.282,0.363c-1.533,0.977-3.147,2.029-4.749,3.11
	C323.672,84.314,323.693,83.886,323.745,83.417z M328.365,84.658c-0.715,0.475-1.379,0.874-1.965,1.164
	c-0.65,0.168-1.308,0.333-1.963,0.492c-0.272-0.083-0.462-0.297-0.585-0.615C325.399,85.347,326.926,84.994,328.365,84.658z
	 M194.816,124.631c-0.292,1.678-0.607,3.445-0.944,5.269C194.21,127.937,194.533,126.152,194.816,124.631z M186.731,129.424
	c-0.806,7.328-1.827,15.35-3.038,22.381C184.283,144.464,185.604,135.909,186.731,129.424z M141.703,199.191
	c-0.206-1.628-0.352-3.321-0.453-5.025L141.703,199.191z M129.474,219.421l0.388,4.312c0,0-0.236-2.611-1.068-5.423
	C129.038,218.665,129.262,219.038,129.474,219.421z M116.282,278.146c-6.259,9.761,5.532-20.095,16.871-33.408
	C197.798,138.75,322.425,80.527,322.425,80.527S183.068,156.329,116.282,278.146z M327.552,93.589
	c0.052-0.037,0.107-0.088,0.168-0.148c0.003,0.054,0.01,0.101,0.017,0.149C327.676,93.59,327.614,93.59,327.552,93.589z
	 M330.075,87.007c-0.709,1.418-1.302,2.715-1.717,3.806c-0.704,0.957-1.154,1.833-1.154,2.517c0,0.118,0.015,0.201,0.042,0.258
	c-3.762-0.031-7.681-0.148-11.076-0.426C320.344,91.011,325.487,88.826,330.075,87.007c0.349-0.695,0.724-1.42,1.12-2.163
	c0.122-0.046,0.241-0.09,0.361-0.134c-0.063,0.292-0.096,0.552-0.096,0.771c0,0.477,0.161,0.727,0.437,0.812
	C331.303,86.524,330.695,86.762,330.075,87.007z M335.543,77.197c-0.318,0.19-0.672,0.401-1.057,0.633
	c0.311-0.595,0.638-1.206,0.975-1.826c0.001-0.331,0.003-0.742,0.007-1.209c0.482-0.393,0.893-0.717,1.191-0.952
	c-0.411,0.728-0.812,1.45-1.198,2.161c0,0.114,0,0.221,0,0.316c0,0.467,0.214,0.438,0.576,0.049
	C335.873,76.643,335.708,76.919,335.543,77.197z"/>
<text transform="matrix(0.9635 -0.2679 0.2679 0.9635 185.9258 427.9141)" fill="#68BFB7" font-family="'SukhumvitSet-Bold'" font-size="48">Tipiwochen</text>
</svg>
