<?xml version="1.0" encoding="utf-8"?>
<!-- Generator: Adobe Illustrator 16.0.4, SVG Export Plug-In . SVG Version: 6.00 Build 0)  -->
<!DOCTYPE svg PUBLIC "-//W3C//DTD SVG 1.1//EN" "http://www.w3.org/Graphics/SVG/1.1/DTD/svg11.dtd">
<svg version="1.1" id="Ebene_1" xmlns="http://www.w3.org/2000/svg" xmlns:xlink="http://www.w3.org/1999/xlink" x="0px" y="0px"
	 width="566.93px" height="566.93px" viewBox="0 0 566.93 566.93" enable-background="new 0 0 566.93 566.93" xml:space="preserve">
<g>
	<path fill="#C6C7C8" stroke="#C6C7C8" d="M153.519,378.235c3.922,4.176,8.784,8.179,15.43,13.449
		c10.846,8.602,21.702,10.667,23.601,8.349c-12.162-5.842-18.208-4.545-27.161-11.721
		C160.575,384.453,156.739,381.296,153.519,378.235z"/>
	<path fill="#C6C7C8" stroke="#C6C7C8" d="M267.877,516.104c-0.626-18.716-0.706-5.871-1.777,3.423
		c0.877,1.484,1.833,4.076,2.858,8.238c2.512,10.182,3.806,4.64,4.56-2.43C271.052,530.807,268.417,532.355,267.877,516.104z"/>
	<path fill="#C6C7C8" stroke="#C6C7C8" d="M69.17,268.07c-1.636,0.331-3.193,0.661-4.67,0.989c-4.566-8.393-2.063-3.588-2.648-3.454
		c-3.939,2.23-6.195,4.331-8.905,5.752c-4.042,2.12-7.641,3.026-7.641,3.026c10.472-7.68,13.133-14.692,13.133-14.692
		s1.389-20.143,9.278-31.71c7.891-11.57,15.291-13.776,23.996-15.068s28.042-7.06,51.555,17.416
		c3.065,10.391,14.438,14.468,19.672,14.642c-5.933-1.276-14.717-5.666-17.417-14.616c-24.376-25.066-44.329-19.251-53.315-17.964
		c-8.986,1.288-16.622,3.514-24.729,15.292c-8.108,11.779-9.689,26.417-9.689,26.417s-1.697,12.486-12.483,20.285
		c0,0,3.053-0.051,8.583-2.994c2.515-1.338,5.077-3.457,8.418-5.428c0.309-0.184,2.298,3.582,2.659,3.504
		c1.325-0.287,2.71-0.575,4.159-0.86c10.952-2.151,21.16-0.704,28.866,5.066C90.457,267.45,80.215,265.837,69.17,268.07z"/>
	<path fill="#C6C7C8" stroke="#C6C7C8" d="M287.12,510.053c7.233,13.716,40.868,6.712,16.548-3.913
		C305.188,510.575,295.07,512.84,287.12,510.053z"/>
	<path fill="#C6C7C8" stroke="#C6C7C8" d="M278.873,502.737c-6.033-15.946-0.719,8.266-0.719,8.266s-1.279,5.16-2.941,9.972
		c0.021,0.484,0.04,0.987,0.059,1.519c1.22,32.706,10.599-5.166,10.599-5.166s-1.055-4.686-1.73-8.635
		C281.791,507.325,279.873,505.376,278.873,502.737z"/>
	<path fill="#C6C7C8" stroke="#C6C7C8" d="M464.86,69.371c0.013,3.713-28.204,30.305-34.976,32.146
		c-6.772,1.84-55.612,27.503-55.612,27.503l-2.515,1.177c0,0,4.271-0.639,10.825-1.864l1.169-0.536c0,0,50.353-26.016,57.343-27.869
		c6.986-1.854,36.035-28.891,36.005-32.683c-0.026-3.791,5.724-7.047,2.079-7.52c-0.907-0.119-5.159,1.245-11.197,3.437
		C467.479,64.507,464.848,66.819,464.86,69.371z"/>
	<path fill="#C6C7C8" stroke="#C6C7C8" d="M470.521,107.45c5.272,3.58-5.836,7.905-4.306,9.922
		c1.529,2.018-49.423,20.211-57.029,21.292c-7.607,1.08-38.757,9.933-38.757,9.933s4.666-0.572,11.478-1.398
		c7.196-1.977,31.289-8.52,37.941-9.433c7.854-1.075,60.416-19.458,58.828-21.522c-1.585-2.064,9.871-6.44,4.412-10.113
		c-3.163-2.127-8.341-2.251-16.822-0.148C467.985,106.204,469.395,106.685,470.521,107.45z"/>
	<path fill="#C6C7C8" stroke="#C6C7C8" d="M318.611,294.629c-2.644,11.448-27.849,17.701-27.717,30.445
		c0.132,12.743-10.822,20.289-17.208,16.942c-6.385-3.345-23.837,5.054-23.084,17.437c0.737,12.112,4.038,121.526,36.764,137.368
		c-26.516-28.416-29.771-122.962-30.507-134.279c-0.823-12.644,17.171-21.15,23.778-17.712c6.607,3.438,17.892-4.226,17.71-17.232
		c-0.183-13.008,25.834-19.296,28.521-30.972c2.687-11.675,39.575-8.486,14.49-9.488c-2.661-0.107-4.876-0.459-6.751-0.984
		C328.418,287.054,319.855,289.243,318.611,294.629z"/>
	<path fill="#C6C7C8" stroke="#C6C7C8" d="M259.552,530.564c0,0,0.762-5.669,2.156-9.422c-0.835-3.445-1.626-5.787-2.364-7.283
		C259.857,523.959,259.552,530.564,259.552,530.564z"/>
	<path fill="#C6C7C8" stroke="#C6C7C8" d="M449.614,50.872c7.076,4.606-1.531,11.212-7.415,11.71
		c-5.879,0.5-35.647,21.371-41.45,23.477c-5.801,2.109-134.769,76.015-149.224,90.551c-12.835,12.907-30.128,34.556-33.023,40.228
		c3.202-1.791,5.642-3.059,6.923-3.552c5.92-8.565,20.479-26.194,31.718-37.365c0.149-0.148,0.331-0.311,0.504-0.471
		c1.002-1.064,1.938-1.993,2.781-2.732c9.639-8.443,126.402-77.811,136.676-82.903c3.033-1.502,10.063-4.586,18.535-8.168
		c10.655-6.103,32.955-21.003,38.035-21.413c6.072-0.487,14.938-7.198,7.612-11.926c-7.327-4.729,7.088-6.13,1.438-7.158
		c-1.32-0.239-6.882,2.181-14.628,6.029C447.237,48.115,447.215,49.31,449.614,50.872z"/>
	<path fill="#C6C7C8" stroke="#C6C7C8" d="M424.069,46.99c1.585-0.085,0.155,3.211-2.74,6.123
		c-2.889,2.913-56.597,36.756-56.597,36.756s30.348-17.646,55.113-31.087c6.565-4.238,11.413-7.469,12.238-8.289
		c2.978-2.962,4.442-6.321,2.805-6.24c-1.64,0.079,3.663-5.457-8.439-0.712c-0.594,0.235-1.515,0.69-2.703,1.333
		C424.203,45.624,423.254,47.032,424.069,46.99z"/>
	<path fill="#C6C7C8" stroke="#C6C7C8" d="M370.837,170.777c-15.016,0.434-28.145,0.177-28.145,0.177s51.362-8.505,84.169-10.423
		c-29.478,0.136-92.491,10.917-92.491,10.917S352.924,171.747,370.837,170.777z"/>
	<path fill="#C6C7C8" stroke="#C6C7C8" d="M364.863,244.973c0.641,0.247,3.073,1.419,5.057,5.619
		c2.105,4.455-5.956,18.9-13.385,20.097c2.968,0.674,5.544,1.244,7.27,1.607c8.166,1.709,18.297-15.446,15.897-20.432
		c-1.835-3.814-4.022-5.19-4.952-5.627c-0.171,0.116-0.356,0.2-0.563,0.24C371.171,247.093,365.824,245.307,364.863,244.973z"/>
	<path fill="#C6C7C8" stroke="#C6C7C8" d="M437.174,173.384c-2.042,7.381-6.013,0.979-8.128,6.75
		c-2.119,5.772-18.017,6.659-19.923,13.548c-1.904,6.891,0.523,7.554,0.523,7.554s-8.92,0.177-9.175,4.875
		c-0.04,0.729-0.308,1.335-0.726,1.833c5.833,3.224,11.163,2.266,11.35-1.367c0.249-4.793,9.459-4.943,9.459-4.943
		s-2.511-0.686-0.566-7.71c1.941-7.024,18.358-7.872,20.525-13.756c2.165-5.883,6.29,0.667,8.369-6.86
		c1.738-6.281-15.824-10.731-30.415-8.806C429.166,165.171,438.452,168.752,437.174,173.384z"/>
	<path fill="#C6C7C8" stroke="#C6C7C8" d="M332.048,285.242c-10.795-4.925-4.916-17.772-3.523-20.485
		c-4.614-1.078-7.933-1.863-7.933-1.863S308.634,283.994,332.048,285.242z"/>
	<path fill="#C6C7C8" stroke="#C6C7C8" d="M442.238,140.714c-0.662,0.065-1.419,0.143-2.218,0.224
		c11.075-0.203,21.136,1.233,21.147,4.147c0.011,2.842-1.966,12.853-12.246,15.776c21.282,3.554,24.674-12.579,24.643-16.351
		C473.538,140.719,456.655,139.307,442.238,140.714z"/>
	<path fill="#C6C7C8" stroke="#C6C7C8" d="M384.064,203.167c-3.787,4.253,9.933,7.499,8.649,14.031
		c-1.284,6.531-8.38,11.438-7.974,9.969c0.401-1.469-2.035-5.861-7.952,0.449c-5.922,6.31-0.935,7.15-0.935,7.15
		s1.444,9.647-1.082,11.451c1.527,0.512,6.453,2.036,9.322,1.466c3.427-0.68,1.683-11.947,1.683-11.947s-5.158-0.877,0.933-7.297
		c6.093-6.418,8.628-1.926,8.214-0.428c-0.412,1.496,6.896-3.485,8.2-10.147c0.701-3.584-3.078-6.212-6.116-8.552
		C393.694,209.793,388.555,208.025,384.064,203.167z"/>
	<path fill="#C6C7C8" stroke="#C6C7C8" d="M448.097,47.178c1.673-1.829,6.549-2.672,2.935-3.324
		c-2.117-0.383-15.539,6.432-31.186,14.927c-17.155,11.065-46.091,29.021-46.091,29.021S422.686,59.801,448.097,47.178z"/>
	<path fill="#C6C7C8" stroke="#C6C7C8" d="M418.468,164.5c-6.345-0.396-13.19,0.232-18.614,2.279
		c-5.775,2.178-17.259,3.36-29.017,3.999c15.034-0.437,31.962-1.567,39.475-4.348C412.8,165.51,415.579,164.883,418.468,164.5z"/>
	<path fill="#C6C7C8" stroke="#C6C7C8" d="M442.008,114.21c10.189-3.999,18.09-6.698,24.258-8.227
		c-6.331-0.812-17.093,2.14-35.547,9.522c-15.331,6.132-35.787,10.52-48.136,12.827l-1.423,0.655
		C381.16,128.988,417.802,123.705,442.008,114.21z"/>
	<path fill="#C6C7C8" stroke="#C6C7C8" d="M410.946,84.045c-5.926,2.109-136.258,75.588-153.299,91.405
		c-10.465,11.104-28.542,37.883-31.321,37.592c-0.153-0.015-0.48,0.084-0.901,0.244c-1.034,1.501-1.8,2.714-2.242,3.573
		c4.379-2.407,7.419-3.913,8.067-3.843c3.143,0.335,25.151-32.451,35.076-41.033c9.924-8.583,130.272-78.959,140.868-84.119
		c7.961-3.878,42.538-18.08,60.787-24.702c0.229-0.614,0.019-1.027-1.084-1.167c-2.488-0.317-31.022,11.097-51.258,19.65
		C413.564,82.836,411.922,83.697,410.946,84.045z"/>
	<path fill="#C6C7C8" stroke="#C6C7C8" d="M440.021,140.938c-3.045,0.055-6.163,0.227-9.171,0.535
		c-9.542,0.976-34.247,3.944-48.943,5.727c-1.296,0.356-2.051,0.565-2.051,0.565S423.483,142.632,440.021,140.938z"/>
	<path fill="#C6C7C8" stroke="#C6C7C8" d="M332.672,285.285c-0.218-0.01-0.411-0.03-0.624-0.043c0.762,0.349,1.624,0.65,2.56,0.911
		C341.571,285.14,345.526,285.756,332.672,285.285z"/>
	<path fill="#C6C7C8" stroke="#C6C7C8" d="M426.861,160.531c4.069-0.02,7.502,0.163,10.04,0.605
		c4.92,0.859,8.857,0.623,12.021-0.274c-0.123-0.021-0.238-0.034-0.36-0.055C443.82,159.972,436.074,159.992,426.861,160.531z"/>
	<path fill="#C6C7C8" stroke="#C6C7C8" d="M284.14,508.692c0.938,0.544,1.937,0.996,2.98,1.36c-0.197-0.372-0.381-0.758-0.539-1.163
		C283.031,499.687,283.265,503.569,284.14,508.692z"/>
	<path fill="#C6C7C8" stroke="#C6C7C8" d="M328.524,264.757c8.314,1.941,20.856,4.852,25.937,5.907
		c0.678,0.142,1.373,0.138,2.074,0.024c-11.063-2.505-27.739-6.444-27.739-6.444S328.692,264.427,328.524,264.757z"/>
	<path fill="#C6C7C8" stroke="#C6C7C8" d="M374.75,246.236c0.008-0.005,0.013-0.014,0.021-0.02
		c-0.129-0.041-0.231-0.078-0.307-0.104C374.537,246.14,374.632,246.181,374.75,246.236z"/>
	<path fill="#C6C7C8" stroke="#C6C7C8" d="M273.518,525.336c0.586-1.295,1.163-2.809,1.695-4.361
		C274.573,504.506,274.498,516.196,273.518,525.336z"/>
	<path fill="#C6C7C8" stroke="#C6C7C8" d="M303.668,506.14c-0.798-2.33-4.808-5.259-14.031-8.369
		c-0.772-0.26-1.525-0.588-2.271-0.949c3.111,3.332,6.536,5.768,10.317,7.039C299.984,504.633,301.967,505.396,303.668,506.14z"/>
	<path fill="#C6C7C8" stroke="#C6C7C8" d="M199.874,211.36c10.198-9.584,22.217-41.351,34.835-51.889
		c12.623-10.536,16.366-8.437,27.961-13.321c11.026-4.643,138.164-88.899,161.076-101.277c-0.434-0.712-2.13-0.835-7.845,1.449
		c-11.73,4.691-147.675,96.274-158.922,101.099c-11.245,4.826-14.86,2.782-27.117,13.149
		c-12.255,10.367-23.998,41.535-33.908,50.958c-9.908,9.426-27.433,33.18-32.201,33.443c-0.247,0.013-0.527,0.009-0.813-0.002
		c1.49,0.322,2.807,0.454,3.796,0.404C171.659,245.125,189.674,220.944,199.874,211.36z"/>
	<path fill="#C6C7C8" stroke="#C6C7C8" d="M142.091,359.983c-6.203-14.662-19.13-22.552-26.284-39.635
		c-7.153-17.082-1.615-21.492-8.961-35.932c-2.31-4.54-5.32-8.095-8.855-10.745c3.023,2.497,5.623,5.718,7.645,9.759
		c7.062,14.121,1.685,18.461,8.552,35.172c6.867,16.713,19.355,24.4,25.309,38.744c3.923,9.446,7.809,14.981,14.022,20.889
		C148.818,373.229,145.473,367.978,142.091,359.983z"/>
	<path fill="#C6C7C8" stroke="#C6C7C8" d="M261.708,521.143c0.013,0.055,0.023,0.096,0.037,0.15c2.325,9.662,3.59,4.849,4.355-1.766
		C264.284,516.462,262.801,518.201,261.708,521.143z"/>
	<path fill="#C6C7C8" stroke="#C6C7C8" d="M397.007,209.312c1.194-0.172,2.136-0.647,2.739-1.368
		c-1.869-1.032-3.789-2.487-5.609-4.433C392.338,205.51,394.401,207.303,397.007,209.312z"/>
	<path fill="#C6C7C8" stroke="#C6C7C8" d="M226.824,424.397c-36.213-31.043-43.176-35.13-35.9-28.261
		c1.873,1.767,2.284,3.093,1.627,3.896c6.992,3.36,15.997,9.071,28.758,20.128c34.954,30.29,31.32,103.907,31.32,103.907
		s2.538-18.688,6.716-10.209C258.126,489.891,252.299,446.238,226.824,424.397z"/>
</g>
<ellipse transform="matrix(0.9639 0.2662 -0.2662 0.9639 68.1494 -11.9843)" fill="#C6C7C8" stroke="#C6C7C8" cx="78.276" cy="245.361" rx="6.241" ry="6.631"/>
<path fill="#C6C7C8" stroke="#C6C7C8" d="M82.665,246.545c-0.754,2.728-3.37,4.384-5.845,3.7c-2.476-0.683-3.871-3.451-3.12-6.173
	c0.755-2.729,3.371-4.385,5.846-3.701C82.022,241.055,83.417,243.821,82.665,246.545z"/>
<ellipse transform="matrix(0.964 0.2658 -0.2658 0.964 68.1554 -11.5509)" fill="#C6C7C8" stroke="#C6C7C8" cx="76.758" cy="246.057" rx="3.867" ry="4.227"/>
<ellipse transform="matrix(0.964 0.2658 -0.2658 0.964 68.1862 -11.4427)" fill="#C6C7C8" stroke="#C6C7C8" cx="76.368" cy="246.189" rx="2.264" ry="2.593"/>
<ellipse transform="matrix(0.9641 0.2655 -0.2655 0.9641 68.1054 -11.4402)" fill="#C6C7C8" stroke="#C6C7C8" cx="76.368" cy="246.189" rx="1.755" ry="1.707"/>
<g>
	<path fill="#C6C7C8" stroke="#C6C7C8" d="M153.519,378.235c3.922,4.176,8.784,8.179,15.43,13.449
		c10.846,8.602,21.702,10.667,23.601,8.349c-12.162-5.842-10.813-16.266-19.766-23.441
		C167.97,372.732,156.739,381.296,153.519,378.235z"/>
	<path fill="#C6C7C8" stroke="#C6C7C8" d="M267.877,516.104c-0.627-18.716-0.706-5.871-1.777,3.423
		c0.876,1.484,1.833,4.076,2.858,8.238c2.513,10.182,3.805,4.64,4.561-2.43C271.052,530.807,268.417,532.355,267.877,516.104z"/>
	<path fill="#C6C7C8" stroke="#C6C7C8" d="M63.95,266.323c-1.637,0.33,2.027,2.408,0.55,2.736c-4.566-8.393-2.063-3.588-2.648-3.454
		c-3.939,2.23-6.195,4.331-8.905,5.752c-4.042,2.12-7.641,3.026-7.641,3.026c10.472-7.68,16.435-16.124,16.435-16.124
		s-0.607-18.468,7.282-30.035c7.891-11.57,14.049-14.311,22.754-15.604s27.978-6.769,51.49,17.707
		c3.065,10.391,15.832,14.756,21.066,14.93c-5.933-1.277-10.95-10.812-13.651-19.763c-24.376-25.066-51.216-20.533-60.202-19.245
		c-8.986,1.288-17.642,6.814-25.749,18.593c-8.108,11.779-6.943,29.255-6.943,29.255s-1.697,12.486-12.483,20.285
		c0,0,3.053-0.051,8.583-2.994c2.515-1.338,5.077-3.457,8.418-5.428c0.309-0.184,2.298,3.582,2.659,3.504
		c1.325-0.287,2.71-0.575,4.159-0.86c10.952-2.151,21.16-0.704,28.866,5.066C90.457,267.45,74.995,264.089,63.95,266.323z"/>
	<path fill="#C6C7C8" stroke="#C6C7C8" d="M287.12,510.053c7.233,13.716,40.868,6.712,16.548-3.913
		C305.188,510.575,295.072,512.84,287.12,510.053z"/>
	<path fill="#C6C7C8" stroke="#C6C7C8" d="M278.874,502.737c-6.034-15.946-0.72,8.266-0.72,8.266s-1.28,5.16-2.941,9.972
		c0.021,0.484,0.039,0.987,0.058,1.519c1.219,32.706,19.089,0.509,19.089,0.509s-9.544-10.36-10.221-14.31
		C281.791,507.325,279.874,505.376,278.874,502.737z"/>
	<path fill="#C6C7C8" stroke="#C6C7C8" d="M464.86,69.372c0.013,3.712-29.923,26.718-36.694,28.559
		c-6.771,1.841-53.894,31.089-53.894,31.089l-2.515,1.178c0,0,4.271-0.64,10.825-1.865l1.169-0.536c0,0,50.353-26.016,57.343-27.869
		c6.986-1.854,36.035-28.891,36.005-32.684c-0.026-3.791,5.724-7.046,2.079-7.518c-0.907-0.119-5.159,1.245-11.197,3.437
		C467.479,64.507,464.848,66.819,464.86,69.372z"/>
	<path fill="#C6C7C8" stroke="#C6C7C8" d="M470.521,107.45c5.272,3.58-5.836,7.905-4.306,9.922
		c1.529,2.018-51.769,16.537-59.373,17.617c-7.608,1.082-36.413,13.608-36.413,13.608s4.666-0.57,11.478-1.397
		c7.196-1.977,31.289-8.52,37.941-9.433c7.854-1.074,60.416-19.458,58.828-21.522c-1.585-2.064,12.162-10.479,6.705-14.153
		c-3.164-2.127-10.634,1.789-19.115,3.892C467.985,106.205,469.395,106.685,470.521,107.45z"/>
	<path fill="#C6C7C8" stroke="#C6C7C8" d="M318.611,294.629c-2.644,11.448-27.849,17.701-27.719,30.445
		c0.134,12.743-10.82,20.289-17.206,16.942c-6.385-3.345-23.838,5.054-23.085,17.437c0.738,12.112,4.038,121.526,36.765,137.368
		c-26.517-28.416-16.322-116.327-17.058-127.645c-0.823-12.645,3.923-16.83,10.53-13.393s30.869-8.316,30.687-21.324
		c-0.183-13.007,23.451-20.703,26.138-32.378c2.687-11.676,28.78-13.942,3.695-14.944c-2.661-0.107-4.876-0.459-6.751-0.984
		C328.418,287.054,319.855,289.243,318.611,294.629z"/>
	<path fill="#C6C7C8" stroke="#C6C7C8" d="M259.552,530.564c0,0,0.762-5.669,2.155-9.422c-0.834-3.445-1.625-5.787-2.362-7.283
		C259.856,523.959,259.552,530.564,259.552,530.564z"/>
	<path fill="#C6C7C8" stroke="#C6C7C8" d="M449.614,50.873c7.076,4.605-1.531,11.211-7.415,11.708
		c-5.879,0.5-38.919,18.55-44.722,20.657c-5.801,2.109-131.499,78.836-145.953,93.372c-12.833,12.907-30.127,34.556-33.022,40.228
		c3.202-1.791,5.642-3.059,6.923-3.552c5.92-8.565,20.479-26.194,31.719-37.365c0.147-0.148,0.33-0.311,0.502-0.471
		c1.003-1.064,1.938-1.993,2.783-2.732c9.636-8.443,126.4-77.811,136.675-82.903c3.033-1.502,10.063-4.586,18.535-8.168
		c10.655-6.103,32.955-21.002,38.035-21.413c6.072-0.486,14.938-7.198,7.612-11.927c-7.327-4.727,7.088-6.129,1.438-7.157
		c-1.32-0.239-6.882,2.181-14.628,6.029C447.237,48.115,447.215,49.309,449.614,50.873z"/>
	<path fill="#C6C7C8" stroke="#C6C7C8" d="M424.069,46.99c1.585-0.085-1.46,2-4.355,4.909c-2.889,2.914-54.981,37.97-54.981,37.97
		s30.348-17.646,55.113-31.088c6.565-4.238,11.413-7.469,12.238-8.289c2.978-2.962,4.442-6.321,2.805-6.24
		c-1.64,0.079,3.663-5.457-8.439-0.712c-0.594,0.235-1.515,0.69-2.703,1.333C424.203,45.624,423.254,47.033,424.069,46.99z"/>
	<path fill="#C6C7C8" stroke="#C6C7C8" d="M370.837,170.776c-15.016,0.435-4.957-2.371-4.957-2.371s30.127-6.143,62.935-8.061
		c-29.479,0.137-94.444,11.103-94.444,11.103S352.924,171.746,370.837,170.776z"/>
	<path fill="#C6C7C8" stroke="#C6C7C8" d="M364.863,244.973c0.641,0.247,3.073,1.419,5.057,5.619
		c2.105,4.455-5.956,18.9-13.385,20.097c2.968,0.674,11.518,5.798,13.244,6.16c8.167,1.709,21.903-16.99,19.505-21.976
		c-1.837-3.814-13.604-8.2-14.534-8.637c-0.171,0.116-0.356,0.2-0.563,0.24C371.171,247.093,365.824,245.307,364.863,244.973z"/>
	<path fill="#C6C7C8" stroke="#C6C7C8" d="M437.174,173.384c-2.042,7.381-6.013,0.979-8.128,6.75
		c-2.119,5.772-18.017,6.659-19.923,13.548c-1.904,6.891,0.523,7.554,0.523,7.554s-8.92,0.177-9.175,4.875
		c-0.04,0.729-0.308,1.335-0.726,1.833c5.833,3.224,14.448,8.826,14.635,5.193c0.249-4.793,6.174-11.503,6.174-11.503
		s5.665,2.924,7.609-4.101c1.94-7.024,13.697-5.817,15.864-11.703c2.165-5.883,10.014-5.084,12.093-12.612
		c1.738-6.281-23.062-10.643-37.653-8.718C429.166,165.171,438.452,168.753,437.174,173.384z"/>
	<path fill="#C6C7C8" stroke="#C6C7C8" d="M332.048,285.242c-10.795-4.925-4.916-17.772-3.523-20.485
		c-4.614-1.078-16.479-4.029-16.479-4.029S308.634,283.994,332.048,285.242z"/>
	<path fill="#C6C7C8" stroke="#C6C7C8" d="M442.238,140.714c-0.662,0.065-1.419,0.142-2.218,0.224
		c11.075-0.203,21.136,1.234,21.147,4.147c0.011,2.84-1.966,12.852-12.246,15.776c21.282,3.555,24.674-12.579,24.643-16.351
		C473.538,140.719,456.655,139.307,442.238,140.714z"/>
	<path fill="#C6C7C8" stroke="#C6C7C8" d="M384.064,203.167c-3.787,4.253,9.933,7.499,8.649,14.031
		c-1.284,6.531-8.38,11.438-7.974,9.969c0.401-1.469-2.035-5.861-7.952,0.449c-5.922,6.31-0.935,7.15-0.935,7.15
		s1.444,9.647-1.082,11.451c1.527,0.512,6.453,2.036,9.322,1.466c3.427-0.68,7.143-3.73,7.143-3.73s-0.371-0.081,5.721-6.5
		c6.092-6.418-1.62-10.939-2.034-9.441c-0.412,1.496,15.684-0.41,16.987-7.072c0.702-3.584-11.865-9.288-14.903-11.627
		C393.694,209.793,388.555,208.025,384.064,203.167z"/>
	<path fill="#C6C7C8" stroke="#C6C7C8" d="M448.322,49.432c1.673-1.829,6.323-4.925,2.709-5.578
		c-2.117-0.383-15.539,6.432-31.186,14.927c-17.155,11.065-46.091,29.021-46.091,29.021S422.911,62.054,448.322,49.432z"/>
	<path fill="#C6C7C8" stroke="#C6C7C8" d="M417.892,164.504c-6.346-0.396-12.614,0.228-18.038,2.274
		c-5.775,2.179-17.259,3.361-29.017,3.998c15.034-0.436,31.962-1.566,39.475-4.347C412.8,165.51,415.002,164.889,417.892,164.504z"
		/>
	<path fill="#C6C7C8" stroke="#C6C7C8" d="M442.008,114.21c10.189-3.999,18.09-6.698,24.258-8.227
		c-6.331-0.812-15.743-3.862-34.198,3.52c-15.33,6.132-37.136,16.522-49.484,18.83l-1.423,0.655
		C381.16,128.988,417.802,123.704,442.008,114.21z"/>
	<path fill="#C6C7C8" stroke="#C6C7C8" d="M410.946,84.046c-5.926,2.109-136.257,75.587-153.299,91.404
		c-10.465,11.104-28.542,37.883-31.321,37.592c-0.153-0.015-0.48,0.084-0.901,0.244c-1.034,1.501-1.8,2.714-2.242,3.573
		c4.379-2.407,7.419-3.913,8.067-3.843c3.143,0.335,25.15-32.451,35.076-41.033c9.924-8.585,132.126-74.875,142.724-80.035
		c7.96-3.878,40.683-22.164,58.932-28.786c0.229-0.615,0.019-1.026-1.084-1.167c-2.488-0.316-31.022,11.097-51.258,19.65
		C413.564,82.836,411.922,83.697,410.946,84.046z"/>
	<path fill="#C6C7C8" stroke="#C6C7C8" d="M446.11,140.711c-3.044,0.056-12.337-2.648-15.345-2.341
		c-9.541,0.977-34.163,7.048-48.859,8.829c-1.296,0.356-2.051,0.565-2.051,0.565S429.575,142.405,446.11,140.711z"/>
	<path fill="#C6C7C8" stroke="#C6C7C8" d="M332.672,285.285c-0.218-0.01-0.411-0.03-0.624-0.043c0.762,0.349,1.624,0.65,2.56,0.911
		C341.571,285.14,345.526,285.756,332.672,285.285z"/>
	<path fill="#C6C7C8" stroke="#C6C7C8" d="M426.861,160.531c4.069-0.02,7.502,0.161,10.04,0.605
		c4.92,0.859,8.857,0.623,12.021-0.274c-0.123-0.021-0.238-0.034-0.36-0.057C443.82,159.972,436.074,159.991,426.861,160.531z"/>
	<path fill="#C6C7C8" stroke="#C6C7C8" d="M284.14,508.692c0.938,0.544,1.937,0.996,2.98,1.36c-0.198-0.372-0.381-0.758-0.539-1.163
		C283.031,499.687,283.265,503.569,284.14,508.692z"/>
	<path fill="#C6C7C8" stroke="#C6C7C8" d="M328.524,264.757c8.314,1.941,20.856,4.852,25.937,5.907
		c0.678,0.142,1.373,0.138,2.074,0.024c-11.063-2.505-27.739-6.444-27.739-6.444S328.692,264.427,328.524,264.757z"/>
	<path fill="#C6C7C8" stroke="#C6C7C8" d="M374.75,246.236c0.008-0.005,0.013-0.014,0.021-0.02
		c-0.129-0.041-0.231-0.078-0.307-0.104C374.537,246.14,374.632,246.181,374.75,246.236z"/>
	<path fill="#C6C7C8" stroke="#C6C7C8" d="M273.519,525.336c0.585-1.295,1.162-2.809,1.694-4.361
		C274.573,504.506,274.498,516.196,273.519,525.336z"/>
	<path fill="#C6C7C8" stroke="#C6C7C8" d="M303.668,506.14c-0.798-2.33-4.808-5.259-14.03-8.369
		c-0.773-0.26-1.527-0.588-2.271-0.949c3.111,3.332,6.536,5.768,10.317,7.039C299.984,504.633,301.969,505.396,303.668,506.14z"/>
	<path fill="#C6C7C8" stroke="#C6C7C8" d="M199.874,211.36c10.198-9.584,22.217-41.351,34.835-51.89
		c12.623-10.535,16.364-8.436,27.96-13.321c11.026-4.641,138.165-88.898,161.077-101.275c-0.434-0.711-2.606-5.789-8.321-3.505
		c-11.731,4.693-147.258,96.988-158.506,101.813c-11.244,4.826-15.959,2.895-28.215,13.263
		c-12.256,10.366-25.328,43.631-35.239,53.054c-9.907,9.426-24.943,35.211-29.712,35.474c-0.247,0.013-0.527,0.009-0.813-0.002
		c1.49,0.322,2.807,0.454,3.796,0.404C171.659,245.125,189.674,220.944,199.874,211.36z"/>
	<path fill="#C6C7C8" stroke="#C6C7C8" d="M142.091,359.983c-6.203-14.662-8.834-22.481-15.987-39.564
		c-7.153-17.082,0.063-24.701-7.282-39.139c-2.31-4.541-17.295-4.958-20.831-7.608c3.023,2.497,5.623,5.718,7.645,9.759
		c7.062,14.121,1.685,18.461,8.552,35.172c6.867,16.713,5.572,32.461,11.526,46.805c3.923,9.447,21.592,6.921,27.805,12.828
		C148.818,373.229,145.473,367.978,142.091,359.983z"/>
	<path fill="#C6C7C8" stroke="#C6C7C8" d="M261.707,521.143c0.016,0.055,0.024,0.096,0.038,0.15c2.325,9.662,3.59,4.849,4.355-1.766
		C264.284,516.462,262.801,518.201,261.707,521.143z"/>
	<path fill="#C6C7C8" stroke="#C6C7C8" d="M397.007,209.312c1.194-0.172,2.136-0.647,2.739-1.368
		c-1.869-1.032-3.789-2.487-5.609-4.433C392.338,205.51,394.401,207.303,397.007,209.312z"/>
	<path fill="#C6C7C8" stroke="#C6C7C8" d="M235.198,414.688c-36.214-31.042-51.55-25.421-44.275-18.552
		c1.873,1.767,2.284,3.093,1.627,3.896c6.992,3.36,15.997,9.071,28.758,20.128c34.954,30.29,31.32,103.907,31.32,103.907
		s2.538-18.688,6.717-10.209C258.125,489.891,260.673,436.53,235.198,414.688z"/>
</g>
<ellipse transform="matrix(0.9639 0.2662 -0.2662 0.9639 68.1494 -11.9843)" fill="#C6C7C8" stroke="#C6C7C8" cx="78.276" cy="245.361" rx="6.241" ry="6.631"/>
<path fill="#C6C7C8" stroke="#C6C7C8" d="M82.665,246.545c-0.754,2.728-3.37,4.384-5.845,3.7c-2.476-0.683-3.871-3.451-3.12-6.173
	c0.755-2.729,3.371-4.385,5.846-3.701C82.022,241.055,83.417,243.821,82.665,246.545z"/>
<ellipse transform="matrix(0.964 0.2658 -0.2658 0.964 68.1554 -11.5509)" fill="#C6C7C8" stroke="#C6C7C8" cx="76.758" cy="246.057" rx="3.867" ry="4.227"/>
<ellipse transform="matrix(0.964 0.2658 -0.2658 0.964 68.1862 -11.4427)" fill="#C6C7C8" stroke="#C6C7C8" cx="76.368" cy="246.189" rx="2.264" ry="2.593"/>
<ellipse transform="matrix(0.9641 0.2655 -0.2655 0.9641 68.1054 -11.4402)" fill="#C6C7C8" stroke="#C6C7C8" cx="76.368" cy="246.189" rx="1.755" ry="1.707"/>
</svg>
