<?xml version="1.0" encoding="utf-8"?>
<!-- Generator: Adobe Illustrator 16.0.4, SVG Export Plug-In . SVG Version: 6.00 Build 0)  -->
<!DOCTYPE svg PUBLIC "-//W3C//DTD SVG 1.1//EN" "http://www.w3.org/Graphics/SVG/1.1/DTD/svg11.dtd">
<svg version="1.1" id="Ebene_1" xmlns="http://www.w3.org/2000/svg" xmlns:xlink="http://www.w3.org/1999/xlink" x="0px" y="0px"
	 width="566.93px" height="566.93px" viewBox="0 0 566.93 566.93" enable-background="new 0 0 566.93 566.93" xml:space="preserve">
<path fill="#C6C7C8" stroke="#C6C7C8" stroke-width="1.7187" d="M312.493,67.894"/>
<path fill="#C6C7C8" stroke="#C6C7C8" stroke-width="1.7187" d="M312.493,67.894"/>
<path fill="#C6C7C8" stroke="#C6C7C8" d="M408.479,146.741"/>
<path fill="#C6C7C8" stroke="#C6C7C8" d="M401.691,339.459"/>
<path fill="#C6C7C8" stroke="#C6C7C8" d="M221.178,339.12"/>
<path fill="#C6C7C8" stroke="#C6C7C8" d="M217.443,146.162"/>
<path fill="#C6C7C8" stroke="#C6C7C8" stroke-width="1.7187" d="M312.37,124.751"/>
<path fill="#C6C7C8" stroke="#C6C7C8" stroke-width="1.7187" d="M313.368,136.023"/>
<path fill="#C6C7C8" stroke="#C6C7C8" stroke-width="1.7187" d="M313.368,344.478"/>
<path fill="#C6C7C8" stroke="#C6C7C8" d="M292.172,227.266c0,7.091,3.418,11.671,3.418,11.671s-114.21,48.771-140.052,48.771
	c-25.842,0-18.339-5.836-18.339-5.836S262.917,265.19,292.172,227.266z"/>
<path fill="#C6C7C8" stroke="#C6C7C8" d="M131.212,314.401c-3.126,3.126-31.732-36.961-48.3-32.271
	C100.418,271.501,122.772,311.275,131.212,314.401z"/>
<path fill="#C6C7C8" stroke="#C6C7C8" d="M282.253,278.978c99.073-17.868,173.749-40.416,113.996-12.908
	c-59.753,27.507-72.524,21.257-72.524,21.257l-36.89-5.042C286.835,282.285,183.182,296.846,282.253,278.978z"/>
<path fill="#C6C7C8" stroke="#C6C7C8" d="M164.897,304.283c58.683-7.493,156.889-1.782,119.827,1.695
	c-26.325,2.471-78.012,2.133-78.012,2.133l-39.101-2.439C167.611,305.672,106.215,311.779,164.897,304.283z"/>
<path fill="#C6C7C8" stroke="#C6C7C8" d="M27.166,278.066c3.162,1.149,17.562,2.567,33.851,5.086
	C46.957,279.129,33.621,276.24,27.166,278.066z"/>
<path fill="#C6C7C8" stroke="#C6C7C8" d="M231.931,183.918c0.48,0.48,0.914,0.697,1.302,0.691
	C231.426,183.082,230.688,182.675,231.931,183.918z"/>
<path fill="#C6C7C8" stroke="#C6C7C8" d="M283.14,329.802C279.858,326.52,276.053,336.889,283.14,329.802L283.14,329.802z"/>
<path fill="#C6C7C8" stroke="#C6C7C8" d="M507.383,193.923c-53.197-73.736-79.195-43.347-112.391,0.122
	c-49.333-90.985-173.249-125.311-186.878-128.5c-6.878-2.709-34.594,0-15.005,0s22.535,48.316,30.023,51.675
	c7.489,3.358-1.682,7.095-5.016,18.35c-3.334,11.256,8.814-4.645,13.814,12.86c4.52,15.825,4.954,36.118,1.302,36.178
	c5.464,4.618,20.729,19.502,20.729,30.153c0,14.172,5.571,11.933,0,14.172c-5.571,2.24,30.762,7.085,20.946,12.192
	c-131.816,55.336-220.805,27.199-231.851,25.115c-11.046-2.084-23.915,8.908-15.891,11.825c12.127-7.363,42.55,2.883,62.912,10.914
	c14.38,3.891,25.503,9.204,25.503,16.646c0,20.008-61.426,48.923-65.021,52.518c-3.595,3.595,23.602,7.244,32.511-1.665
	c8.909-8.91,48.194-28.188,60.021-40.014c11.827-11.828,152.552,3.281,152.552,7.502c0,4.222-5.417-1.252-12.504,5.835
	c3.281,3.282,3.314,6.672,3.314,17.51c0,10.837-7.483,17.505-7.483,17.505s0,0,0,13.337s-7.502,17.4-7.502,17.4
	s-8.418-9.065-3.335,10.94c5.083,20.007-33.135,53.562-28.342,58.353c4.793,4.794,13.077-3.074,18.339-8.335
	c3.959-3.959,185.062-99.198,162.302-200.098c14.793-14.792,40.222,4.488,79.972-35.262c2.117-2.021,27.343,2.294,40.239,0.313
	c-17.685,0-48.354-13.791-47.485-13.957c2.655-0.505,48.246,8.466,55.071,5.796C555.054,210.634,508.983,196.979,507.383,193.923z
	 M277.959,429.598c0.293-2.205-1.311-10.311-0.782-12.242c0.581-2.133,4.659-4.655,5.373-6.885c0.782-2.442-2.688-6.279-1.767-8.81
	c0.584-1.604,5.247-6.59,6.089-8.624c0.766-1.856-4.32-5.546-3.508-7.414c0.871-2.006,7.35-2.077,8.263-4.084
	c1.394-3.062-3.939-8.885-2.479-11.912c1.226-2.538,9.656-2.449,10.905-4.935c1.503-2.986-7.628-10.874-6.121-13.738
	c1.728-3.292,11.349-2.238,13.029-5.303c1.113-2.025-11.662-7.323-10.587-9.226c1.707-3.028,15.829-4.781,17.381-7.423
	c1.914-3.257-15.196-9.569-13.626-12.099c2.24-3.615,14.675-3.247,15.912-4.98c2.29-3.203,2.166-8.191-22.681-8.168
	c-3.299,0.195-6.643,0.293-9.985,0.23c3.714-0.158,7.014-0.228,9.985-0.23c21.363-1.271,40.621-6.993,43.02-4.878
	c4.438-4.425,12.229-7.91,14.032,12.755C353.266,344.324,277.959,429.598,277.959,429.598z M471.432,191.488
	c-1.77,0-3.204-4.216-3.204-6.331c0-2.115,2.686-6.331,4.455-6.331c1.769,0,4.454,4.216,4.454,6.331
	C477.137,187.272,473.201,191.488,471.432,191.488z M477.369,183.079c-0.901-2.948-3.988-4.967-7.468-4.677
	c-3.956,0.332-6.919,3.529-6.617,7.141c0.301,3.578,3.69,6.218,7.6,5.947c-0.653,0.21-1.336,0.359-2.047,0.417
	c-5.162,0.433-9.708-3.541-10.153-8.875c-0.447-5.333,3.375-10.006,8.536-10.438c5.162-0.432,9.708,3.541,10.154,8.875
	C477.42,182.016,477.41,182.552,477.369,183.079z M397.137,202.629c-24.311,0-77.122,30.54-107.074,48.224
	c-1.972,1.429-4.311,2.831-7.083,4.188c2.171-1.283,4.556-2.695,7.083-4.188c20.626-14.947,0.308-33.022-2.913-36.17
	c-1.706-1.667-12.75,5.067-15.999,1.422c-2.275-2.55,10.937-19.481,8.103-22.823c-2.298-2.706-15.584,2.076-18.153-1.064
	c-1.615-1.971,8.051-15.384,6.359-17.501c-2.56-3.199-10.841,3.026-13.52-0.449c-2.332-3.026,3.174-18.028,0.803-21.216
	c-1.973-2.652-9.517,1.701-11.486-1.035c-2.348-3.263,0.452-13.63-1.846-16.972c-1.506-2.189-7.352,0.971-8.819-1.238
	c-1.37-2.06,1.939-9.488,0.615-11.552c-1.451-2.264-7.346-6.502-8.419-8.325c-1.691-2.879,0.113-9.689-1.424-12.519
	c-1.405-2.586-5.931-3.868-7.182-6.391c-1.134-2.285-2.465-13.792-3.482-16.554c0,0,96.81,74.735,105.427,119.33
	c2.021,10.456,2.163,16.938,1.265,20.774c23.227-3.138,64.035-22.159,77.746-19.438c36.635-41.945,54.084-57.036,80.268-32.379
	C422.603,152.415,434.559,171.504,397.137,202.629z"/>
</svg>
