<?xml version="1.0" encoding="utf-8"?>
<!-- Generator: Adobe Illustrator 16.0.4, SVG Export Plug-In . SVG Version: 6.00 Build 0)  -->
<!DOCTYPE svg PUBLIC "-//W3C//DTD SVG 1.1//EN" "http://www.w3.org/Graphics/SVG/1.1/DTD/svg11.dtd">
<svg version="1.1" id="Ebene_1" xmlns="http://www.w3.org/2000/svg" xmlns:xlink="http://www.w3.org/1999/xlink" x="0px" y="0px"
	 width="566.93px" height="566.93px" viewBox="0 0 566.93 566.93" enable-background="new 0 0 566.93 566.93" xml:space="preserve">
<path fill="#C6C7C8" stroke="#C6C7C8" d="M269.405,62.537c1.307,7.841-243.72,133.295-246.987,134.602s-15.682,19.602,0,20.909
	c15.682,1.307,79.062,10.454,115,49.659c23.522,20.909,11.761,5.227,22.216-6.534C204.718,198.445,260.258,59.27,276.593,63.844
	C292.928,68.418,162.9,238.957,166.167,266.4c2.613,8.494,7.841,10.454,11.761,11.108c62.727-32.67,191.448,12.414,203.209,1.96
	c11.762-10.455,12.415,18.295,9.801-20.909c-2.613-39.204-120.88-195.695-106.505-195.695s111.079,193.082,111.079,193.082
	s0,7.188,9.801,8.494c53.579-43.778,113.039-43.125,129.375-50.966c16.335-7.841,13.067-14.375,0-20.909
	c-45.085-15.028-251.235-119.9-245.354-132.315c5.881-12.415,222.437,148.868,256.413,122.078
	c-10.454-28.75-24.127-45.956-13.673-49.876c-9.147-26.136-244.373-89.517-243.72-79.062
	c21.562-16.335,235.879,62.073,235.879,62.073S441.904,63.844,389.632,55.35s-74.809-8.078-99.971-3.92
	c57.721-15.451,130.681,12.415,130.681,12.415S369.703,37.708,345.2,35.748s-57.173,17.969-60.113,15.028
	c-2.94-2.94,29.73-15.028,41.165-15.028s-100.229-3.664-123.494,6.534c0,0,76.938,8.984,70.404,10.944
	c-6.534,1.96-75.632-8.331-75.632-8.331c-12.73,4.774-78.409,34.631-72.528,30.71c53.204-35.47,149.303-17.642,149.303-17.642
	s-51.946-9.148-146.69,15.028c-29.675,7.572-81.675,47.045-81.675,47.045S170.088,81.486,266.792,61.23
	c-28.75,11.761-224.118,61.42-224.118,61.42s-33.977,64.687-16.335,67.301C43.98,192.565,268.099,54.696,269.405,62.537z"/>
<polygon fill="#C6C7C8" stroke="#C6C7C8" points="280.207,83.008 280.731,552.592 269.405,552.592 "/>
</svg>
